<?xml version="1.0" encoding="iso-8859-1"?>
<!-- Generator: Adobe Illustrator 19.0.0, SVG Export Plug-In . SVG Version: 6.00 Build 0)  -->
<svg version="1.1" id="Capa_1" xmlns="http://www.w3.org/2000/svg" xmlns:xlink="http://www.w3.org/1999/xlink" x="0px" y="0px"
	 viewBox="0 0 512.026 512.026" style="enable-background:new 0 0 512.026 512.026;" xml:space="preserve">
<g>
	<g transform="translate(1 1)">
		<path style="fill:#0377BC;" d="M263.533,16.08v111.104c-1.792,0-3.584,0.171-5.291,0.341l-13.824,1.451
			c-4.406,0.421-8.772,1.192-13.056,2.304c-10.303,3.029-21.007,4.468-31.744,4.267c-4.275,0.045-8.548-0.154-12.8-0.597h-0.085
			c-19.883-1.877-24.149-7.936-51.115-7.936c-4.246-0.045-8.491,0.154-12.715,0.597c-0.022-0.023-0.053-0.036-0.085-0.036
			c-0.032,0-0.063,0.013-0.085,0.036c-19.883,1.877-24.149,7.936-51.2,7.936c-4.218,0.045-8.435-0.154-12.629-0.597
			c-0.031,0.039-0.078,0.063-0.128,0.063s-0.097-0.023-0.128-0.063c-19.883-1.877-24.149-7.936-51.115-7.936V16.08
			c0-4.713,3.821-8.533,8.533-8.533H255C259.713,7.547,263.533,11.367,263.533,16.08z"/>
		<path style="fill:#02A9F4;" d="M237.933,16.08v111.104c-1.792,0-3.584,0.171-5.291,0.341l-13.824,1.451
			c-4.406,0.421-8.772,1.192-13.056,2.304c-6.191,1.793-12.531,3.022-18.944,3.669h-0.085c-4.223,0.443-8.468,0.643-12.715,0.597
			c-26.965,0-31.232-6.059-51.115-7.936c-0.022-0.023-0.053-0.036-0.085-0.036c-0.032,0-0.063,0.013-0.085,0.036
			c-4.223-0.443-8.468-0.643-12.715-0.597c-26.965,0-31.232,6.059-51.115,7.936c-0.031,0.039-0.078,0.063-0.128,0.063
			s-0.097-0.023-0.128-0.063c-19.883-1.877-24.149-7.936-51.115-7.936V16.08c0-4.713,3.821-8.533,8.533-8.533H229.4
			C234.113,7.547,237.933,11.367,237.933,16.08z"/>
		<path style="fill:#4E342E;" d="M263.533,101.584l-1.024,400.896H33.133c-14.138,0-25.6-11.462-25.6-25.6V101.413
			c32,0,32,8.533,64,8.533s32.085-8.533,64.085-8.533s32,8.533,64,8.533c10.737,0.202,21.441-1.237,31.744-4.267
			c4.284-1.112,8.65-1.883,13.056-2.304l13.824-1.451C259.949,101.755,261.741,101.584,263.533,101.584z"/>
		<path style="fill:#C52828;" d="M502.381,230.693L460.824,502.48H219.928l-41.643-271.872c-0.346-2.447,0.386-4.924,2.006-6.79
			c1.62-1.866,3.97-2.938,6.442-2.938v-8.533c0.172-38.936,16.45-76.064,44.971-102.571c25.126-23.537,57.305-38.142,91.563-41.557
			c5.668-0.615,11.365-0.928,17.067-0.939c84.821,0,153.6,64.939,153.6,145.067v8.533c2.489-0.003,4.855,1.08,6.478,2.966
			C502.035,225.732,502.755,228.233,502.381,230.693z"/>
		<path style="fill:#F44335;" d="M468.248,230.693L426.691,502.48H219.928l-41.643-271.872c-0.346-2.447,0.386-4.924,2.006-6.79
			c1.62-1.866,3.97-2.938,6.442-2.938v-8.533c0.172-38.936,16.45-76.064,44.971-102.571c25.126-23.537,57.305-38.142,91.563-41.557
			c76.8,7.936,136.533,69.461,136.533,144.128v8.533c2.489-0.003,4.855,1.08,6.478,2.966
			C467.902,225.732,468.621,228.233,468.248,230.693z"/>
		<path style="fill:#C52828;" d="M493.933,212.347v8.533h-34.645c-4.082,0.007-7.587,2.904-8.363,6.912
			c-10.667,48.043-47.019,86.955-110.592,86.955s-99.84-38.912-110.507-86.955c-0.776-4.008-4.281-6.905-8.363-6.912h-34.731v-8.533
			c0.172-38.936,16.45-76.064,44.971-102.571c29.449-27.527,68.319-42.733,108.629-42.496
			C425.155,67.28,493.933,132.219,493.933,212.347z"/>
		<g>
			<path style="fill:#F57C00;" d="M340.333,118.48c-32.99,0-59.733,26.744-59.733,59.733s26.744,59.733,59.733,59.733
				s59.733-26.744,59.733-59.733C400.029,145.239,373.308,118.518,340.333,118.48z M340.333,203.813
				c-14.138,0-25.6-11.462-25.6-25.6s11.462-25.6,25.6-25.6c14.138,0,25.6,11.462,25.6,25.6
				C365.891,192.334,354.454,203.771,340.333,203.813z"/>
			<path style="fill:#F57C00;" d="M471.917,220.88h-12.629c-4.082,0.007-7.587,2.904-8.363,6.912
				c-2.001,9.292-5.094,18.315-9.216,26.88c0.692-2.675,1.036-5.429,1.024-8.192c-0.006-16.108-11.273-30.019-27.028-33.372
				c-15.755-3.353-31.71,4.765-38.275,19.474s-1.953,32.007,11.064,41.495c13.017,9.488,30.896,8.585,42.89-2.167
				c-12.536,17.43-30.379,30.333-50.859,36.779c-23.916-10.762-39.542-34.284-40.192-60.501v-3.413
				c0.085-2.304,0.256-4.608,0.512-6.827c3.89-30.953,28.268-55.331,59.221-59.221c2.831-0.343,5.681-0.514,8.533-0.512
				C436.424,178.219,461.466,195.094,471.917,220.88z"/>
			<path style="fill:#F57C00;" d="M340.333,244.773v3.413c-0.65,26.217-16.276,49.74-40.192,60.501
				c-20.429-6.501-38.228-19.395-50.773-36.779c6.22,5.624,14.313,8.727,22.699,8.704c18.851,0,34.133-15.282,34.133-34.133
				c0-18.851-15.282-34.133-34.133-34.133c-18.851,0-34.133,15.282-34.133,34.133c0.002,2.645,0.317,5.28,0.939,7.851
				c-4.028-8.468-7.063-17.373-9.045-26.539c-0.776-4.008-4.281-6.905-8.363-6.912h-12.715
				c10.451-25.786,35.494-42.661,63.317-42.667c2.852-0.002,5.702,0.169,8.533,0.512c30.953,3.89,55.331,28.268,59.221,59.221
				C340.077,240.165,340.248,242.469,340.333,244.773z"/>
		</g>
	</g>
	<g>
		<path d="M225.519,315.661c2.241-0.321,4.262-1.519,5.619-3.331s1.939-4.088,1.617-6.329l-2.441-17.067
			c-0.669-4.666-4.994-7.905-9.66-7.236c-4.666,0.669-7.905,4.994-7.236,9.66l2.441,17.067c0.321,2.241,1.519,4.262,3.331,5.619
			C221.002,315.401,223.278,315.983,225.519,315.661z"/>
		<path d="M232.823,366.861c4.666-0.665,7.909-4.986,7.245-9.651l-2.432-17.067c-0.43-3.02-2.438-5.581-5.268-6.718
			c-2.83-1.138-6.052-0.679-8.452,1.203s-3.614,4.902-3.184,7.921l2.432,17.067c0.599,4.206,4.2,7.33,8.448,7.33
			C232.017,366.947,232.422,366.919,232.823,366.861z"/>
		<path d="M228.045,393.758l10.974,76.8c0.433,3.018,2.443,5.576,5.273,6.71s6.051,0.672,8.448-1.212
			c2.397-1.884,3.608-4.904,3.175-7.922l-10.974-76.8c-0.669-4.666-4.994-7.905-9.66-7.236
			C230.615,384.768,227.376,389.093,228.045,393.758z"/>
		<path d="M503.467,494.947h-31.693l40.03-261.973c1.144-6.93-2.194-13.832-8.337-17.237v-2.389c0-84.693-72.73-153.6-162.133-153.6
			c-23.509-0.007-46.76,4.893-68.267,14.387V17.08c0-9.426-7.641-17.067-17.067-17.067H17.067C7.641,0.013,0,7.654,0,17.08v247.467
			c0.048,0.374,0.123,0.745,0.222,1.109c-0.1,0.364-0.174,0.735-0.222,1.109V477.88c0,18.851,15.282,34.133,34.133,34.133h469.333
			c4.713,0,8.533-3.82,8.533-8.533S508.18,494.947,503.467,494.947z M222.515,230.609c13.005,58.684,57.429,93.67,118.861,93.67
			s105.865-34.987,118.878-93.867h34.679L454.52,494.947H228.233L187.81,230.413L222.515,230.609z M434.526,253.018
			c-2.4,4.852-5.191,9.501-8.346,13.901c-9.15,7.766-22.471,8.119-32.02,0.849c-9.549-7.27-12.752-20.205-7.701-31.091
			c5.051-10.886,16.997-16.792,28.714-14.195c11.717,2.597,20.048,12.997,20.027,24.998
			C435.193,249.346,434.967,251.205,434.526,253.018z M444.766,223.407c-10.952-16.116-31.439-22.75-49.76-16.115
			c-18.32,6.636-29.806,24.852-27.897,44.243c1.909,19.391,16.726,35.018,35.989,37.954c-6.561,4.457-13.649,8.083-21.103,10.795
			c-19.152-9.979-31.434-29.512-32.128-51.098v-3.123c0.077-2.082,0.23-4.164,0.452-6.059c3.339-27.099,24.683-48.454,51.78-51.806
			c2.489-0.301,4.994-0.452,7.501-0.452c19.563-0.005,37.873,9.625,48.956,25.745c-6.038,0.594-11.294,4.379-13.773,9.916H444.766z
			 M341.333,196.28c-9.426,0-17.067-7.641-17.067-17.067s7.641-17.067,17.067-17.067c9.426,0,17.067,7.641,17.067,17.067
			S350.759,196.28,341.333,196.28z M341.333,282.304c4.559,8.995,10.835,17.011,18.475,23.595c-12.239,1.758-24.667,1.758-36.907,0
			C330.527,299.313,336.789,291.298,341.333,282.304z M375.467,178.633c0-18.818-15.255-34.074-34.074-34.074
			s-34.074,15.255-34.074,34.074c-5.307-2.612-10.9-4.6-16.666-5.922c3.252-25.545,24.988-44.689,50.739-44.689
			c25.751,0,47.487,19.144,50.739,44.689c-5.785,1.322-11.398,3.309-16.725,5.922H375.467z M280.61,188.19
			c27.086,3.334,48.432,24.663,51.789,51.746c0.239,1.997,0.393,4.07,0.461,5.837v3.2c-0.64,21.647-12.919,41.261-32.111,51.294
			c-7.441-2.712-14.518-6.335-21.069-10.786c19.212-2.983,33.965-18.598,35.854-37.948s-9.566-37.523-27.838-44.165
			c-18.272-6.642-38.723-0.067-49.701,15.98c-2.502-5.532-7.779-9.298-13.824-9.865c11.072-16.101,29.356-25.725,48.896-25.737
			c2.501,0,5,0.149,7.484,0.444H280.61z M247.467,247.48c0-14.139,11.462-25.6,25.6-25.6s25.6,11.462,25.6,25.6
			c0,14.138-11.462,25.6-25.6,25.6c-6.05-0.006-11.897-2.184-16.478-6.135c-3.223-4.493-6.063-9.249-8.491-14.217
			C247.702,251.006,247.49,249.247,247.467,247.48z M486.4,213.347h-8.218c-12.858-26.133-39.457-42.682-68.582-42.667
			c-0.196,0-0.393,0-0.589,0c-4.227-34.147-33.24-59.791-67.648-59.791s-63.421,25.643-67.648,59.791c-0.222,0-0.427,0-0.649,0
			c-29.127-0.014-55.729,16.533-68.591,42.667h-8.209c0.132-36.595,15.448-71.494,42.291-96.367
			c27.843-26.069,64.635-40.447,102.775-40.166C421.325,76.813,486.4,138.065,486.4,213.347z M256,17.08v65.775
			c-7.184,4.218-14.031,8.985-20.48,14.259c-1.809,0.444-3.61,0.853-5.342,1.348c-9.595,2.811-19.563,4.144-29.559,3.951
			c-10.077,0.201-20.126-1.14-29.798-3.977c-11.104-3.24-22.636-4.777-34.202-4.557c-11.57-0.219-23.107,1.314-34.219,4.548
			c-9.694,2.843-19.766,4.187-29.867,3.985c-10.077,0.201-20.126-1.14-29.798-3.977c-8.36-2.426-16.974-3.875-25.668-4.318V17.08
			H256z M51.2,494.947H34.133c-9.426,0-17.067-7.641-17.067-17.067V266.765c-0.048-0.375-0.122-0.745-0.222-1.109
			c0.099-0.364,0.173-0.735,0.222-1.109V111.211c7.205,0.441,14.337,1.686,21.265,3.712c11.104,3.24,22.636,4.777,34.202,4.557
			c11.593,0.22,23.153-1.316,34.287-4.557c9.671-2.84,19.721-4.181,29.798-3.977c10.077-0.201,20.126,1.14,29.798,3.977
			c11.104,3.24,22.636,4.777,34.202,4.557c5.009,0,9.233-0.222,13.005-0.563c-22.174,26.477-34.356,59.894-34.423,94.43v2.415
			c-6.125,3.382-9.467,10.245-8.354,17.152l40.124,262.033H51.2z"/>
		<path d="M42.667,76.813c4.713,0,8.533-3.821,8.533-8.533v-25.6c0-4.713-3.821-8.533-8.533-8.533s-8.533,3.821-8.533,8.533v25.6
			C34.133,72.993,37.954,76.813,42.667,76.813z"/>
		<path d="M42.667,136.547c-4.713,0-8.533,3.821-8.533,8.533v307.2c0,4.713,3.821,8.533,8.533,8.533s8.533-3.82,8.533-8.533v-307.2
			C51.2,140.367,47.379,136.547,42.667,136.547z"/>
	</g>
</g>
<g>
</g>
<g>
</g>
<g>
</g>
<g>
</g>
<g>
</g>
<g>
</g>
<g>
</g>
<g>
</g>
<g>
</g>
<g>
</g>
<g>
</g>
<g>
</g>
<g>
</g>
<g>
</g>
<g>
</g>
</svg>
