<?xml version="1.0" encoding="iso-8859-1"?>
<!-- Generator: Adobe Illustrator 19.0.0, SVG Export Plug-In . SVG Version: 6.00 Build 0)  -->
<svg version="1.1" id="Capa_1" xmlns="http://www.w3.org/2000/svg" xmlns:xlink="http://www.w3.org/1999/xlink" x="0px" y="0px"
	 viewBox="0 0 512.031 512.031" style="enable-background:new 0 0 512.031 512.031;" xml:space="preserve">
<g transform="translate(-1)">
	<g transform="translate(3 1)">
		<path style="fill:#4E342E;" d="M501.476,178.216v290.133c0.756,18.066-13.253,33.335-31.317,34.133
			c-4.436-0.027-8.81-1.047-12.8-2.987c11.604-6.005,18.785-18.084,18.517-31.147V178.216c-0.023-33.28-19.371-63.517-49.579-77.483
			c-11.616-5.665-18.902-17.542-18.688-30.464v-37.12h25.6v37.12c-0.214,12.922,7.072,24.799,18.688,30.464
			C482.106,114.698,501.453,144.936,501.476,178.216z"/>
		<path style="fill:#795548;" d="M475.876,178.216v290.133c0.268,13.063-6.913,25.142-18.517,31.147
			c-11.556-6.044-18.696-18.108-18.432-31.147c0.111,10.648-4.593,20.777-12.8,27.563c-5.248,4.229-11.778,6.546-18.517,6.571
			c-4.439-0.007-8.817-1.029-12.8-2.987c-11.604-6.005-18.785-18.084-18.517-31.147c0.13,10.652-4.578,20.789-12.8,27.563
			c-8.805,7.22-21.02,8.622-31.232,3.584c-11.604-6.005-18.785-18.084-18.517-31.147V178.216
			c0.023-33.28,19.371-63.517,49.579-77.483c11.616-5.665,18.902-17.542,18.688-30.464v-37.12h25.6v37.12
			c-0.214,12.922,7.072,24.799,18.688,30.464C456.506,114.698,475.853,144.936,475.876,178.216z"/>
		<path style="fill:#C52828;" d="M441.743,24.616v8.533c0,4.713-3.82,8.533-8.533,8.533h-51.2c-4.713,0-8.533-3.821-8.533-8.533
			v-8.533c0.028-9.414,7.653-17.039,17.067-17.067h34.133C434.09,7.577,441.715,15.202,441.743,24.616z"/>
		<path style="fill:#F44335;" d="M416.143,24.616v8.533c0,4.713-3.82,8.533-8.533,8.533h-25.6c-4.713,0-8.533-3.821-8.533-8.533
			v-8.533c0.028-9.414,7.653-17.039,17.067-17.067h8.533C408.49,7.577,416.115,15.202,416.143,24.616z"/>
		<rect x="322.276" y="220.882" style="fill:#C52828;" width="187.733" height="145.067"/>
		<rect x="313.743" y="220.882" style="fill:#F44335;" width="162.133" height="145.067"/>
		<path style="fill:#2E7D32;" d="M313.743,357.416v76.8h-39.168c-2.237,0.018-4.379,0.905-5.973,2.475l-40.192,40.192
			l-40.192-40.192c-1.594-1.57-3.736-2.457-5.973-2.475H40.676v-76.8H313.743z"/>
		<path style="fill:#4CAF50;" d="M288.143,357.416v76.8h-39.168c-2.237,0.018-4.379,0.905-5.973,2.475l-40.192,40.192
			l-40.192-40.192c-1.594-1.57-3.736-2.457-5.973-2.475H40.676v-76.8H288.143z"/>
		<path style="fill:#4E342E;" d="M339.258,347.005c0.522,7.094-1.932,14.085-6.772,19.297c-4.84,5.212-11.63,8.176-18.743,8.18
			H42.127c-13.785,0.295-25.501-10.012-26.965-23.723c-0.522-7.094,1.932-14.085,6.772-19.297c4.84-5.212,11.63-8.176,18.743-8.18
			h271.616c0.485-0.014,0.971,0.014,1.451,0.085C326.971,323.736,337.881,333.844,339.258,347.005z"/>
		<path style="fill:#795548;" d="M313.658,347.005c0.522,7.094-1.932,14.085-6.772,19.297c-4.84,5.212-11.63,8.176-18.743,8.18
			H42.127c-13.785,0.295-25.501-10.012-26.965-23.723c-0.522-7.094,1.932-14.085,6.772-19.297c4.84-5.212,11.63-8.176,18.743-8.18
			h246.016c0.485-0.014,0.971,0.014,1.451,0.085C301.371,323.736,312.281,333.844,313.658,347.005z"/>
		<path style="fill:#FDD834;" d="M313.743,263.549v59.819c-0.48-0.071-0.966-0.099-1.451-0.085H189.242
			c-2.237,0.018-4.379,0.905-5.973,2.475l-48.725,48.725l-48.725-48.725c-1.594-1.57-3.736-2.457-5.973-2.475H40.676v-59.733
			H313.743z"/>
		<path style="fill:#FFEB3A;" d="M288.143,263.549v59.819c-0.48-0.071-0.966-0.099-1.451-0.085H163.642
			c-2.237,0.018-4.379,0.905-5.973,2.475l-35.925,35.925l-35.925-35.925c-1.594-1.57-3.736-2.457-5.973-2.475H40.676v-59.733
			H288.143z"/>
		<g>
			<path style="fill:#F57C00;" d="M339.343,263.549v8.533c0,4.713-3.821,8.533-8.533,8.533H23.61c-4.713,0-8.533-3.82-8.533-8.533
				v-8.533c0-47.128,38.205-85.333,85.333-85.333h153.6C301.138,178.216,339.343,216.421,339.343,263.549z"/>
			<path style="fill:#F57C00;" d="M339.343,425.682v25.6c0,28.277-22.923,51.2-51.2,51.2H254.01c28.277,0,51.2-22.923,51.2-51.2
				v-25.6c0-4.713-3.821-8.533-8.533-8.533h34.133C335.523,417.149,339.343,420.969,339.343,425.682z"/>
		</g>
		<g>
			<path style="fill:#FF9801;" d="M305.21,263.549v8.533c0,4.713-3.821,8.533-8.533,8.533H23.61c-4.713,0-8.533-3.82-8.533-8.533
				v-8.533c0-47.128,38.205-85.333,85.333-85.333h119.467C267.005,178.216,305.21,216.421,305.21,263.549z"/>
			<path style="fill:#FF9801;" d="M305.21,425.682v25.6c0,28.277-22.923,51.2-51.2,51.2H66.276c-28.277,0-51.2-22.923-51.2-51.2
				v-25.6c0-4.713,3.821-8.533,8.533-8.533h158.635c2.237,0.018,4.379,0.905,5.973,2.475l40.192,40.192l40.192-40.192
				c1.594-1.57,3.736-2.457,5.973-2.475h22.101C301.389,417.149,305.21,420.969,305.21,425.682z"/>
		</g>
	</g>
	<g>
		<path d="M94.876,230.416h8.533c4.713,0,8.533-3.821,8.533-8.533c0-4.713-3.821-8.533-8.533-8.533h-8.533
			c-4.713,0-8.533,3.821-8.533,8.533C86.343,226.595,90.164,230.416,94.876,230.416z"/>
		<path d="M146.076,247.482h8.533c4.713,0,8.533-3.821,8.533-8.533c0-4.713-3.821-8.533-8.533-8.533h-8.533
			c-4.713,0-8.533,3.821-8.533,8.533C137.543,243.662,141.364,247.482,146.076,247.482z"/>
		<path d="M248.476,247.482h8.533c4.713,0,8.533-3.821,8.533-8.533c0-4.713-3.82-8.533-8.533-8.533h-8.533
			c-4.713,0-8.533,3.821-8.533,8.533C239.943,243.662,243.764,247.482,248.476,247.482z"/>
		<path d="M197.276,230.416h8.533c4.713,0,8.533-3.821,8.533-8.533c0-4.713-3.82-8.533-8.533-8.533h-8.533
			c-4.713,0-8.533,3.821-8.533,8.533C188.743,226.595,192.564,230.416,197.276,230.416z"/>
		<path d="M458.465,93.976c-8.6-4.258-13.951-13.114-13.722-22.707V51.216c4.713,0,8.533-3.821,8.533-8.533V25.616
			c0-14.138-11.462-25.6-25.6-25.6h-34.133c-14.138,0-25.6,11.462-25.6,25.6v17.067c0,4.713,3.82,8.533,8.533,8.533v20.053
			c0.215,9.6-5.144,18.458-13.747,22.724c-33.167,15.425-54.418,48.644-54.519,85.222v6.758c-15.21-9.982-33.007-15.298-51.2-15.292
			H94.876c-51.816,0.061-93.806,42.051-93.867,93.867v8.533c0,9.426,7.641,17.067,17.067,17.067h8.533v26.812
			c-5.894,1.476-11.28,4.516-15.59,8.798c-8.675,8.576-12.045,21.167-8.813,32.929C5.439,370.45,14.77,379.55,26.61,382.488v27.127
			h-8.533c-9.426,0-17.067,7.641-17.067,17.067v25.6c0.038,32.974,26.759,59.696,59.733,59.733h230.4
			c11.348-0.002,22.457-3.26,32.009-9.387c6.906,6.019,15.748,9.351,24.909,9.387c12.422-0.12,24.036-6.179,31.241-16.299
			c7.153,10.215,18.839,16.298,31.309,16.298s24.156-6.083,31.309-16.298c7.205,10.12,18.819,16.179,31.241,16.299
			c22.763-0.829,40.575-19.9,39.851-42.667V179.216C512.904,142.627,491.643,109.401,458.465,93.976z M385.01,25.616
			c0-4.713,3.821-8.533,8.533-8.533h34.133c4.713,0,8.533,3.821,8.533,8.533v8.533h-51.2V25.616z M470.343,290.149
			c4.713,0,8.533-3.82,8.533-8.533v-51.2h17.067v128h-17.067v-42.667c0-4.713-3.82-8.533-8.533-8.533s-8.533,3.82-8.533,8.533
			v42.667h-112.23c1.004-3.584,1.41-7.309,1.203-11.025c-1.321-14.404-11.516-26.441-25.506-30.114v-27.128h8.533
			c9.426,0,17.067-7.641,17.067-17.067v-8.533c-0.015-11.686-2.227-23.265-6.519-34.133H461.81v51.2
			C461.81,286.328,465.63,290.149,470.343,290.149z M316.743,366.949l-167.134,0l34.133-34.133h131.558
			c9.29-0.227,17.256,6.59,18.466,15.804c0.35,4.95-1.461,9.808-4.966,13.32C325.612,365.153,321.27,366.957,316.743,366.949z
			 M18.076,264.549c0.047-42.396,34.404-76.753,76.8-76.8H257.01c42.396,0.047,76.753,34.404,76.8,76.8v8.533H18.076V264.549z
			 M308.21,290.149v25.6H183.743c-4.524,0.011-8.86,1.808-12.066,5.001l-42.667,42.667l-42.667-42.667
			c-3.206-3.192-7.542-4.989-12.066-5.001H43.676v-25.6H308.21z M18.119,351.145c-0.35-4.95,1.461-9.808,4.966-13.321
			c3.189-3.213,7.531-5.017,12.058-5.009h39.134l34.133,34.133H36.585C27.295,367.176,19.329,360.359,18.119,351.145z
			 M43.676,384.016H308.21v25.6h-39.134c-4.524,0.011-8.86,1.808-12.066,5.001l-34.133,34.133l-34.133-34.133
			c-3.206-3.192-7.542-4.989-12.066-5.001H43.676V384.016z M60.743,494.949c-23.552-0.028-42.638-19.114-42.667-42.667v-25.6
			h158.601l40.166,40.166c3.332,3.331,8.734,3.331,12.066,0l40.166-40.166h64.734v25.6c-0.028,23.552-19.114,42.638-42.667,42.667
			H60.743z M473.159,494.949c-13.306-0.864-23.433-12.286-22.699-25.6c0-4.713-3.82-8.533-8.533-8.533
			c-4.713,0-8.533,3.82-8.533,8.533c1.02,8.772-3.086,17.35-10.557,22.057c-7.472,4.707-16.982,4.707-24.454,0
			c-7.472-4.707-11.577-13.286-10.557-22.057c0-4.713-3.821-8.533-8.533-8.533c-4.713,0-8.533,3.82-8.533,8.533
			c0.735,13.314-9.392,24.736-22.699,25.6c-4.188-0.042-8.264-1.355-11.691-3.763c9.359-10.8,14.51-24.613,14.507-38.903v-25.6
			c0-9.426-7.641-17.067-17.067-17.067h-8.533v-26.812c5.388-1.39,10.35-4.086,14.447-7.851c0.839,0.316,1.724,0.494,2.62,0.529
			H461.81v42.667c0,4.713,3.82,8.533,8.533,8.533s8.533-3.82,8.533-8.533v-42.667h17.067v93.867
			C496.662,482.689,486.493,494.116,473.159,494.949z M495.943,213.349h-17.067v-34.133c0-4.713-3.82-8.533-8.533-8.533
			s-8.533,3.821-8.533,8.533v34.133H335.585c-3.047-4.635-6.496-8.992-10.308-13.022v-21.111
			c0.086-29.928,17.475-57.106,44.612-69.726c14.644-7.059,23.87-21.965,23.654-38.221V51.216h34.133v20.053
			c-0.212,16.245,9.005,31.143,23.637,38.204c27.145,12.623,44.541,39.806,44.629,69.743V213.349z"/>
	</g>
</g>
<g>
</g>
<g>
</g>
<g>
</g>
<g>
</g>
<g>
</g>
<g>
</g>
<g>
</g>
<g>
</g>
<g>
</g>
<g>
</g>
<g>
</g>
<g>
</g>
<g>
</g>
<g>
</g>
<g>
</g>
</svg>
