<?xml version="1.0" encoding="iso-8859-1"?>
<!-- Generator: Adobe Illustrator 19.0.0, SVG Export Plug-In . SVG Version: 6.00 Build 0)  -->
<svg version="1.1" id="Capa_1" xmlns="http://www.w3.org/2000/svg" xmlns:xlink="http://www.w3.org/1999/xlink" x="0px" y="0px"
	 viewBox="0 0 512.169 512.169" style="enable-background:new 0 0 512.169 512.169;" xml:space="preserve">
<g transform="translate(-1)">
	<g transform="translate(1 1)">
		<path style="fill:#F57C00;" d="M503.488,272.147c0,127.246-103.154,230.4-230.4,230.4c-4.267,0-8.533-0.085-12.8-0.427
			C138.2,495.383,42.655,394.42,42.655,272.147S138.2,48.91,260.288,42.173c4.267-0.341,8.533-0.427,12.8-0.427
			C400.334,41.747,503.488,144.9,503.488,272.147z"/>
		<ellipse style="fill:#FF9801;" cx="260.288" cy="272.147" rx="217.6" ry="229.973"/>
		<g>
			<path style="fill:#FFB301;" d="M273.088,84.413v187.733l-25.6-25.6V86.205C255.968,85.002,264.523,84.404,273.088,84.413z"/>
			<path style="fill:#FFB301;" d="M247.488,86.205v160.341L140.395,139.453C169.325,110.493,206.936,91.793,247.488,86.205z"/>
		</g>
		<path style="fill:#FDD834;" d="M405.781,139.453L273.088,272.147V84.413C322.873,84.413,370.613,104.215,405.781,139.453z"/>
		<path style="fill:#FFB301;" d="M460.821,272.147H273.088l119.296-119.296l13.397-13.397
			C441.019,174.622,460.822,222.362,460.821,272.147z"/>
		<path style="fill:#FDD834;" d="M460.821,272.147c0,49.785-19.802,97.525-55.04,132.693L273.088,272.147H460.821z"/>
		<path style="fill:#FFB301;" d="M405.781,404.84c-35.168,35.238-82.909,55.04-132.693,55.04V272.147L405.781,404.84z"/>
		<g>
			<path style="fill:#FEC108;" d="M247.488,86.205v160.341L140.395,139.453C169.325,110.493,206.936,91.793,247.488,86.205z"/>
			<path style="fill:#FEC108;" d="M435.221,272.147H273.088l119.296-119.296C420.086,186.434,435.231,228.613,435.221,272.147z"/>
			<path style="fill:#FEC108;" d="M380.181,404.84c-28.931,28.96-66.541,47.661-107.093,53.248V297.747L380.181,404.84z"/>
		</g>
		<g>
			<path style="fill:#FDD834;" d="M273.088,272.147V459.88c-8.565,0.01-17.12-0.589-25.6-1.792V297.747L273.088,272.147z"/>
			<path style="fill:#FDD834;" d="M247.488,297.747v160.341c-40.552-5.587-78.163-24.288-107.093-53.248L247.488,297.747z"/>
		</g>
		<g>
			<path style="fill:#FFEB3A;" d="M380.181,139.453L273.088,246.547V86.205C313.64,91.793,351.251,110.493,380.181,139.453z"/>
			<path style="fill:#FFEB3A;" d="M435.221,272.147c0.01,43.534-15.136,85.713-42.837,119.296L273.088,272.147H435.221z"/>
			<path style="fill:#FFEB3A;" d="M256.021,289.213v168.875c-43.568-5.78-84.114-25.446-115.627-56.081L256.021,289.213z"/>
		</g>
		<path style="fill:#FFB301;" d="M273.088,272.147L140.395,404.84c-35.238-35.168-55.04-82.909-55.04-132.693H273.088z"/>
		<path style="fill:#F3D55B;" d="M273.088,272.147H85.355c0-49.785,19.802-97.525,55.04-132.693L273.088,272.147z"/>
		<g>
			<circle style="fill:#F44335;" cx="401.088" cy="323.347" r="17.067"/>
			<circle style="fill:#F44335;" cx="392.555" cy="220.947" r="17.067"/>
			<circle style="fill:#F44335;" cx="213.355" cy="161.213" r="25.6"/>
			<circle style="fill:#F44335;" cx="324.288" cy="400.147" r="17.067"/>
		</g>
		<path style="fill:#4E342E;" d="M196.288,178.28v290.133c0.756,18.066-13.253,33.335-31.317,34.133
			c-4.436-0.027-8.81-1.047-12.8-2.987c11.604-6.005,18.785-18.084,18.517-31.147V178.28c-0.023-33.28-19.371-63.517-49.579-77.483
			c-11.616-5.665-18.902-17.542-18.688-30.464v-37.12h25.6v37.12c-0.214,12.922,7.072,24.799,18.688,30.464
			C176.917,114.763,196.265,145,196.288,178.28z"/>
		<path style="fill:#795548;" d="M170.688,178.28v290.133c0.268,13.063-6.913,25.142-18.517,31.147
			c-11.556-6.044-18.696-18.108-18.432-31.147c0.111,10.648-4.593,20.777-12.8,27.563c-5.248,4.229-11.778,6.546-18.517,6.571
			c-4.439-0.007-8.817-1.029-12.8-2.987c-11.604-6.005-18.785-18.084-18.517-31.147c0.13,10.652-4.578,20.789-12.8,27.563
			c-8.805,7.22-21.02,8.622-31.232,3.584c-11.604-6.005-18.785-18.084-18.517-31.147V178.28
			c0.023-33.28,19.371-63.517,49.579-77.483c11.616-5.665,18.902-17.542,18.688-30.464v-37.12h25.6v37.12
			c-0.214,12.922,7.072,24.799,18.688,30.464C151.317,114.763,170.665,145,170.688,178.28z"/>
		<g>
			<path style="fill:#C52828;" d="M136.555,24.68v8.533c0,4.713-3.821,8.533-8.533,8.533h-51.2c-4.713,0-8.533-3.821-8.533-8.533
				V24.68c0.028-9.414,7.653-17.039,17.067-17.067h34.133C128.902,7.641,136.527,15.266,136.555,24.68z"/>
			<rect x="8.555" y="220.947" style="fill:#C52828;" width="187.733" height="145.067"/>
		</g>
		<g>
			<path style="fill:#F44335;" d="M110.955,24.68v8.533c0,4.713-3.821,8.533-8.533,8.533h-25.6c-4.713,0-8.533-3.821-8.533-8.533
				V24.68c0.028-9.414,7.653-17.039,17.067-17.067h8.533C103.302,7.641,110.927,15.266,110.955,24.68z"/>
			<rect x="8.555" y="220.947" style="fill:#F44335;" width="162.133" height="145.067"/>
		</g>
	</g>
	<g>
		<path d="M274.088,34.213c-48.613-0.092-96.072,14.807-135.91,42.667c-0.396-1.823-0.604-3.681-0.623-5.547V51.28
			c4.713,0,8.533-3.821,8.533-8.533V25.68c0-14.138-11.462-25.6-25.6-25.6H86.355c-14.138,0-25.6,11.462-25.6,25.6v17.067
			c0,4.713,3.82,8.533,8.533,8.533v20.053c0.215,9.6-5.144,18.458-13.747,22.724C22.374,109.483,1.123,142.701,1.021,179.28v290.133
			c-0.724,22.767,17.088,41.837,39.851,42.667c12.422-0.12,24.036-6.179,31.241-16.299c7.153,10.215,18.839,16.298,31.309,16.298
			s24.156-6.083,31.309-16.298c6.738,9.708,17.615,15.72,29.42,16.261c11.805,0.54,23.186-4.453,30.783-13.505
			c89.693,31.556,189.559,6.928,254.296-62.712s82.022-171.035,44.015-258.19C455.236,90.481,369.17,34.157,274.088,34.213z
			 M77.821,25.68c0-4.713,3.821-8.533,8.533-8.533h34.133c4.713,0,8.533,3.821,8.533,8.533v8.533h-51.2V25.68z M62.7,109.554
			c14.644-7.059,23.87-21.965,23.654-38.221V51.28h34.133v20.053c-0.212,16.245,9.005,31.143,23.637,38.204
			c27.145,12.623,44.541,39.806,44.629,69.743v34.133H52.221V179.28c0-4.713-3.821-8.533-8.533-8.533s-8.533,3.821-8.533,8.533
			v34.133H18.088V179.28C18.174,149.352,35.563,122.174,62.7,109.554z M274.088,239.013c4.713,0,8.533-3.821,8.533-8.533V94.382
			c41.531,1.935,81.077,18.336,111.787,46.362l-96.145,96.162c-2.218,2.143-3.108,5.315-2.327,8.299
			c0.781,2.983,3.111,5.313,6.094,6.094c2.983,0.781,6.156-0.109,8.299-2.327l96.154-96.145
			c28.021,30.714,44.424,70.257,46.37,111.787H316.755c-4.713,0-8.533,3.821-8.533,8.533c0,4.713,3.821,8.533,8.533,8.533h136.098
			c-1.946,41.53-18.349,81.073-46.37,111.787l-96.154-96.145c-3.348-3.234-8.671-3.188-11.962,0.104
			c-3.292,3.292-3.338,8.614-0.104,11.962l96.145,96.162c-30.71,28.026-70.256,44.427-111.787,46.362V315.813
			c0-4.713-3.82-8.533-8.533-8.533s-8.533,3.82-8.533,8.533v136.311c-20.54-0.936-40.757-5.464-59.733-13.38v-85.265l44.092-44.092
			c3.234-3.348,3.188-8.671-0.104-11.962c-3.292-3.292-8.614-3.338-11.962-0.104l-32.026,32.026V281.68h25.6
			c4.713,0,8.533-3.821,8.533-8.533c0-4.713-3.821-8.533-8.533-8.533h-25.6v-47.667l32.026,32.026
			c3.348,3.234,8.671,3.188,11.962-0.104c3.292-3.292,3.338-8.614,0.104-11.962l-41.062-41.071c1.818,0.321,3.658,0.492,5.504,0.512
			c14.796,0.042,27.934-9.453,32.537-23.514c4.603-14.062-0.378-29.488-12.335-38.203c-11.957-8.715-28.167-8.734-40.145-0.047
			c-3.08-5.653-6.729-10.976-10.889-15.889c24.937-14.722,53.102-23.11,82.031-24.431V230.48
			C265.555,235.193,269.375,239.013,274.088,239.013z M43.688,307.28c-4.713,0-8.533,3.82-8.533,8.533v42.667H18.088v-128h17.067
			v51.2c0,4.713,3.821,8.533,8.533,8.533s8.533-3.82,8.533-8.533v-51.2h136.533v128H52.221v-42.667
			C52.221,311.101,48.401,307.28,43.688,307.28z M205.736,176.899c-0.212-8.714-1.649-17.354-4.267-25.668
			c5.855-6.921,16.1-8.057,23.329-2.586s8.919,15.639,3.849,23.154C223.576,179.314,213.515,181.554,205.736,176.899z
			 M165.971,495.013c-13.306-0.864-23.433-12.286-22.699-25.6c0-4.713-3.82-8.533-8.533-8.533s-8.533,3.82-8.533,8.533
			c0.719,13.341-9.45,24.767-22.784,25.6c-13.334-0.833-23.503-12.259-22.784-25.6c0-4.713-3.82-8.533-8.533-8.533
			c-4.713,0-8.533,3.82-8.533,8.533c0.735,13.314-9.392,24.736-22.699,25.6c-13.334-0.833-23.503-12.259-22.784-25.6v-93.867h17.067
			v42.667c0,4.713,3.821,8.533,8.533,8.533s8.533-3.82,8.533-8.533v-42.667h136.533v93.867
			C189.474,482.754,179.305,494.18,165.971,495.013z M274.088,495.013c-24.018-0.053-47.866-4.025-70.605-11.759
			c1.501-4.462,2.29-9.133,2.338-13.841v-12.305c71.647,26.677,152.268,9.209,206.447-44.732c0.218-0.128,0.428-0.268,0.631-0.418
			c0.179-0.188,0.247-0.435,0.418-0.631c76.049-76.425,76.049-199.936,0-276.361c-0.171-0.196-0.239-0.444-0.418-0.631
			c-0.203-0.15-0.414-0.29-0.631-0.418c-64.281-64.107-164.247-75.501-241.306-27.503c-6.021-4.928-12.635-9.085-19.686-12.373
			c-1.485-0.695-2.887-1.553-4.181-2.56c37.143-26.236,81.519-40.283,126.993-40.201c122.534,0,221.867,99.333,221.867,221.867
			S396.622,495.013,274.088,495.013z"/>
		<path d="M402.088,349.947c14.138,0,25.6-11.462,25.6-25.6s-11.462-25.6-25.6-25.6c-14.138,0-25.6,11.462-25.6,25.6
			S387.95,349.947,402.088,349.947z M402.088,315.813c4.713,0,8.533,3.82,8.533,8.533s-3.821,8.533-8.533,8.533
			s-8.533-3.82-8.533-8.533S397.375,315.813,402.088,315.813z"/>
		<path d="M393.555,247.547c14.138,0,25.6-11.462,25.6-25.6c0-14.138-11.462-25.6-25.6-25.6s-25.6,11.462-25.6,25.6
			C367.955,236.085,379.416,247.547,393.555,247.547z M393.555,213.413c4.713,0,8.533,3.821,8.533,8.533
			c0,4.713-3.82,8.533-8.533,8.533s-8.533-3.821-8.533-8.533C385.021,217.234,388.842,213.413,393.555,213.413z"/>
		<path d="M325.288,426.747c10.354,0,19.689-6.237,23.651-15.803c3.962-9.566,1.772-20.577-5.549-27.899
			c-7.322-7.322-18.333-9.512-27.899-5.549c-9.566,3.962-15.803,13.297-15.803,23.651
			C299.688,415.285,311.15,426.747,325.288,426.747z M325.288,392.613c4.713,0,8.533,3.821,8.533,8.533s-3.82,8.533-8.533,8.533
			s-8.533-3.82-8.533-8.533S320.575,392.613,325.288,392.613z"/>
		<path d="M346.101,314.38c0.479,0.324,0.998,0.585,1.545,0.777c0.487,0.239,1.003,0.411,1.536,0.512
			c0.565,0.086,1.135,0.135,1.707,0.145c2.27,0.023,4.454-0.869,6.059-2.474c1.605-1.605,2.497-3.789,2.474-6.059
			c-0.012-1.118-0.244-2.223-0.683-3.251c-0.41-1.043-1.019-1.996-1.792-2.807c-0.427-0.341-0.853-0.683-1.365-1.024
			c-0.436-0.339-0.927-0.602-1.451-0.777c-0.51-0.26-1.062-0.431-1.63-0.503c-1.091-0.265-2.229-0.265-3.319,0
			c-0.535,0.085-1.054,0.255-1.536,0.503c-0.546,0.191-1.065,0.452-1.545,0.777l-1.271,1.024c-0.753,0.827-1.359,1.776-1.792,2.807
			c-0.438,1.029-0.67,2.133-0.683,3.251c0.031,2.259,0.915,4.424,2.475,6.059L346.101,314.38z"/>
		<path d="M313.512,171.429c-0.546,0.188-1.065,0.446-1.545,0.768l-1.271,1.024c-0.753,0.83-1.359,1.782-1.792,2.816
			c-0.437,1.026-0.669,2.128-0.683,3.243c0.029,2.26,0.913,4.425,2.475,6.059l1.271,1.024c0.479,0.322,0.999,0.58,1.545,0.768
			c0.484,0.247,1.001,0.419,1.536,0.512c0.564,0.099,1.134,0.156,1.707,0.171c2.27,0.023,4.454-0.869,6.059-2.474
			s2.497-3.789,2.474-6.059c-0.013-1.115-0.245-2.217-0.683-3.243c-0.412-1.044-1.021-2-1.792-2.816
			c-0.427-0.341-0.853-0.683-1.365-1.024c-0.436-0.337-0.927-0.596-1.451-0.768c-0.511-0.259-1.062-0.432-1.63-0.512
			c-1.092-0.256-2.228-0.256-3.319,0C314.513,171.01,313.996,171.183,313.512,171.429z"/>
		<path d="M246.013,403.647c-0.427-0.341-0.853-0.683-1.365-1.024c-0.436-0.339-0.927-0.602-1.451-0.777
			c-0.51-0.26-1.062-0.431-1.63-0.503c-1.091-0.265-2.229-0.265-3.319,0c-0.535,0.085-1.054,0.255-1.536,0.503
			c-0.546,0.191-1.065,0.452-1.545,0.777l-1.271,1.024c-0.753,0.827-1.359,1.776-1.792,2.807c-0.435,1.021-0.667,2.116-0.683,3.226
			c0.031,2.259,0.915,4.424,2.475,6.059l1.271,1.015c0.479,0.324,0.998,0.585,1.545,0.777c0.487,0.239,1.003,0.411,1.536,0.512
			c0.564,0.095,1.135,0.152,1.707,0.171c2.27,0.023,4.454-0.869,6.059-2.474c1.605-1.605,2.497-3.789,2.474-6.059
			c-0.012-1.118-0.244-2.223-0.683-3.251C247.392,405.395,246.784,404.451,246.013,403.647z"/>
		<path d="M246.013,352.447c-0.427-0.341-0.853-0.683-1.365-1.024c-0.436-0.339-0.927-0.602-1.451-0.777
			c-0.51-0.26-1.062-0.431-1.63-0.503c-1.091-0.265-2.229-0.265-3.319,0c-0.535,0.085-1.054,0.255-1.536,0.503
			c-0.546,0.191-1.065,0.452-1.545,0.777l-1.271,1.024c-0.753,0.827-1.359,1.776-1.792,2.807c-0.435,1.021-0.667,2.116-0.683,3.226
			c0.031,2.26,0.915,4.424,2.475,6.059l1.271,1.015c0.479,0.324,0.998,0.585,1.545,0.777c0.487,0.239,1.003,0.411,1.536,0.512
			c0.564,0.095,1.135,0.152,1.707,0.171c2.27,0.023,4.454-0.869,6.059-2.474c1.605-1.605,2.497-3.789,2.474-6.059
			c-0.012-1.118-0.244-2.223-0.683-3.251C247.392,354.195,246.784,353.251,246.013,352.447z"/>
		<path d="M303.434,143.696c0.479,0.322,0.999,0.58,1.545,0.768c0.484,0.247,1.001,0.419,1.536,0.512
			c0.564,0.099,1.134,0.156,1.707,0.171c2.27,0.023,4.454-0.869,6.059-2.474c1.605-1.605,2.497-3.789,2.474-6.059
			c-0.013-1.115-0.245-2.217-0.683-3.243c-0.412-1.044-1.021-2-1.792-2.816c-0.427-0.341-0.853-0.683-1.365-1.024
			c-0.436-0.337-0.927-0.596-1.451-0.768c-0.511-0.259-1.062-0.432-1.63-0.512c-1.092-0.256-2.228-0.256-3.319,0
			c-0.535,0.093-1.052,0.265-1.536,0.512c-0.546,0.188-1.065,0.446-1.545,0.768l-1.271,1.024c-0.753,0.83-1.359,1.782-1.792,2.816
			c-0.437,1.026-0.669,2.128-0.683,3.243c0.029,2.26,0.913,4.425,2.475,6.059L303.434,143.696z"/>
		<path d="M346.101,160.763c0.479,0.322,0.999,0.58,1.545,0.768c0.484,0.247,1.001,0.419,1.536,0.512
			c0.564,0.099,1.134,0.156,1.707,0.171c2.27,0.023,4.454-0.869,6.059-2.474c1.605-1.605,2.497-3.789,2.474-6.059
			c-0.013-1.115-0.245-2.217-0.683-3.243c-0.412-1.044-1.021-2-1.792-2.816c-0.427-0.341-0.853-0.683-1.365-1.024
			c-0.436-0.337-0.927-0.596-1.451-0.768c-0.511-0.259-1.062-0.432-1.63-0.512c-1.092-0.256-2.228-0.256-3.319,0
			c-0.535,0.093-1.052,0.266-1.536,0.512c-0.546,0.188-1.065,0.446-1.545,0.768l-1.271,1.024c-0.753,0.83-1.359,1.782-1.792,2.816
			c-0.437,1.026-0.669,2.128-0.683,3.243c0.029,2.26,0.913,4.425,2.475,6.059L346.101,160.763z"/>
	</g>
</g>
<g>
</g>
<g>
</g>
<g>
</g>
<g>
</g>
<g>
</g>
<g>
</g>
<g>
</g>
<g>
</g>
<g>
</g>
<g>
</g>
<g>
</g>
<g>
</g>
<g>
</g>
<g>
</g>
<g>
</g>
</svg>
