<?xml version="1.0" encoding="iso-8859-1"?>
<!-- Generator: Adobe Illustrator 19.0.0, SVG Export Plug-In . SVG Version: 6.00 Build 0)  -->
<svg version="1.1" id="Capa_1" xmlns="http://www.w3.org/2000/svg" xmlns:xlink="http://www.w3.org/1999/xlink" x="0px" y="0px"
	 viewBox="0 0 512.001 512.001" style="enable-background:new 0 0 512.001 512.001;" xml:space="preserve">
<g>
	<g transform="translate(1 1)">
		<path style="fill:#1566C0;" d="M502.468,58.734v110.933c-25.6,0-25.6,8.533-51.2,8.533c-4.285,0.047-8.567-0.267-12.8-0.939
			c-13.909-2.133-18.005-7.595-38.485-7.595c-4.286-0.05-8.568,0.264-12.8,0.939c-13.824,2.133-18.005,7.595-38.4,7.595
			c-4.257,0.047-8.511-0.267-12.715-0.939c-13.824-2.133-17.92-7.595-38.4-7.595V58.734c0-4.713,3.82-8.533,8.533-8.533h187.733
			C498.647,50.201,502.468,54.021,502.468,58.734z"/>
		<path style="fill:#2296F3;" d="M476.868,58.734v110.933c-20.395,0-24.576,5.461-38.4,7.595c-4.232,0.675-8.514,0.989-12.8,0.939
			c-20.48,0-24.661-5.461-38.485-7.595c-4.232-0.675-8.514-0.989-12.8-0.939c-20.395,0-24.491,5.376-38.315,7.595
			c-13.824-2.133-17.92-7.595-38.4-7.595V58.734c0-4.713,3.82-8.533,8.533-8.533h162.133
			C473.047,50.201,476.868,54.021,476.868,58.734z"/>
		<path style="fill:#4E342E;" d="M502.468,144.067v290.133c0,14.138-11.462,25.6-25.6,25.6h-179.2V144.067
			c20.48,0,24.576,5.461,38.4,7.595c4.204,0.672,8.458,0.986,12.715,0.939c20.395,0,24.576-5.461,38.4-7.595
			c4.232-0.675,8.514-0.989,12.8-0.939c20.48,0,24.576,5.461,38.485,7.595c4.233,0.672,8.515,0.986,12.8,0.939
			c8.725,0.194,17.409-1.253,25.6-4.267C485.059,145.32,493.743,143.873,502.468,144.067z"/>
		<path style="fill:#795548;" d="M476.868,144.067v290.133c0,14.138-11.462,25.6-25.6,25.6h-153.6V148.334
			c8.163,3.007,16.818,4.454,25.515,4.267c4.314,0.05,8.624-0.264,12.885-0.939c13.824-2.219,17.92-7.595,38.315-7.595
			c4.286-0.05,8.568,0.264,12.8,0.939c13.824,2.133,18.005,7.595,38.485,7.595c4.286,0.05,8.568-0.264,12.8-0.939
			C452.292,149.529,456.473,144.067,476.868,144.067z"/>
		<path style="fill:#F57C00;" d="M203.801,229.401c108.395,0,196.267,87.872,196.267,196.267v17.067
			c0,9.426-7.641,17.067-17.067,17.067h-358.4c-9.426,0-17.067-7.641-17.067-17.067v-17.067
			C7.535,317.272,95.406,229.401,203.801,229.401z"/>
		<path style="fill:#2E7D32;" d="M418.756,331.63l-350.72,12.288l-0.939-1.195l-7.851-9.643c-7.528-9.63-10.545-22.036-8.277-34.048
			c2.389-12.203,3.584-25.515,10.752-33.536c10.581-12.032,27.989-16.896,40.875-26.453s22.528-24.917,37.12-31.659
			c14.421-6.571,32.256-3.84,48.128-7.339c9.813-2.133,19.627-7.083,29.696-10.325c5.479-1.84,11.203-2.846,16.981-2.987
			c16.811,0,32.256,10.069,48.043,13.568c16.213,3.669,34.389,1.28,49.152,8.192c15.019,7.083,24.832,22.869,37.888,32.853
			c13.056,9.984,30.635,15.531,41.387,28.245c5.612,7.543,9.805,16.044,12.373,25.088
			C427.603,307.049,425.903,320.681,418.756,331.63z"/>
		<path style="fill:#4CAF50;" d="M384.623,331.63L67.097,342.723l-7.851-9.643c-7.528-9.63-10.545-22.036-8.277-34.048
			c2.389-12.203,3.584-25.515,10.752-33.536c10.581-12.032,27.989-16.896,40.875-26.453s22.528-24.917,37.12-31.659
			c14.421-6.571,32.256-3.84,48.128-7.339c9.813-2.133,19.627-7.083,29.696-10.325c10.496,3.243,20.651,8.277,30.891,10.581
			c16.213,3.669,34.389,1.28,49.152,8.192c15.019,7.083,24.832,22.869,37.888,32.853c13.056,9.984,30.635,15.531,41.387,28.245
			c5.612,7.543,9.805,16.044,12.373,25.088C393.47,307.049,391.77,320.681,384.623,331.63z"/>
		<path style="fill:#F57C00;" d="M442.735,425.667v17.067c-0.028,9.414-7.653,17.039-17.067,17.067h-358.4
			c-9.414-0.028-17.039-7.653-17.067-17.067v-17.067c0.03-103.413,80.276-189.07,183.467-195.84c4.181-0.256,8.448-0.427,12.8-0.427
			c52.053,0,101.974,20.678,138.781,57.485S442.735,373.614,442.735,425.667z"/>
		<path style="fill:#FF9801;" d="M417.135,425.667v17.067c-0.028,9.414-7.653,17.039-17.067,17.067h-332.8
			c-9.414-0.028-17.039-7.653-17.067-17.067v-17.067c0.03-103.413,80.276-189.07,183.467-195.84
			C336.859,236.597,417.105,322.255,417.135,425.667z"/>
	</g>
	<g>
		<path d="M110.935,406.068l-6.033,6.033c-2.218,2.143-3.108,5.315-2.327,8.299c0.781,2.983,3.111,5.314,6.094,6.094
			c2.984,0.781,6.156-0.109,8.299-2.327l6.033-6.033c2.218-2.143,3.108-5.315,2.327-8.299c-0.781-2.983-3.111-5.313-6.094-6.094
			S113.077,403.85,110.935,406.068z"/>
		<path d="M116.968,337.801l-6.033,6.033c-2.218,2.143-3.108,5.315-2.327,8.299c0.781,2.983,3.111,5.314,6.094,6.094
			s6.156-0.109,8.299-2.327l6.033-6.033c2.218-2.143,3.108-5.315,2.327-8.299c-0.781-2.983-3.111-5.313-6.094-6.094
			C122.283,334.693,119.11,335.583,116.968,337.801z"/>
		<path d="M181.702,406.068l-6.033,6.033c-2.218,2.143-3.108,5.315-2.327,8.299c0.781,2.983,3.111,5.314,6.094,6.094
			c2.984,0.781,6.156-0.109,8.299-2.327l6.033-6.033c3.234-3.348,3.188-8.671-0.104-11.962
			C190.372,402.88,185.05,402.834,181.702,406.068z"/>
		<path d="M494.935,42.667H307.201c-9.426,0-17.067,7.641-17.067,17.067v133.973c-1.579-0.239-3.2-0.41-4.727-0.759
			c-5.82-1.476-11.524-3.375-17.067-5.683c-10.336-4.726-21.47-7.462-32.819-8.064c-11.019,0.602-21.823,3.292-31.838,7.927
			c-5.407,2.284-10.982,4.149-16.674,5.581c-6.054,1.147-12.188,1.823-18.347,2.022c-10.783-0.004-21.472,1.998-31.522,5.905
			c-9.582,5.09-18.138,11.913-25.233,20.122c-4.132,4.49-8.612,8.647-13.397,12.433c-4.971,3.445-10.197,6.506-15.633,9.156
			c-9.918,4.455-18.923,10.714-26.556,18.458c-6.731,9.244-10.766,20.173-11.657,31.573c-0.358,2.031-0.717,4.053-1.22,6.716
			c-0.128,0.777-0.171,1.417-0.273,2.142c-28.119,35.748-43.332,79.95-43.17,125.431v17.067c0,14.138,11.462,25.6,25.6,25.6h452.267
			c18.851,0,34.133-15.282,34.133-34.133V59.734C512.001,50.308,504.36,42.667,494.935,42.667z M494.935,59.734v77.158
			c-6.755,0.578-13.405,2.038-19.78,4.343c-14.848,5.108-30.976,5.108-45.824,0c-18.352-6.269-38.266-6.269-56.619,0
			c-14.83,5.108-30.943,5.108-45.773,0c-6.361-2.304-12.997-3.765-19.738-4.343V59.734H494.935z M60.34,301.68
			c0.418-2.108,0.794-4.267,1.169-6.374c0.615-8.23,3.227-16.185,7.612-23.177c6.3-6.124,13.64-11.08,21.675-14.635
			c6.241-3.06,12.232-6.603,17.92-10.598c5.518-4.321,10.683-9.075,15.445-14.217c5.685-6.651,12.5-12.247,20.13-16.529
			c8.154-2.954,16.766-4.439,25.438-4.386c7.041-0.239,14.051-1.035,20.966-2.381c6.566-1.61,12.994-3.736,19.226-6.357
			c8.054-3.783,16.728-6.073,25.6-6.758c9.234,0.686,18.269,3.036,26.667,6.938c6.327,2.623,12.842,4.768,19.49,6.417
			c6.92,1.398,13.933,2.282,20.983,2.645c9.025,0.087,17.964,1.76,26.411,4.941c7.961,4.53,15.052,10.442,20.941,17.459
			c4.742,5.22,9.877,10.07,15.36,14.507c5.658,4.131,11.614,7.839,17.818,11.093c8.291,3.934,15.825,9.298,22.255,15.846
			c4.916,6.746,8.583,14.318,10.829,22.357c1.604,4.742,2.14,9.78,1.57,14.754c-39.785-59.822-108.023-94.404-179.792-91.116
			c-71.769,3.288-136.558,43.966-170.706,107.175l-0.333-0.401c-5.3-6.782-7.842-15.316-7.117-23.893
			C59.984,303.88,60.132,302.774,60.34,301.68z M17.068,443.734v-17.067c-0.106-35.594,10.07-70.462,29.303-100.412
			c1.78,4.72,4.219,9.165,7.245,13.201l5.521,6.827c-10.888,25.399-16.492,52.749-16.469,80.384v17.067
			c0.028,2.914,0.559,5.8,1.57,8.533H25.601c-2.263,0-4.434-0.899-6.034-2.499C17.967,448.168,17.068,445.997,17.068,443.734z
			 M68.268,452.267c-4.713,0-8.533-3.821-8.533-8.533v-17.067c0-103.682,84.051-187.733,187.733-187.733
			s187.733,84.051,187.733,187.733v17.067c0,4.713-3.82,8.533-8.533,8.533H68.268z M477.868,452.267h-27.17
			c1.011-2.733,1.542-5.62,1.57-8.533v-17.067c0.021-32.639-7.808-64.803-22.827-93.781c6.391-12.371,7.472-26.811,2.995-39.996
			c-2.887-10.05-7.609-19.478-13.926-27.81c-7.716-8.174-16.864-14.867-26.991-19.746c-5.474-2.884-10.73-6.164-15.727-9.813
			c-4.804-3.904-9.308-8.162-13.474-12.74c-7.281-8.57-16.092-15.711-25.984-21.06c-9.256-3.813-19.127-5.914-29.133-6.204v-41.489
			c4.901,0.561,9.716,1.707,14.345,3.413c18.335,6.269,38.233,6.269,56.567,0c14.845-5.108,30.971-5.108,45.815,0
			c18.352,6.269,38.266,6.269,56.619,0c4.642-1.708,9.472-2.854,14.387-3.413v281.173
			C494.935,444.626,487.294,452.267,477.868,452.267z"/>
		<path d="M469.335,119.467c4.713,0,8.533-3.821,8.533-8.533v-25.6c0-4.713-3.821-8.533-8.533-8.533
			c-4.713,0-8.533,3.821-8.533,8.533v25.6C460.801,115.647,464.622,119.467,469.335,119.467z"/>
		<path d="M469.335,179.201c-4.713,0-8.533,3.821-8.533,8.533v145.067c0,4.713,3.821,8.533,8.533,8.533
			c4.713,0,8.533-3.82,8.533-8.533V187.734C477.868,183.021,474.047,179.201,469.335,179.201z"/>
	</g>
</g>
<g>
</g>
<g>
</g>
<g>
</g>
<g>
</g>
<g>
</g>
<g>
</g>
<g>
</g>
<g>
</g>
<g>
</g>
<g>
</g>
<g>
</g>
<g>
</g>
<g>
</g>
<g>
</g>
<g>
</g>
</svg>
