<?xml version="1.0" encoding="iso-8859-1"?>
<!-- Generator: Adobe Illustrator 19.0.0, SVG Export Plug-In . SVG Version: 6.00 Build 0)  -->
<svg version="1.1" id="Capa_1" xmlns="http://www.w3.org/2000/svg" xmlns:xlink="http://www.w3.org/1999/xlink" x="0px" y="0px"
	 viewBox="0 0 511.914 511.914" style="enable-background:new 0 0 511.914 511.914;" xml:space="preserve">
<g>
	<g transform="translate(1 3)">
		<path style="fill:#C52828;" d="M485.485,270.023c0.999,53.863,4.787,107.638,11.349,161.109l-22.699-0.256l-281.344-2.645
			l-8.448-0.939c4.608-40.277,10.325-100.523,10.837-157.269c0.085-2.901,0.085-5.717,0.085-8.533s0-5.717-0.085-8.533
			c-0.427-49.579-4.864-101.803-9.045-141.056c-0.768-7.083-1.536-13.739-2.304-19.968l290.304-0.085h22.699
			c-0.768,6.229-1.536,12.885-2.304,20.053c-4.181,39.253-8.619,91.477-9.045,141.056c-0.085,2.816-0.085,5.717-0.085,8.533
			S485.4,267.122,485.485,270.023z"/>
		<path style="fill:#F44335;" d="M462.787,270.023c1.001,53.778,4.789,107.468,11.349,160.853l-281.344-2.645l-8.448-0.939
			c4.608-40.277,10.325-100.523,10.837-157.269c0.085-2.901,0.085-5.717,0.085-8.533s0-5.717-0.085-8.533
			c-0.427-49.579-4.864-101.803-9.045-141.056c-0.768-7.083-1.536-13.739-2.304-19.968l290.304-0.085
			c-0.768,6.229-1.536,12.885-2.304,20.053c-4.181,39.253-8.619,91.477-9.045,141.056c-0.085,2.816-0.085,5.717-0.085,8.533
			S462.701,267.122,462.787,270.023z"/>
		<g>
			<path style="fill:#FDD834;" d="M408.6,261.49c0,37.703-30.564,68.267-68.267,68.267c-4.294-0.005-8.579-0.405-12.8-1.195
				c-32.225-6.109-55.551-34.273-55.551-67.072s23.326-60.963,55.551-67.072c4.221-0.79,8.506-1.19,12.8-1.195
				C378.036,193.223,408.6,223.787,408.6,261.49z"/>
			<path style="fill:#FDD834;" d="M502.467,474.823c0,0-9.984-1.963-26.283-4.523c-46.34-7.572-93.169-11.764-140.117-12.544
				c-4.437,0-8.96,0.085-13.483,0.171c-48.368,1.79-96.554,6.922-144.213,15.36c0.171-0.939,0.341-2.389,0.597-4.267
				c1.109-7.595,3.072-22.357,5.376-41.728l8.448,0.939c42.992-7.147,86.406-11.48,129.963-12.971h0.171
				c4.437-0.085,8.789-0.171,13.141-0.171c53.929,1.097,107.686,6.461,160.768,16.043
				C499.907,457.842,502.467,474.823,502.467,474.823z"/>
			<path style="fill:#FDD834;" d="M502.467,48.157c0,0-0.768,4.949-1.877,13.653c-0.256,1.792-0.512,3.669-0.768,5.632
				c-0.427,3.072-0.853,6.485-1.28,10.155c-0.085,0.853-0.256,1.792-0.341,2.731c-0.256,1.792-0.512,3.669-0.683,5.632
				c-0.171,1.963-0.427,3.925-0.683,5.888c-51.642,9.607-103.984,14.973-156.501,16.043c-4.011,0-8.021-0.085-12.117-0.171h-1.365
				c-47.955-1.913-95.717-7.188-142.933-15.787h-0.085c-0.171-2.048-0.427-4.011-0.683-5.973c-0.256-1.963-0.427-3.84-0.683-5.632
				c-0.066-0.916-0.18-1.827-0.341-2.731c-0.427-3.669-0.853-7.083-1.28-10.155c-0.256-1.963-0.512-3.925-0.768-5.632
				c-0.512-3.755-0.853-6.827-1.195-9.045c-0.427-2.987-0.683-4.608-0.683-4.608c48.789,9.22,98.186,14.867,147.797,16.896h3.072
				c3.755,0.171,7.509,0.171,11.264,0.171c45.53-0.776,90.939-4.94,135.851-12.459C492.397,50.119,502.467,48.157,502.467,48.157z"
				/>
		</g>
		<g>
			<ellipse style="fill:#FFEB3A;" cx="327.533" cy="261.49" rx="55.467" ry="67.072"/>
			<path style="fill:#FFEB3A;" d="M476.867,474.823c-50.948-9.379-102.513-15.026-154.283-16.896
				c-4.096-0.085-8.107-0.171-12.117-0.171c-44.042,0.672-87.983,4.436-131.499,11.264c1.109-7.595,3.072-22.357,5.376-41.728
				l8.448,0.939c42.992-7.147,86.406-11.48,129.963-12.971h0.171c49.746,1.823,99.304,7.126,148.309,15.872
				c2.133,18.603,4.011,32.512,4.949,39.168C476.611,473.287,476.867,474.823,476.867,474.823z"/>
			<path style="fill:#FFEB3A;" d="M476.867,48.157c0,0-0.256,1.621-0.683,4.608c-0.341,2.219-0.683,5.291-1.195,9.045
				c-0.256,1.792-0.512,3.669-0.768,5.632c-0.427,3.072-0.853,6.485-1.28,10.155c-0.085,0.853-0.256,1.792-0.341,2.731
				c-0.256,1.792-0.512,3.669-0.683,5.632c-0.171,1.963-0.427,3.925-0.683,5.888c-47.234,8.693-95.028,13.997-143.019,15.872h-1.365
				c-47.955-1.913-95.717-7.188-142.933-15.787h-0.085c-0.171-2.048-0.427-4.011-0.683-5.973c-0.256-1.963-0.427-3.84-0.683-5.632
				c-0.066-0.916-0.18-1.827-0.341-2.731c-0.427-3.669-0.853-7.083-1.28-10.155c-0.256-1.963-0.512-3.925-0.768-5.632
				c-0.512-3.755-0.853-6.827-1.195-9.045c44.912,7.518,90.321,11.683,135.851,12.459c3.755,0,7.509,0,11.264-0.171h3.072
				C378.681,63.023,428.077,57.376,476.867,48.157z"/>
		</g>
		<polygon style="fill:#0377BC;" points="220.867,193.223 220.867,210.29 215.747,249.885 212.333,270.023 41.923,278.557 
			41.667,276.85 39.192,257.394 33.133,210.29 33.133,193.223 		"/>
		<path style="fill:#2E7D32;" d="M215.747,249.885l-26.112,202.581c-1.666,12.777-12.544,22.341-25.429,22.357H89.795
			c-12.886-0.016-23.764-9.58-25.429-22.357L41.923,278.557l-2.731-21.163c13.227-3.499,26.368-8.363,39.68-11.008
			c4.537-0.89,9.126-1.489,13.739-1.792c18.688-1.024,37.461,4.352,56.149,6.912c4.159,0.609,8.345,1.008,12.544,1.195
			c4.635,0.241,9.281,0.184,13.909-0.171C188.696,251.847,202.349,249.799,215.747,249.885z"/>
		<path style="fill:#4CAF50;" d="M195.267,249.885l-0.393,2.645L165.4,452.466c-2.918,13.582-15.249,23.048-29.124,22.357H97.133
			c-13.869,0.682-26.19-8.782-29.107-22.357L42.315,278.557l-3.123-21.163c15.138-3.499,30.182-8.363,45.414-11.008
			c15.996,2.943,32.135,5.05,48.35,6.315c10.562,0.239,21.128-0.16,31.642-1.195C174.855,250.738,185.112,249.885,195.267,249.885z"
			/>
		<path style="fill:#0377BC;" d="M220.867,193.223H33.133l0.427-17.067c3.808-41.889,35.016-76.131,76.373-83.797
			c2.816-0.512,5.632-0.853,8.533-1.109h17.067c45.105,4.059,80.848,39.802,84.907,84.907L220.867,193.223z"/>
		<g>
			<polygon style="fill:#02A9F4;" points="195.267,193.223 195.267,205.418 195.267,235.89 191.666,250.277 42.145,252.957 
				39.525,239.056 33.133,205.418 33.133,193.223 			"/>
			<path style="fill:#02A9F4;" d="M186.733,193.223h-153.6l0.427-17.067c3.808-41.889,35.016-76.131,76.373-83.797
				c41.357,7.666,72.566,41.908,76.373,83.797L186.733,193.223z"/>
		</g>
		<path style="fill:#1566C0;" d="M246.467,193.223c-0.07,9.397-7.67,16.997-17.067,17.067H24.6
			c-9.414-0.028-17.039-7.653-17.067-17.067c-0.024-4.528,1.793-8.871,5.035-12.032c3.161-3.241,7.504-5.059,12.032-5.035h204.8
			C238.814,176.185,246.439,183.809,246.467,193.223z"/>
		<path style="fill:#2296F3;" d="M220.867,193.223c-0.07,9.397-7.67,16.997-17.067,17.067H24.6
			c-9.414-0.028-17.039-7.653-17.067-17.067c-0.024-4.528,1.793-8.871,5.035-12.032c3.161-3.241,7.504-5.059,12.032-5.035h179.2
			C213.214,176.185,220.839,183.809,220.867,193.223z"/>
	</g>
	<g>
		<path d="M80.375,307.089c4.672-0.607,7.969-4.885,7.364-9.557l-1.101-8.533c-0.39-3.024-2.364-5.611-5.178-6.785
			c-2.814-1.174-6.041-0.758-8.465,1.092c-2.424,1.85-3.677,4.853-3.287,7.877l1.109,8.533c0.548,4.25,4.163,7.433,8.448,7.441
			C79.637,307.159,80.008,307.136,80.375,307.089z"/>
		<path d="M82.594,324.292c-2.245,0.289-4.284,1.459-5.666,3.251c-1.383,1.792-1.997,4.061-1.706,6.306l14.31,110.933
			c0.548,4.25,4.163,7.433,8.448,7.441c0.371,0.003,0.742-0.02,1.109-0.068c2.245-0.289,4.284-1.459,5.666-3.251
			c1.383-1.792,1.997-4.061,1.706-6.306L92.143,331.664C91.541,326.993,87.266,323.692,82.594,324.292z"/>
		<path d="M511.829,50.969c0.043-0.485,0.043-0.974,0-1.459c0-0.085-0.077-0.145-0.094-0.222c-0.173-0.594-0.414-1.167-0.717-1.707
			c-0.172-0.455-0.384-0.895-0.631-1.314c-0.309-0.373-0.651-0.715-1.024-1.024c-0.403-0.46-0.855-0.875-1.348-1.237
			c-0.326-0.165-0.662-0.307-1.007-0.427c-0.666-0.346-1.374-0.601-2.108-0.759c-0.068,0-0.111-0.06-0.179-0.068
			c-0.473-0.02-0.947,0.003-1.417,0.068c-0.497-0.047-0.997-0.047-1.493,0l-0.452,0.085
			c-52.793,9.962-106.314,15.576-160.026,16.785c-53.868-1.236-107.543-6.889-160.486-16.905c-0.502-0.047-1.008-0.047-1.51,0
			c-0.461-0.065-0.926-0.088-1.391-0.068c-0.077,0-0.128,0.06-0.205,0.068c-0.641,0.152-1.263,0.378-1.852,0.674
			c-0.439,0.142-0.864,0.322-1.271,0.538c-0.408,0.31-0.788,0.655-1.135,1.033c-0.448,0.363-0.857,0.772-1.22,1.22
			c-0.227,0.387-0.421,0.792-0.58,1.212c-0.328,0.575-0.583,1.188-0.759,1.826c0,0.077-0.077,0.137-0.094,0.222
			c-0.043,0.471-0.043,0.945,0,1.417c-0.073,0.491-0.098,0.989-0.077,1.485c0,0.213,2.645,17.92,5.82,45.039
			c-12.396-6.629-26.026-10.632-40.038-11.759V51.157c0-14.138-11.462-25.6-25.6-25.6H68.267c-4.713,0-8.533,3.821-8.533,8.533
			s3.821,8.533,8.533,8.533h42.667c4.713,0,8.533,3.821,8.533,8.533v34.534c-46.682,3.634-84.828,38.716-92.348,84.932H25.6
			c-14.138,0-25.6,11.462-25.6,25.6c0,14.138,11.462,25.6,25.6,25.6h1.033l30.293,234.769c2.229,17.004,16.703,29.73,33.852,29.764
			h74.445c1.125-0.046,2.247-0.149,3.362-0.307c1.205,0.325,2.467,0.378,3.695,0.154c54.39-10.025,109.495-15.68,164.787-16.913
			c55.292,1.233,110.397,6.888,164.787,16.913c0.532,0.099,1.072,0.151,1.613,0.154c0.414-0.006,0.827-0.037,1.237-0.094
			c0.247,0,0.435-0.188,0.674-0.247c1.667-0.356,3.168-1.257,4.267-2.56c0.28-0.264,0.54-0.55,0.777-0.853
			c0.353-0.547,0.639-1.135,0.853-1.749c0.179-0.364,0.324-0.744,0.435-1.135c0-0.094,0.085-0.162,0.102-0.256
			c0.043-0.483,0.043-0.968,0-1.451c0.068-0.472,0.094-0.949,0.077-1.425c-10.085-70.274-15.748-141.112-16.956-212.096
			c1.215-70.976,6.884-141.805,16.973-212.07C511.928,51.935,511.902,51.449,511.829,50.969z M222.763,273.023h42.274
			c4.46,38.763,37.278,68.021,76.297,68.021s71.836-29.258,76.297-68.021h60.279c0.512,53.513,5.615,110.362,10.121,150.775
			c-49.891-8.538-100.356-13.299-150.963-14.242c-44.684,0.647-89.265,4.485-133.402,11.486L222.763,273.023z M281.6,264.49
			c0-32.99,26.744-59.733,59.733-59.733s59.733,26.744,59.733,59.733s-26.744,59.733-59.733,59.733
			C308.359,324.186,281.638,297.464,281.6,264.49z M477.909,255.957H417.63c-4.46-38.763-37.278-68.021-76.297-68.021
			s-71.836,29.258-76.297,68.021H224.93l4.403-34.133h1.067c14.139,0,25.6-11.462,25.6-25.6c0-14.139-11.461-25.6-25.6-25.6h-1.519
			c-3.821-23.433-15.733-44.786-33.664-60.348c-0.188-1.707-0.373-3.368-0.555-4.983c48.451,8.498,97.489,13.223,146.671,14.131
			c49.192-0.872,98.239-5.608,146.688-14.165C483.516,145.663,478.421,202.478,477.909,255.957z M493.372,61.67
			c-0.853,6.417-2.014,15.266-3.302,25.907c-49.104,8.897-98.842,13.839-148.736,14.78c-49.89-0.98-99.624-5.908-148.736-14.737
			c-1.289-10.684-2.441-19.499-3.311-25.95c50.207,9.02,101.047,14.065,152.047,15.087C392.331,75.739,443.169,70.694,493.372,61.67
			z M180.949,120.618c0.458,0.488,0.973,0.918,1.536,1.28c15.019,12.404,25.289,29.618,29.073,48.725h-75.025v-67.84
			C152.743,104.346,168.161,110.537,180.949,120.618z M119.467,102.783v67.84H44.442C51.687,133.902,82.204,106.308,119.467,102.783
			z M170.667,204.757H25.6c-4.713,0-8.533-3.821-8.533-8.533c0-4.713,3.821-8.533,8.533-8.533h204.8
			c4.713,0,8.533,3.821,8.533,8.533c0,4.713-3.821,8.533-8.533,8.533h-25.6c-4.713,0-8.533,3.821-8.533,8.533
			s3.821,8.533,8.533,8.533h7.364l-2.944,22.818c-6.076,0.273-12.083,0.674-17.98,1.212c-9.475,1.111-19.016,1.553-28.553,1.323
			c-9.584-0.666-19.112-1.981-28.518-3.934c-13.463-3.024-27.24-4.425-41.037-4.173c-13.85,1.321-27.492,4.295-40.636,8.858
			c-1.707,0.512-3.413,0.973-5.12,1.485l-3.541-27.588h126.831c4.713,0,8.533-3.82,8.533-8.533S175.38,204.757,170.667,204.757z
			 M73.847,454.408l-24.243-187.87c2.62-0.768,5.239-1.493,7.859-2.287c11.844-4.15,24.138-6.88,36.625-8.132
			c12.445-0.173,24.866,1.139,37.001,3.908c10.164,2.097,20.459,3.499,30.814,4.198c10.313,0.257,20.632-0.202,30.882-1.374
			c4.881-0.444,9.583-0.811,14.225-1.084l-24.858,192.64c-1.116,8.503-8.355,14.865-16.93,14.882H90.778
			C82.202,469.273,74.964,462.91,73.847,454.408z M196.838,464.733c1.088-2.608,1.839-5.343,2.236-8.141l2.313-17.92
			c44.874-7.308,90.221-11.335,135.68-12.049c51.308,1.013,102.463,5.969,153.011,14.822c1.28,10.65,2.432,19.499,3.302,25.916
			c-51.638-9.053-103.898-14.114-156.314-15.138C290.084,453.013,243.219,457.194,196.838,464.733z"/>
	</g>
</g>
<g>
</g>
<g>
</g>
<g>
</g>
<g>
</g>
<g>
</g>
<g>
</g>
<g>
</g>
<g>
</g>
<g>
</g>
<g>
</g>
<g>
</g>
<g>
</g>
<g>
</g>
<g>
</g>
<g>
</g>
</svg>
