<?xml version="1.0" encoding="iso-8859-1"?>
<!-- Generator: Adobe Illustrator 19.0.0, SVG Export Plug-In . SVG Version: 6.00 Build 0)  -->
<svg version="1.1" id="Capa_1" xmlns="http://www.w3.org/2000/svg" xmlns:xlink="http://www.w3.org/1999/xlink" x="0px" y="0px"
	 viewBox="0 0 512 512" style="enable-background:new 0 0 512 512;" xml:space="preserve">
<g>
	<g transform="translate(0 7)">
		<g>
			<path style="fill:#F57C00;" d="M25.6,377h290.133c4.713,0,8.533,3.82,8.533,8.533V428.2c0,37.703-30.564,68.267-68.267,68.267
				H85.333c-37.703,0-68.267-30.564-68.267-68.267v-42.667C17.067,380.821,20.887,377,25.6,377z"/>
			<polygon style="fill:#1566C0;" points="460.8,121 419.584,496.467 256,496.467 214.784,121 			"/>
			<polygon style="fill:#2296F3;" points="435.2,121 393.984,496.467 256,496.467 214.784,121 			"/>
			<g>
				<path style="fill:#CFD8DC;" d="M452.267,69.8v34.133H223.317V69.8c0.028-9.414,7.653-17.039,17.067-17.067H435.2
					C444.614,52.761,452.239,60.386,452.267,69.8z"/>
				<path style="fill:#CFD8DC;" d="M477.867,103.933V121c0,4.713-3.821,8.533-8.533,8.533H206.251c-4.713,0-8.533-3.821-8.533-8.533
					v-17.067c0.028-9.414,7.653-17.039,17.067-17.067H460.8C470.214,86.895,477.839,94.519,477.867,103.933z"/>
			</g>
			<g>
				<path style="fill:#F4F4F4;" d="M426.667,69.8v34.133H197.717c0.028-9.414,7.653-17.039,17.067-17.067h8.533V69.8
					c0.028-9.414,7.653-17.039,17.067-17.067H409.6C419.014,52.761,426.639,60.386,426.667,69.8z"/>
				<path style="fill:#F4F4F4;" d="M452.267,103.933V121c0,4.713-3.821,8.533-8.533,8.533H206.251c-4.713,0-8.533-3.821-8.533-8.533
					v-17.067c0.028-9.414,7.653-17.039,17.067-17.067H435.2C444.614,86.895,452.239,94.519,452.267,103.933z"/>
			</g>
		</g>
		<path style="fill:none;stroke:#000000;stroke-width:2;stroke-linecap:round;stroke-linejoin:round;" d="M315.733,377h-256"/>
		<g>
			<path style="fill:#F44335;" d="M349.867,342.867l8.533,17.067L42.667,351.4v-8.533c0,0-8.533-34.133,34.133-34.133
				c27.733,0,27.733-8.533,55.467-8.533s27.819,8.533,55.552,8.533s27.733-8.533,55.467-8.533s27.648,8.533,55.381,8.533
				C298.667,308.733,341.333,308.733,349.867,342.867z"/>
			<g>
				<path style="fill:#4E342E;" d="M384,372.733c-0.065,14.816-10.943,27.362-25.6,29.525h-25.6L37.888,402.6
					c-16.495-0.141-29.752-13.628-29.611-30.123c0.141-16.495,13.628-29.752,30.123-29.611h315.733
					C370.628,342.867,384,356.238,384,372.733z"/>
				<path style="fill:#4E342E;" d="M358.4,372.733c-0.065,14.816-10.943,27.362-25.6,29.525L37.888,402.6
					c-16.495-0.141-29.752-13.628-29.611-30.123c0.141-16.495,13.628-29.752,30.123-29.611h290.133
					C345.028,342.867,358.4,356.238,358.4,372.733z"/>
			</g>
			<path style="fill:#795548;" d="M358.4,372.733c-0.065,14.816-10.943,27.362-25.6,29.525L38.144,402.6
				c-16.495-0.071-29.809-13.5-29.739-29.995c0.071-16.495,13.5-29.809,29.995-29.739h290.133
				C345.028,342.867,358.4,356.238,358.4,372.733z"/>
			<path style="fill:#F57C00;" d="M358.4,385.533V428.2c0,37.703-30.564,68.267-68.267,68.267H119.467
				c-37.703,0-68.267-30.564-68.267-68.267v-42.667c0-4.713,3.821-8.533,8.533-8.533h290.133
				C354.579,377,358.4,380.821,358.4,385.533z"/>
			<path style="fill:#FF9801;" d="M332.8,385.533V428.2c0,37.703-30.564,68.267-68.267,68.267H119.467
				c-37.703,0-68.267-30.564-68.267-68.267v-42.667c0-4.713,3.821-8.533,8.533-8.533h264.533
				C328.98,377,332.8,380.821,332.8,385.533z"/>
		</g>
	</g>
	<g>
		<path d="M503.467,494.933H486.4c-4.713,0-8.533,3.821-8.533,8.533c0,4.713,3.82,8.533,8.533,8.533h17.067
			c4.713,0,8.533-3.82,8.533-8.533C512,498.754,508.18,494.933,503.467,494.933z"/>
		<path d="M452.267,494.933h-24.55l40.678-349.867h9.472c4.713,0,8.533-3.821,8.533-8.533v-25.6c0-14.138-11.462-25.6-25.6-25.6
			V76.8c0-14.138-11.462-25.6-25.6-25.6h-85.333V17.067C349.867,7.641,342.226,0,332.8,0h-42.667c-4.713,0-8.533,3.821-8.533,8.533
			s3.821,8.533,8.533,8.533H332.8V51.2h-93.867c-14.139,0-25.6,11.462-25.6,25.6v8.533c-14.138,0-25.6,11.462-25.6,25.6v25.6
			c0,4.713,3.821,8.533,8.533,8.533h9.472l18.057,155.383c-3.639,0.768-7.236,1.723-10.778,2.859
			c-8.111,2.783-16.652,4.1-25.225,3.891c-8.578,0.208-17.125-1.11-25.242-3.891c-9.755-3.269-19.999-4.839-30.285-4.642
			c-10.275-0.192-20.506,1.378-30.251,4.642c-8.109,2.78-16.647,4.098-25.216,3.891c-13.685-1.275-27.168,3.989-36.369,14.199
			c-4.427,5.891-6.855,13.043-6.929,20.412c-13.757,1.641-25.53,10.638-30.726,23.481c-5.195,12.843-2.989,27.496,5.757,38.24V435.2
			c0.006,23.221,10.537,45.188,28.638,59.733H8.533c-4.713,0-8.533,3.821-8.533,8.533C0,508.18,3.821,512,8.533,512h443.733
			c4.713,0,8.533-3.82,8.533-8.533C460.8,498.754,456.98,494.933,452.267,494.933z M230.4,76.8c0-4.713,3.821-8.533,8.533-8.533
			H435.2c4.713,0,8.533,3.821,8.533,8.533v8.533H230.4V76.8z M204.8,110.933c0-4.713,3.82-8.533,8.533-8.533H460.8
			c4.713,0,8.533,3.821,8.533,8.533V128H204.8V110.933z M76.8,324.267c10.277,0.192,20.512-1.378,30.259-4.642
			c8.106-2.78,16.641-4.097,25.207-3.891c8.578-0.209,17.125,1.108,25.242,3.891c9.755,3.267,19.999,4.837,30.285,4.642
			c10.272,0.193,20.501-1.378,30.242-4.642c8.108-2.782,16.646-4.1,25.216-3.891c8.564-0.209,17.097,1.109,25.199,3.891
			c9.732,3.265,19.953,4.836,30.217,4.642c1.254,0,26.291,0.435,38.05,17.067H50.594c0.134-3.437,1.302-6.754,3.354-9.515
			C60.052,326.009,68.436,323.238,76.8,324.267z M23.398,364.646c3.953-4.021,9.363-6.273,15.002-6.246h315.733
			c11.782,0,21.333,9.551,21.333,21.333c0.017,5.687-2.274,11.137-6.349,15.104c-0.682,0.678-1.412,1.305-2.185,1.877v-4.181
			c0-9.426-7.641-17.067-17.067-17.067H59.733c-9.426,0-17.067,7.641-17.067,17.067v8.533H38.4
			c-8.643,0.026-16.442-5.18-19.734-13.171C15.374,379.904,17.245,370.715,23.398,364.646z M25.6,435.2v-19.396
			c4.102,1.502,8.432,2.289,12.8,2.33h4.267V435.2c0.014,21.906,9.411,42.756,25.813,57.276
			C43.086,484.978,25.642,461.678,25.6,435.2z M256,494.933H119.467c-32.974-0.038-59.696-26.759-59.733-59.733v-42.667h290.133
			V435.2c-0.038,32.974-26.759,59.696-59.733,59.733H256z M366.933,435.2v-19.388c5.371-1.852,10.25-4.901,14.268-8.917
			c7.284-7.156,11.37-16.95,11.332-27.162c-0.051-20.393-16.053-37.178-36.42-38.204c-10.658-26.948-41.557-34.33-57.446-34.33
			c-8.561,0.209-17.091-1.109-25.19-3.891c-9.736-3.264-19.959-4.834-30.225-4.642c-0.853,0-1.647,0-2.483,0.051l-17.852-153.651
			h228.301l-40.678,349.867h-72.243C356.396,480.388,366.928,458.421,366.933,435.2z"/>
	</g>
</g>
<g>
</g>
<g>
</g>
<g>
</g>
<g>
</g>
<g>
</g>
<g>
</g>
<g>
</g>
<g>
</g>
<g>
</g>
<g>
</g>
<g>
</g>
<g>
</g>
<g>
</g>
<g>
</g>
<g>
</g>
</svg>
