<?xml version="1.0" encoding="iso-8859-1"?>
<!-- Generator: Adobe Illustrator 19.0.0, SVG Export Plug-In . SVG Version: 6.00 Build 0)  -->
<svg version="1.1" id="Capa_1" xmlns="http://www.w3.org/2000/svg" xmlns:xlink="http://www.w3.org/1999/xlink" x="0px" y="0px"
	 viewBox="0 0 512 512" style="enable-background:new 0 0 512 512;" xml:space="preserve">
<g>
	<g transform="translate(1 1)">
		<path style="fill:#C52828;" d="M502.467,58.239v409.685c-0.047,18.818-15.315,34.048-34.133,34.048h-25.6
			c18.818,0,34.086-15.23,34.133-34.048V58.239c-0.005-4.422-1.717-8.671-4.779-11.861l-31.915-32.939l0.512-0.512
			c3.229-3.315,7.66-5.186,12.288-5.186s9.059,1.87,12.288,5.186l32.427,33.451C500.75,49.568,502.462,53.817,502.467,58.239z"/>
		<path style="fill:#F44335;" d="M476.867,58.239v409.685c-0.047,18.818-15.315,34.048-34.133,34.048H41.667
			c-18.818,0-34.086-15.23-34.133-34.048V58.239c0.005-4.422,1.717-8.671,4.779-11.861l31.915-32.939l0.512-0.512
			c3.229-3.315,7.66-5.186,12.288-5.186s9.059,1.87,12.288,5.186L93.72,38.185l0.512,0.512c3.229,3.315,7.66,5.186,12.288,5.186
			c4.628,0,9.059-1.87,12.288-5.186l24.405-25.259l0.512-0.512c3.229-3.315,7.66-5.186,12.288-5.186
			c4.628,0,9.059,1.87,12.288,5.186l24.405,25.259l0.512,0.512c3.229,3.315,7.66,5.186,12.288,5.186
			c4.628,0,9.059-1.87,12.288-5.186L242.2,13.439l0.512-0.512c3.229-3.315,7.66-5.186,12.288-5.186c4.628,0,9.059,1.87,12.288,5.186
			l24.405,25.259l0.512,0.512c3.229,3.315,7.66,5.186,12.288,5.186c4.628,0,9.059-1.87,12.288-5.186l24.405-25.259l0.512-0.512
			c3.229-3.315,7.66-5.186,12.288-5.186s9.059,1.87,12.288,5.186l24.405,25.259l0.512,0.512c3.229,3.315,7.66,5.186,12.288,5.186
			c4.628,0,9.059-1.87,12.288-5.186l24.405-25.259l31.915,32.939C475.15,49.568,476.862,53.817,476.867,58.239z"/>
		<path style="fill:#C52828;" d="M408.6,288.639c0,84.831-68.769,153.6-153.6,153.6c-4.352,0-8.619-0.171-12.8-0.512
			c-79.706-6.524-141.069-73.116-141.069-153.088S162.494,142.075,242.2,135.551c4.181-0.341,8.448-0.512,12.8-0.512
			C339.831,135.039,408.6,203.808,408.6,288.639z"/>
		<ellipse style="fill:#F44335;" cx="242.2" cy="288.639" rx="140.8" ry="153.088"/>
		<path style="fill:#F57C00;" d="M340.333,263.039v76.8c0,14.138-11.462,25.6-25.6,25.6H195.267c-14.139,0-25.6-11.462-25.6-25.6
			v-76.8c0-28.277,22.923-51.2,51.2-51.2h68.267C317.393,211.881,340.291,234.779,340.333,263.039z"/>
		<path style="fill:#FF9801;" d="M314.733,263.039v76.8c0,14.138-11.462,25.6-25.6,25.6h-93.867c-14.139,0-25.6-11.462-25.6-25.6
			v-76.8c0-28.277,22.923-51.2,51.2-51.2h42.667C291.793,211.881,314.691,234.779,314.733,263.039z"/>
		<path style="fill:#4E342E;" d="M357.4,288.639c0,14.138-11.462,25.6-25.6,25.6H178.2c-14.138,0-25.6-11.462-25.6-25.6
			s11.462-25.6,25.6-25.6h153.6C345.939,263.039,357.4,274.5,357.4,288.639z"/>
		<path style="fill:#795548;" d="M331.8,288.639c0,14.138-11.462,25.6-25.6,25.6h-128c-14.138,0-25.6-11.462-25.6-25.6
			s11.462-25.6,25.6-25.6h128C320.339,263.039,331.8,274.5,331.8,288.639z"/>
		<g>
			<path style="fill:#E57E25;" d="M255,211.839c-0.027,1.333-0.348,2.644-0.939,3.84l-8.533,17.067
				c-1.416,2.896-4.37,4.722-7.595,4.693c-1.339,0.015-2.659-0.308-3.84-0.939c-2.021-1.011-3.555-2.788-4.26-4.935
				s-0.523-4.487,0.505-6.5l6.656-13.227H255z"/>
			<path style="fill:#E57E25;" d="M289.133,211.839c-0.027,1.333-0.348,2.644-0.939,3.84l-8.533,17.067
				c-1.416,2.896-4.371,4.722-7.595,4.693c-1.339,0.015-2.659-0.308-3.84-0.939c-2.021-1.011-3.555-2.788-4.26-4.935
				s-0.523-4.487,0.505-6.5l6.656-13.227H289.133z"/>
		</g>
		<path style="fill:#F4F4F4;" d="M101.4,288.639c-0.042,26.977,7.085,53.481,20.651,76.8H7.533v-153.6h114.517
			C108.485,235.157,101.358,261.661,101.4,288.639z"/>
		<path style="fill:#CFD8DC;" d="M502.467,211.839v153.6H387.949c27.533-47.498,27.533-106.102,0-153.6H502.467z"/>
		<path style="fill:#F4F4F4;" d="M476.867,211.839v153.6h-88.917c27.533-47.498,27.533-106.102,0-153.6H476.867z"/>
	</g>
	<g>
		<path d="M504.789,41.464L472.363,8.039c-10.2-10.058-26.587-10.058-36.787,0L410.624,33.75c-3.414,3.343-8.874,3.343-12.288,0
			L373.385,8.039c-10.203-10.059-26.593-10.059-36.796,0L311.646,33.75c-3.417,3.344-8.88,3.344-12.297,0l-24.96-25.711
			c-10.199-10.052-26.58-10.052-36.779,0l-24.96,25.711c-3.417,3.344-8.88,3.344-12.297,0L175.411,8.039
			c-10.203-10.059-26.593-10.059-36.796,0L113.664,33.75c-3.414,3.343-8.874,3.343-12.288,0L76.425,8.039
			c-10.2-10.058-26.587-10.058-36.787,0L7.211,41.455C2.575,46.212-0.014,52.596,0,59.239v409.677
			c0.042,23.534,19.132,42.59,42.667,42.59h426.667c23.534,0,42.624-19.056,42.667-42.59V59.239
			C512.016,52.598,509.427,46.216,504.789,41.464z M17.067,221.372h92.083c-20.377,43.23-20.377,93.303,0,136.533H17.067V221.372z
			 M110.933,289.639c0-80.118,64.949-145.067,145.067-145.067s145.067,64.949,145.067,145.067S336.118,434.705,256,434.705
			C175.919,434.616,111.023,369.72,110.933,289.639z M402.85,221.372h92.083v136.533H402.85
			C423.227,314.675,423.227,264.602,402.85,221.372z M19.456,53.342l32.427-33.476c1.616-1.658,3.833-2.593,6.148-2.593
			c2.315,0,4.532,0.935,6.148,2.593l24.943,25.719c10.203,10.059,26.593,10.059,36.796,0l24.951-25.719
			c3.414-3.343,8.874-3.343,12.288,0l24.951,25.719c10.2,10.058,26.587,10.058,36.787,0l24.96-25.719
			c3.414-3.343,8.874-3.343,12.288,0l24.96,25.719c10.2,10.058,26.587,10.058,36.787,0l24.951-25.719
			c3.414-3.343,8.874-3.343,12.288,0l24.951,25.719c10.203,10.059,26.593,10.059,36.796,0l24.943-25.754
			c3.417-3.344,8.88-3.344,12.297,0l32.427,33.485c1.544,1.583,2.402,3.711,2.389,5.922l0,145.067H393.6
			c-29.44-47.735-81.516-76.802-137.6-76.802s-108.16,29.067-137.6,76.802H17.067l0-145.067
			C17.064,57.037,17.922,54.921,19.456,53.342z M469.333,494.439H42.667c-14.109,0-25.558-11.415-25.6-25.523v-93.943H118.4
			c29.44,47.735,81.516,76.802,137.6,76.802s108.16-29.067,137.6-76.802h101.333v93.943
			C494.891,483.024,483.442,494.439,469.333,494.439z"/>
		<path d="M162.133,319.028v21.811c0,18.851,15.282,34.133,34.133,34.133h119.467c18.851,0,34.133-15.282,34.133-34.133v-21.811
			c10.589-6.038,17.111-17.307,17.07-29.497s-6.637-23.415-17.266-29.383c-2.049-31.386-28.085-55.806-59.537-55.842h-68.267
			c-31.452,0.037-57.488,24.456-59.537,55.842c-10.629,5.968-17.226,17.193-17.266,29.383
			C145.023,301.72,151.544,312.989,162.133,319.028z M332.8,340.839c0,9.426-7.641,17.067-17.067,17.067H196.267
			c-9.426,0-17.067-7.641-17.067-17.067v-17.067h153.6V340.839z M221.867,221.372h11.793l-2.364,4.719
			c-2.107,4.218-0.395,9.345,3.823,11.452c4.218,2.107,9.345,0.395,11.452-3.823l6.17-12.348h15.053l-2.364,4.719
			c-2.107,4.218-0.395,9.345,3.823,11.452c4.218,2.107,9.345,0.395,11.452-3.823l6.17-12.348h3.26
			c20.269,0.022,37.734,14.279,41.813,34.133H180.053C184.133,235.651,201.598,221.394,221.867,221.372z M179.2,272.572h153.6
			c9.426,0,17.067,7.641,17.067,17.067s-7.641,17.067-17.067,17.067H179.2c-9.426,0-17.067-7.641-17.067-17.067
			S169.774,272.572,179.2,272.572z"/>
	</g>
</g>
<g>
</g>
<g>
</g>
<g>
</g>
<g>
</g>
<g>
</g>
<g>
</g>
<g>
</g>
<g>
</g>
<g>
</g>
<g>
</g>
<g>
</g>
<g>
</g>
<g>
</g>
<g>
</g>
<g>
</g>
</svg>
