<?xml version="1.0" encoding="iso-8859-1"?>
<!-- Generator: Adobe Illustrator 19.0.0, SVG Export Plug-In . SVG Version: 6.00 Build 0)  -->
<svg version="1.1" id="Capa_1" xmlns="http://www.w3.org/2000/svg" xmlns:xlink="http://www.w3.org/1999/xlink" x="0px" y="0px"
	 viewBox="0 0 512 512" style="enable-background:new 0 0 512 512;" xml:space="preserve">
<g>
	<g transform="translate(0 1)">
		<path style="fill:#FFB301;" d="M494.933,255c0,136.672-110.795,247.467-247.467,247.467c-2.901,0-5.717-0.085-8.533-0.256
			C105.698,497.646,0.048,388.314,0.048,255S105.698,12.354,238.933,7.789c2.816-0.171,5.632-0.256,8.533-0.256
			C384.139,7.533,494.933,118.328,494.933,255z"/>
		<ellipse style="fill:#FEC108;" cx="238.933" cy="255" rx="238.933" ry="247.211"/>
		<path style="fill:#FFEB3A;" d="M460.8,255c0,109.909-90.453,199.68-203.947,204.544c-3.558-0.085-7.117-0.341-10.684-0.597
			c-3.209-0.256-6.414-0.597-9.617-1.024c-0.808-0.072-1.611-0.186-2.406-0.341c-2.935-0.341-5.871-0.853-8.815-1.365
			c-3.294-0.597-6.588-1.28-9.882-1.963c-0.225-0.097-0.464-0.154-0.708-0.171c-3.209-0.768-6.417-1.536-9.532-2.475
			c-2.85-0.768-5.7-1.621-8.457-2.475c-2.227-0.683-4.361-1.451-6.502-2.304c-0.827-0.208-1.633-0.494-2.406-0.853
			c-2.303-0.756-4.562-1.639-6.767-2.645c-16.322-6.62-31.755-15.248-45.943-25.685c-1.783-1.28-3.473-2.56-5.163-3.925
			c-1.34-1.024-2.671-2.048-4.011-3.243c-3.2-2.56-6.323-5.291-9.387-8.107c-1.877-1.707-3.652-3.413-5.436-5.205
			c-2.313-2.304-4.634-4.608-6.767-7.083c-2.133-2.475-4.361-4.779-6.502-7.339c-18.896-22.48-32.606-48.847-40.158-77.227
			c-0.802-2.731-1.425-5.547-1.954-8.363c-6.178-27.764-6.178-56.546,0-84.309c0.529-2.816,1.152-5.632,1.954-8.363
			c7.551-28.379,21.262-54.746,40.158-77.227c2.142-2.56,4.267-4.949,6.502-7.339c2.236-2.389,4.454-4.779,6.767-7.083
			c1.783-1.792,3.558-3.499,5.436-5.12c3.021-2.901,6.15-5.632,9.387-8.192c1.34-1.195,2.671-2.219,4.011-3.243
			c1.707-1.365,3.413-2.645,5.163-3.925c10.286-7.6,21.255-14.228,32.768-19.797c1.68-0.882,3.403-1.68,5.163-2.389
			c2.671-1.28,5.342-2.475,8.013-3.499c2.205-1.007,4.464-1.89,6.767-2.645c0.773-0.36,1.579-0.645,2.406-0.853
			c2.142-0.853,4.267-1.621,6.502-2.304c2.756-0.853,5.606-1.707,8.457-2.475c3.115-0.939,6.323-1.707,9.532-2.475
			c0.244-0.016,0.484-0.074,0.708-0.171c3.294-0.683,6.588-1.365,9.882-1.963c2.944-0.512,5.879-1.024,8.815-1.365
			c0.796-0.156,1.599-0.269,2.406-0.341c3.209-0.427,6.414-0.768,9.617-1.024c3.567-0.256,7.125-0.512,10.684-0.597
			C370.347,55.32,460.8,145.091,460.8,255z"/>
		<g>
			<path style="fill:#9D27B0;" d="M96.683,318.317l-24.917,24.917c-2.793-5.749-5.272-11.646-7.424-17.664
				c-3.482-9.327-6.221-18.914-8.192-28.672c-1.966-9.51-3.249-19.149-3.84-28.843l44.373,44.288
				C98.309,314.003,98.309,316.658,96.683,318.317z"/>
			<path style="fill:#9D27B0;" d="M96.683,197.656l-44.373,44.288c0.591-9.693,1.874-19.332,3.84-28.843
				c1.971-9.758,4.71-19.345,8.192-28.672c2.152-6.018,4.631-11.915,7.424-17.664l24.917,24.917
				C98.309,193.342,98.309,195.997,96.683,197.656z"/>
			<path style="fill:#9D27B0;" d="M169.045,125.208l-42.325,42.325c-1.659,1.626-4.314,1.626-5.973,0l-9.557-9.557L89.6,136.387
				c6.603-9.35,13.997-18.114,22.101-26.197c3.851-3.898,7.895-7.601,12.117-11.093c4.523-3.925,9.301-7.595,14.08-11.008
				l31.147,31.147C170.672,120.894,170.672,123.549,169.045,125.208z"/>
			<path style="fill:#9D27B0;" d="M169.045,390.765l-31.147,31.147c-4.779-3.413-9.557-7.083-14.08-11.008
				c-4.222-3.492-8.267-7.195-12.117-11.093c-8.104-8.083-15.499-16.848-22.101-26.197l21.589-21.589l9.557-9.557
				c1.659-1.626,4.314-1.626,5.973,0l42.325,42.325C170.672,386.451,170.672,389.106,169.045,390.765z"/>
			<path style="fill:#9D27B0;" d="M243.456,50.797l-44.288,44.373c-1.659,1.626-4.314,1.626-5.973,0l-9.557-9.557l-15.36-15.36
				c14.71-7.102,30.246-12.348,46.251-15.616h0.085C224.124,52.671,233.763,51.388,243.456,50.797z"/>
			<path style="fill:#9D27B0;" d="M243.456,459.203c-9.721-0.596-19.388-1.88-28.928-3.84c-16.005-3.268-31.541-8.514-46.251-15.616
				l15.36-15.275l9.557-9.557c1.659-1.626,4.314-1.626,5.973,0L243.456,459.203z"/>
			<path style="fill:#9D27B0;" d="M344.747,439.747c-23.557,11.311-49.093,17.92-75.179,19.456l0.683-0.683l3.072-3.157h0.085
				l2.304-2.304l28.587-28.672l9.557-9.557c1.659-1.626,4.314-1.626,5.973,0l23.125,23.125L344.747,439.747z"/>
			<path style="fill:#9D27B0;" d="M344.747,70.253l-10.752,10.752l-14.165,14.165c-1.659,1.626-4.314,1.626-5.973,0l-9.557-9.557
				l-28.587-28.672l-2.304-2.304h-0.085l-3.072-3.157l-0.683-0.683C295.654,52.334,321.19,58.942,344.747,70.253z"/>
			<path style="fill:#9D27B0;" d="M289.707,390.765l-30.208,30.208c-1.659,1.626-4.314,1.626-5.973,0l-9.557-9.557l-20.651-20.651
				c-1.626-1.659-1.626-4.314,0-5.973l20.651-20.736l9.557-9.557c1.659-1.626,4.314-1.626,5.973,0l30.208,30.293
				C291.333,386.451,291.333,389.106,289.707,390.765z"/>
			<path style="fill:#9D27B0;" d="M362.155,318.317l-42.325,42.325c-1.659,1.626-4.314,1.626-5.973,0l-9.557-9.557l-20.651-20.651
				c-1.626-1.659-1.626-4.314,0-5.973l42.325-42.325c1.659-1.626,4.314-1.626,5.973,0l30.208,30.208
				C363.781,314.003,363.781,316.658,362.155,318.317z"/>
			<path style="fill:#9D27B0;" d="M423.424,373.613c-13.253,18.714-29.584,35.046-48.299,48.299l-31.147-31.147
				c-1.626-1.659-1.626-4.314,0-5.973l32.768-32.768l9.557-9.557c1.659-1.626,4.314-1.626,5.973,0l29.867,29.867L423.424,373.613z"
				/>
			<path style="fill:#9D27B0;" d="M423.424,136.387l-31.147,31.147c-1.659,1.626-4.314,1.626-5.973,0l-42.325-42.325
				c-1.626-1.659-1.626-4.314,0-5.973l29.355-29.355l1.792-1.792C393.84,101.341,410.171,117.672,423.424,136.387z"/>
			<path style="fill:#9D27B0;" d="M422.485,257.987l-30.208,30.208c-1.659,1.626-4.314,1.626-5.973,0l-9.557-9.557l-20.736-20.651
				c-1.626-1.659-1.626-4.314,0-5.973l20.736-20.651l9.557-9.557c1.659-1.626,4.314-1.626,5.973,0l30.208,30.208
				C424.112,253.672,424.112,256.328,422.485,257.987z"/>
			<path style="fill:#9D27B0;" d="M460.715,241.944l-0.427-0.427l-28.501-28.416v-0.085l-18.347-18.347l10.24-10.24l16.725-16.811
				l0.853-0.853C452.57,190.322,459.178,215.858,460.715,241.944z"/>
			<path style="fill:#9D27B0;" d="M460.715,268.056c-1.536,26.086-8.145,51.622-19.456,75.179l-0.853-0.853l-16.811-16.811
				l-1.109-1.109l-6.144-6.144c-1.626-1.659-1.626-4.314,0-5.973l15.445-15.445l28.501-28.416L460.715,268.056z"/>
			<path style="fill:#9D27B0;" d="M362.155,191.683l-42.325-42.325c-1.659-1.626-4.314-1.626-5.973,0l-9.557,9.557l-20.651,20.651
				c-1.626,1.659-1.626,4.314,0,5.973l42.325,42.325c1.659,1.626,4.314,1.626,5.973,0l30.208-30.208
				C363.781,195.997,363.781,193.342,362.155,191.683z M301.824,252.013l-42.325-42.325c-1.659-1.626-4.314-1.626-5.973,0
				l-9.557,9.557L211.2,252.013c-1.626,1.659-1.626,4.314,0,5.973l42.325,42.325c1.659,1.626,4.314,1.626,5.973,0l42.325-42.325
				C303.45,256.328,303.45,253.672,301.824,252.013z M289.707,119.235l-30.208-30.208c-1.659-1.626-4.314-1.626-5.973,0
				l-9.557,9.557l-20.651,20.651c-1.626,1.659-1.626,4.314,0,5.973l20.651,20.736l9.557,9.557c1.659,1.626,4.314,1.626,5.973,0
				l30.208-30.293C291.333,123.549,291.333,120.894,289.707,119.235z M229.376,179.565l-30.208-30.208
				c-1.659-1.626-4.314-1.626-5.973,0l-9.557,9.557l-32.768,32.768c-1.626,1.659-1.626,4.314,0,5.973l20.651,20.651l9.557,9.557
				c1.659,1.626,4.314,1.626,5.973,0l42.325-42.325C231.002,183.88,231.002,181.224,229.376,179.565z M157.013,252.013
				l-30.293-30.208c-1.659-1.626-4.314-1.626-5.973,0l-9.557,9.557l-20.651,20.651c-1.626,1.659-1.626,4.314,0,5.973l20.651,20.651
				l9.557,9.557c1.659,1.626,4.314,1.626,5.973,0l30.293-30.208C158.64,256.328,158.64,253.672,157.013,252.013z M301.824,252.013
				l-42.325-42.325c-1.659-1.626-4.314-1.626-5.973,0l-9.557,9.557L211.2,252.013c-1.626,1.659-1.626,4.314,0,5.973l42.325,42.325
				c1.659,1.626,4.314,1.626,5.973,0l42.325-42.325C303.45,256.328,303.45,253.672,301.824,252.013z M229.376,324.461
				l-42.325-42.325c-1.659-1.626-4.314-1.626-5.973,0l-30.208,30.208c-1.626,1.659-1.626,4.314,0,5.973l42.325,42.325
				c1.659,1.626,4.314,1.626,5.973,0l30.208-30.208C231.002,328.776,231.002,326.12,229.376,324.461z M52.309,241.944l-0.085,0.085
				L52.309,241.944z M52.309,268.056l-0.085-0.085L52.309,268.056z M196.181,411.928v-0.085V411.928z M243.541,459.288l-0.085-0.085
				L243.541,459.288z M269.568,459.203l-0.085,0.085L269.568,459.203z M460.8,267.971l-0.085,0.085L460.8,267.971z M460.8,242.029
				l-0.085-0.085L460.8,242.029z M413.44,194.669h-0.085H413.44z M269.568,50.797l-0.085-0.085L269.568,50.797z M243.541,50.712
				l-0.085,0.085L243.541,50.712z"/>
		</g>
		<path style="fill:#FFEB3A;" d="M275.712,56.941c-10.569-2.671-21.323-4.553-32.171-5.632l2.645-0.256
			c3.584-0.256,7.168-0.512,10.667-0.597c4.523,0.171,8.96,0.512,13.397,1.024l3.072,3.157h0.085L275.712,56.941z"/>
		<path style="fill:#6A1B9A;" d="M342.955,72.045l-8.96,8.96c-18.124-10.873-37.767-18.984-58.283-24.064l-2.304-2.304h-0.085
			l-3.072-3.157C295.506,54.008,320.117,60.97,342.955,72.045z"/>
		<g>
			<path style="fill:#BFB02C;" d="M373.333,89.88l-11.179,11.179c-8.748-7.539-18.175-14.252-28.16-20.053l8.96-8.96
				C353.594,77.07,363.761,83.039,373.333,89.88z"/>
			<path style="fill:#BFB02C;" d="M440.405,167.619l-16.725,16.811l-1.195,1.195c-4.174-11.345-9.432-22.262-15.701-32.597
				l15.36-15.36C429.118,147.082,435.23,157.106,440.405,167.619z"/>
		</g>
		<path style="fill:#6A1B9A;" d="M362.155,101.059l11.179-11.179c18.835,13.079,35.335,29.233,48.811,47.787l-15.36,15.36
			C394.98,133.286,379.885,115.71,362.155,101.059z"/>
		<g>
			<path style="fill:#BFB02C;" d="M460.8,255c0,4.523-0.171,9.045-0.512,13.483l-28.501,28.416l-1.451,1.451
				c6.485-28.565,6.485-58.219,0-86.784l1.451,1.451v0.085l28.501,28.416C460.629,245.955,460.8,250.477,460.8,255z"/>
			<path style="fill:#BFB02C;" d="M440.405,342.381c-5.175,10.512-11.287,20.537-18.261,29.952l-15.36-15.36
				c6.269-10.306,11.527-21.194,15.701-32.512l1.109,1.109L440.405,342.381z"/>
			<path style="fill:#BFB02C;" d="M373.333,420.12c-9.572,6.841-19.739,12.81-30.379,17.835l-8.96-8.96
				c9.985-5.802,19.412-12.515,28.16-20.053L373.333,420.12z"/>
		</g>
		<path style="fill:#FFEB3A;" d="M275.712,453.059l-2.304,2.304h-0.085l-3.072,3.157c-4.437,0.512-8.875,0.853-13.397,1.024
			c-3.499-0.085-7.083-0.341-10.667-0.597l-2.56-0.256C254.447,457.612,265.171,455.729,275.712,453.059z"/>
		<g>
			<path style="fill:#6A1B9A;" d="M342.955,437.955c-22.837,11.076-47.449,18.037-72.704,20.565l3.072-3.157h0.085l2.304-2.304
				c20.515-5.08,40.159-13.191,58.283-24.064L342.955,437.955z"/>
			<path style="fill:#6A1B9A;" d="M422.144,372.333c-13.475,18.553-29.976,34.708-48.811,47.787l-11.179-11.179
				c17.731-14.651,32.825-32.227,44.629-51.968L422.144,372.333z"/>
			<path style="fill:#6A1B9A;" d="M460.288,268.483c-1.697,25.702-8.453,50.815-19.883,73.899l-16.811-16.811l-1.109-1.109
				c3.271-8.494,5.895-17.223,7.851-26.112l1.451-1.451L460.288,268.483z"/>
			<path style="fill:#6A1B9A;" d="M430.336,211.565c-1.916-8.844-4.542-17.519-7.851-25.941l1.195-1.195l16.725-16.811
				c11.429,23.083,18.186,48.197,19.883,73.899l-28.501-28.416v-0.085L430.336,211.565z"/>
		</g>
	</g>
	<g>
		<path d="M256,0C132.67,0.075,26.925,88.074,4.445,209.338S49.142,450.657,164.25,494.933H8.533c-4.713,0-8.533,3.821-8.533,8.533
			C0,508.18,3.821,512,8.533,512h443.733c4.713,0,8.533-3.82,8.533-8.533c0-4.713-3.82-8.533-8.533-8.533H347.75
			c115.108-44.277,182.285-164.332,159.805-285.595S379.33,0.075,256,0z M256,494.933C124.041,494.933,17.067,387.959,17.067,256
			S124.041,17.067,256,17.067S494.933,124.041,494.933,256C494.783,387.897,387.897,494.783,256,494.933z"/>
		<path d="M105.148,105.148c-83.31,83.313-83.308,218.386,0.004,301.697s218.385,83.311,301.697,0s83.313-218.384,0.004-301.697
			C323.481,21.973,188.519,21.973,105.148,105.148z M411.563,136.644l-22.81,22.818l-36.215-36.207l22.818-22.818
			c6.837,5.161,13.328,10.765,19.43,16.777C400.795,123.319,406.399,129.81,411.563,136.644z M329.387,74.001L316.339,87.04
			l-23.765-23.765C305.165,65.643,317.494,69.235,329.387,74.001z M219.435,63.275L195.661,87.04l-13.047-13.039
			C194.507,69.23,206.84,65.638,219.435,63.275z M117.214,117.214c6.105-6.011,12.596-11.618,19.43-16.785l22.818,22.827
			l-36.215,36.207l-22.81-22.818C105.601,129.81,111.205,123.319,117.214,117.214z M63.283,292.574l23.757,23.765l-13.039,13.047
			C69.232,317.496,65.642,305.166,63.283,292.574z M74.001,182.613l13.039,13.047l-23.757,23.765
			C65.642,206.834,69.232,194.504,74.001,182.613z M100.454,375.356l22.81-22.818l36.215,36.207l-22.835,22.818
			c-6.837-5.161-13.327-10.765-19.43-16.777c-6.009-6.105-11.613-12.596-16.777-19.43H100.454z M182.613,437.999l13.056-13.047
			l23.774,23.774C206.845,446.363,194.51,442.77,182.613,437.999z M246.613,451.729l-44.877-44.877
			c-3.332-3.331-8.734-3.331-12.066,0l-23.552,23.543c-5.205-2.679-10.291-5.666-15.283-8.841l26.769-26.778
			c3.331-3.332,3.331-8.734,0-12.066l-48.324-48.273c-3.385-3.201-8.681-3.201-12.066,0l-26.761,26.769
			c-3.183-4.992-6.17-10.078-8.849-15.283l23.543-23.552c3.331-3.332,3.331-8.734,0-12.066l-44.868-44.868
			c-0.299-6.298-0.299-12.578,0-18.876l44.868-44.868c3.331-3.332,3.331-8.734,0-12.066l-23.543-23.552
			c2.679-5.205,5.666-10.291,8.849-15.283l26.761,26.769c3.332,3.331,8.734,3.331,12.066,0l48.282-48.273
			c3.331-3.332,3.331-8.734,0-12.066l-26.778-26.769c5.001-3.174,10.086-6.161,15.292-8.841l23.552,23.543
			c3.332,3.331,8.734,3.331,12.066,0l44.919-44.885c3.14-0.145,6.281-0.444,9.429-0.444c3.149,0,6.289,0.299,9.429,0.444
			l44.877,44.877c3.332,3.331,8.734,3.331,12.066,0l23.552-23.543c5.205,2.679,10.291,5.666,15.283,8.841l-26.769,26.778
			c-3.331,3.332-3.331,8.734,0,12.066l48.282,48.273c3.332,3.331,8.734,3.331,12.066,0l26.718-26.778
			c3.183,5.001,6.17,10.086,8.849,15.292l-23.543,23.552c-3.331,3.332-3.331,8.734,0,12.066l44.868,44.868
			c0.299,6.298,0.299,12.578,0,18.876l-44.868,44.868c-3.331,3.332-3.331,8.734,0,12.066l23.543,23.552
			c-2.679,5.205-5.666,10.291-8.849,15.292l-26.761-26.778c-3.332-3.331-8.734-3.331-12.066,0l-48.282,48.273
			c-3.331,3.332-3.331,8.734,0,12.066l26.778,26.769c-5.001,3.174-10.086,6.161-15.292,8.841l-23.552-23.543
			c-3.332-3.331-8.734-3.331-12.066,0l-44.877,44.877C259.143,452.028,252.871,452.031,246.613,451.729z M448.717,219.426
			l-23.757-23.765l13.039-13.047C442.769,194.504,446.358,206.834,448.717,219.426z M437.999,329.387l-13.039-13.047l23.765-23.765
			C446.364,305.166,442.771,317.497,437.999,329.387z M329.387,437.999c-11.896,4.771-24.232,8.364-36.83,10.726l23.782-23.765
			L329.387,437.999z M394.778,394.786c-6.105,6.011-12.596,11.618-19.43,16.785l-22.818-22.827l36.215-36.207l22.81,22.818
			c-5.161,6.834-10.762,13.325-16.768,19.43H394.778z"/>
		<path d="M503.467,494.933H486.4c-4.713,0-8.533,3.821-8.533,8.533c0,4.713,3.82,8.533,8.533,8.533h17.067
			c4.713,0,8.533-3.82,8.533-8.533C512,498.754,508.18,494.933,503.467,494.933z"/>
		<path d="M271.599,183.595c0,2.263,0.9,4.433,2.5,6.033l48.273,48.265c3.332,3.331,8.734,3.331,12.066,0l36.207-36.198
			c3.331-3.332,3.331-8.734,0-12.066l-48.273-48.273c-3.332-3.331-8.734-3.331-12.066,0l-36.207,36.207
			C272.499,179.162,271.599,181.332,271.599,183.595z M316.339,159.454l36.198,36.207l-24.132,24.132l-36.207-36.198
			L316.339,159.454z"/>
		<path d="M312.806,256c0-2.263-0.9-4.433-2.5-6.033l-48.273-48.273c-3.332-3.331-8.734-3.331-12.066,0l-48.273,48.273
			c-3.331,3.332-3.331,8.734,0,12.066l48.273,48.273c3.332,3.331,8.734,3.331,12.066,0l48.273-48.273
			C311.907,260.433,312.806,258.263,312.806,256z M256,292.207L219.793,256L256,219.793L292.207,256L256,292.207z"/>
		<path d="M249.967,165.495c3.332,3.331,8.734,3.331,12.066,0l36.198-36.207c3.331-3.332,3.331-8.734,0-12.066l-36.198-36.207
			c-3.385-3.201-8.681-3.201-12.066,0l-36.198,36.207c-3.331,3.332-3.331,8.734,0,12.066L249.967,165.495z M256,99.115
			l24.132,24.141L256,147.388l-24.132-24.132L256,99.115z"/>
		<path d="M177.562,237.892c3.332,3.331,8.734,3.331,12.066,0l48.273-48.265c3.331-3.332,3.331-8.734,0-12.066l-36.207-36.207
			c-3.332-3.331-8.734-3.331-12.066,0l-48.273,48.273c-3.331,3.332-3.331,8.734,0,12.066L177.562,237.892z M195.661,159.454
			l24.141,24.141l-36.207,36.198l-24.132-24.132L195.661,159.454z"/>
		<path d="M167.996,256c0-2.263-0.9-4.433-2.5-6.033L129.28,213.76c-3.385-3.201-8.681-3.201-12.066,0l-36.198,36.207
			c-3.331,3.332-3.331,8.734,0,12.066l36.198,36.207c3.332,3.331,8.734,3.331,12.066,0l36.215-36.207
			C167.096,260.433,167.995,258.263,167.996,256z M123.247,280.141L99.115,256l24.132-24.141L147.388,256L123.247,280.141z"/>
		<path d="M240.401,328.405c0-2.263-0.9-4.433-2.5-6.033l-48.273-48.265c-3.385-3.201-8.681-3.201-12.066,0l-36.207,36.198
			c-3.331,3.332-3.331,8.734,0,12.066l48.273,48.273c3.332,3.331,8.734,3.331,12.066,0l36.207-36.207
			C239.501,332.839,240.401,330.668,240.401,328.405z M195.661,352.546l-36.198-36.207l24.132-24.132l36.207,36.198L195.661,352.546
			z"/>
		<path d="M298.232,394.778c3.331-3.332,3.331-8.734,0-12.066l-36.198-36.207c-3.385-3.201-8.681-3.201-12.066,0l-36.198,36.207
			c-3.331,3.332-3.331,8.734,0,12.066l36.198,36.207c3.332,3.331,8.734,3.331,12.066,0L298.232,394.778z M231.868,388.745
			L256,364.612l24.132,24.132L256,412.885L231.868,388.745z"/>
		<path d="M334.438,274.108c-3.332-3.331-8.734-3.331-12.066,0l-48.273,48.265c-3.331,3.332-3.331,8.734,0,12.066l36.207,36.207
			c3.332,3.331,8.734,3.331,12.066,0l48.273-48.273c3.331-3.332,3.331-8.734,0-12.066L334.438,274.108z M316.339,352.546
			l-24.141-24.141l36.207-36.198l24.132,24.132L316.339,352.546z"/>
		<path d="M344.004,256c0,2.263,0.9,4.433,2.5,6.033l36.215,36.207c3.332,3.331,8.734,3.331,12.066,0l36.198-36.207
			c3.331-3.332,3.331-8.734,0-12.066l-36.198-36.207c-3.332-3.331-8.734-3.331-12.066,0l-36.215,36.207
			C344.904,251.567,344.005,253.737,344.004,256z M388.753,231.859L412.885,256l-24.132,24.141L364.612,256L388.753,231.859z"/>
	</g>
</g>
<g>
</g>
<g>
</g>
<g>
</g>
<g>
</g>
<g>
</g>
<g>
</g>
<g>
</g>
<g>
</g>
<g>
</g>
<g>
</g>
<g>
</g>
<g>
</g>
<g>
</g>
<g>
</g>
<g>
</g>
</svg>
