<?xml version="1.0" encoding="iso-8859-1"?>
<!-- Generator: Adobe Illustrator 19.0.0, SVG Export Plug-In . SVG Version: 6.00 Build 0)  -->
<svg version="1.1" id="Capa_1" xmlns="http://www.w3.org/2000/svg" xmlns:xlink="http://www.w3.org/1999/xlink" x="0px" y="0px"
	 viewBox="0 0 512 512" style="enable-background:new 0 0 512 512;" xml:space="preserve">
<g>
	<g transform="translate(1 7)">
		<polygon style="fill:#C52828;" points="383,121 382.061,129.533 340.333,496.467 169.667,496.467 127.939,129.533 127,121 		"/>
		<g>
			<path style="fill:#CFD8DC;" d="M374.467,69.8v34.133H135.533V69.8c0.028-9.414,7.653-17.039,17.067-17.067h204.8
				C366.814,52.761,374.439,60.386,374.467,69.8z"/>
			<path style="fill:#CFD8DC;" d="M400.067,103.933V121c0,4.713-3.82,8.533-8.533,8.533H118.467c-4.713,0-8.533-3.821-8.533-8.533
				v-17.067c0.028-9.414,7.653-17.039,17.067-17.067h256C392.414,86.895,400.039,94.519,400.067,103.933z"/>
		</g>
		<path style="fill:#F44335;" d="M357.4,121l-0.939,8.533l-41.728,366.933H169.667l-41.728-366.933h-9.472
			c-4.713,0-8.533-3.821-8.533-8.533H357.4z"/>
		<g>
			<path style="fill:#F4F4F4;" d="M348.867,69.8v34.133H109.933c0.028-9.414,7.653-17.039,17.067-17.067h8.533V69.8
				c0.028-9.414,7.653-17.039,17.067-17.067h179.2C341.214,52.761,348.839,60.386,348.867,69.8z"/>
			<path style="fill:#F4F4F4;" d="M374.467,103.933V121c0,4.713-3.82,8.533-8.533,8.533H118.467c-4.713,0-8.533-3.821-8.533-8.533
				v-17.067c0.028-9.414,7.653-17.039,17.067-17.067h230.4C366.814,86.895,374.439,94.519,374.467,103.933z"/>
		</g>
		<g>
			<path style="fill:#FDD834;" d="M24.6,368.552c5.632,0.256,10.752,0.427,15.531,0.427c-5.291,0.171-10.325,0.171-15.531,0.171
				V368.552z"/>
			<path style="fill:#FDD834;" d="M158.573,428.2l25.6,0c-3.881-0.007-7.646,1.319-10.667,3.755l-29.867,28.928
				c-3.125,2.474-7.541,2.474-10.667,0l-8.107-6.656l23.04-22.272C150.928,429.519,154.693,428.193,158.573,428.2z"/>
			<path style="fill:#FDD834;" d="M207.043,359.933c43.093,0,47.445,6.912,82.688,8.363c-3.755,0.085-7.851,0.171-12.373,0.171
				c-43.093,0-47.445-6.912-82.688-8.363C198.424,360.019,202.52,359.933,207.043,359.933z"/>
			<path style="fill:#FDD834;" d="M485.4,368.467V428.2h-25.6v-59.733h-0.683c-26.965-1.707-41.557-7.168-73.301-8.363
				c4.011-0.085,8.363-0.171,13.227-0.171c40.704,0,55.467,6.656,85.675,8.533H485.4z"/>
		</g>
		<g>
			<path style="fill:#FFEB3A;" d="M459.8,368.467V428.2H158.573c-3.881-0.007-7.646,1.319-10.667,3.755l-23.04,22.272L97.56,431.955
				c-3.021-2.436-6.786-3.761-10.667-3.755H24.6v-59.051c5.205,0,10.24,0,15.531-0.171h0.939
				c21.163,0.512,36.949-0.512,69.973-0.512c43.264,0,47.531-6.912,83.2-8.363c0.129,0.086,0.298,0.086,0.427,0
				c35.243,1.451,39.595,8.363,82.688,8.363c4.523,0,8.619-0.085,12.373-0.171c0.307-0.088,0.632-0.088,0.939,0
				c3.755,0.085,7.765,0.171,12.288,0.171c43.179,0,47.531-6.912,82.859-8.363c31.744,1.195,46.336,6.656,73.301,8.363H459.8z"/>
			<path style="fill:#FFEB3A;" d="M181.443,359.933c4.693,0,8.96,0.085,12.8,0.171c-35.669,1.451-39.936,8.363-83.2,8.363
				c-33.024,0-48.811,1.024-69.973,0.512c11.947-0.171,25.259-0.512,44.373-0.512C133.4,368.467,133.4,359.933,181.443,359.933z"/>
			<path style="fill:#FFEB3A;" d="M385.816,360.104c-35.328,1.451-39.68,8.363-82.859,8.363c-4.523,0-8.533-0.085-12.288-0.171
				c35.243-1.451,39.595-8.363,82.773-8.363C377.88,359.933,381.976,360.019,385.816,360.104z"/>
		</g>
		<path style="fill:#F57C00;" d="M502.467,411.133v34.133c-0.084,28.242-22.958,51.116-51.2,51.2h-25.6
			c28.242-0.084,51.116-22.958,51.2-51.2v-34.133c0-4.713-3.821-8.533-8.533-8.533h25.6c2.263,0,4.434,0.899,6.034,2.499
			C501.568,406.7,502.467,408.87,502.467,411.133z"/>
		<path style="fill:#2E7D32;" d="M487.704,375.891c-0.759,0.145-1.532,0.202-2.304,0.171h-0.683
			c-5.786-0.474-11.541-1.272-17.237-2.389c-22.373-5.763-45.339-8.913-68.437-9.387c-4.949,0-9.387,0.085-13.397,0.341
			c-35.157,1.963-39.595,11.435-82.688,11.435c-4.693,0-8.96-0.085-12.8-0.256c-35.584-1.963-39.851-11.52-83.115-11.52
			c-4.693,0-8.96,0.085-12.8,0.256c-35.669,1.963-39.936,11.52-83.2,11.52c-34.304,0-49.92,1.451-72.448,0.768h-0.597
			c-4.181-0.171-8.619-0.427-13.397-0.683c-0.427,0-0.939-0.085-1.451-0.085c-0.926-0.117-1.84-0.317-2.731-0.597
			c-9.899-2.816-15.104-18.005-11.947-31.147l6.571-27.051h480l6.485,26.539C504.941,358.056,498.627,374.355,487.704,375.891z"/>
		<path style="fill:#4CAF50;" d="M467.48,373.672c-22.373-5.763-45.339-8.913-68.437-9.387c-4.949,0-9.387,0.085-13.397,0.341
			c-3.84-0.256-7.851-0.341-12.203-0.341c-43.349,0-47.616,9.557-83.285,11.52c-35.584-1.963-39.851-11.52-83.115-11.52
			c-4.693,0-8.96,0.085-12.8,0.256c-3.84-0.171-8.107-0.256-12.8-0.256c-48.043,0-48.043,11.776-96,11.776
			c-20.48,0-34.219,0.512-46.848,0.768h-0.597c-4.181-0.171-8.619-0.427-13.397-0.683c-0.427,0-0.939-0.085-1.451-0.085
			c-0.926-0.117-1.84-0.317-2.731-0.597c-9.899-2.816-15.104-18.005-11.947-31.147l6.571-27.051h454.4l6.485,26.539
			C479.034,354.557,475.758,366.14,467.48,373.672z"/>
		<path style="fill:#F57C00;" d="M502.04,316.413c0.215,2.401-0.586,4.782-2.207,6.566c-1.621,1.784-3.916,2.807-6.326,2.821H16.493
			c-2.41-0.014-4.705-1.037-6.326-2.821s-2.422-4.165-2.207-6.566c4.781-52.731,49.027-93.088,101.973-93.013h290.133
			C452.985,223.398,497.189,263.717,502.04,316.413z"/>
		<g>
			<path style="fill:#FF9801;" d="M476.867,411.133v34.133c-0.084,28.242-22.958,51.116-51.2,51.2H50.2
				c-11.316,0-22.168-4.495-30.17-12.497S7.533,465.116,7.533,453.8v-42.667c0-4.713,3.821-8.533,8.533-8.533h70.827
				c3.881-0.007,7.646,1.319,10.667,3.755l27.307,22.272l8.107,6.656c3.125,2.474,7.541,2.474,10.667,0l29.867-28.928
				c3.021-2.436,6.786-3.761,10.667-3.755h284.16C473.046,402.6,476.867,406.421,476.867,411.133z"/>
			<path style="fill:#FF9801;" d="M476.44,316.413c0.215,2.401-0.586,4.782-2.207,6.566c-1.621,1.784-3.916,2.807-6.326,2.821
				H16.493c-2.41-0.014-4.705-1.037-6.326-2.821s-2.422-4.165-2.207-6.566c4.781-52.731,49.027-93.088,101.973-93.013h264.533
				C427.385,223.398,471.589,263.717,476.44,316.413z"/>
		</g>
	</g>
	<path d="M512,332.8c-0.071-61.238-49.696-110.863-110.933-110.933H382.66l8.934-76.8h9.472c4.713,0,8.533-3.821,8.533-8.533v-25.6
		c0-14.138-11.462-25.6-25.6-25.6V76.8c0-14.138-11.462-25.6-25.6-25.6h-85.333V17.067C273.067,7.641,265.426,0,256,0h-42.667
		c-4.713,0-8.533,3.821-8.533,8.533s3.82,8.533,8.533,8.533H256V51.2H153.6c-14.138,0-25.6,11.462-25.6,25.6v8.533
		c-14.138,0-25.6,11.462-25.6,25.6v25.6c0,4.713,3.821,8.533,8.533,8.533h9.472l8.96,76.8h-18.432
		C49.696,221.937,0.071,271.562,0,332.8c0.028,3.127,1.781,5.984,4.557,7.424l-3.166,9.472c-2.432,7.275-1.64,15.243,2.176,21.897
		c2.972,5.219,7.787,9.139,13.5,10.991v18.483H8.533C3.821,401.067,0,404.887,0,409.6v42.667C0,479.889,22.366,512,51.2,512h409.6
		c28.834,0,51.2-32.111,51.2-59.733V409.6c0-4.713-3.82-8.533-8.533-8.533h-8.533v-18.355c5.258-1.828,9.747-5.375,12.74-10.069
		c4.425-6.912,5.506-15.448,2.944-23.245l-3.089-9.233C510.255,338.714,511.971,335.888,512,332.8z M494.43,354.807
		c0.935,2.864,0.534,5.997-1.092,8.533c-1.17,1.958-3.186,3.258-5.453,3.516c-0.545,0.047-1.093,0.047-1.638,0
		c-10.331-0.721-20.618-1.968-30.822-3.738c-18.288-3.2-36.824-4.779-55.39-4.719c-16.605-0.224-33.189,1.251-49.493,4.403
		c-15.33,2.976-30.926,4.36-46.541,4.13c-15.6,0.229-31.182-1.155-46.498-4.13c-16.304-3.154-32.888-4.629-49.493-4.403
		c-16.605-0.225-33.189,1.251-49.493,4.403c-15.319,2.975-30.904,4.359-46.507,4.13c-15.582,0-27.307,0.23-37.547,0.435
		c-17.382,0.35-29.935,0.597-49.792-0.461c-0.496-0.025-0.99-0.087-1.476-0.188c-2.055-0.457-3.811-1.783-4.813-3.635
		c-1.37-2.429-1.652-5.323-0.777-7.97l4.582-13.781h467.746L494.43,354.807z M145.067,76.8c0-4.713,3.82-8.533,8.533-8.533h204.8
		c4.713,0,8.533,3.821,8.533,8.533v8.533H145.067V76.8z M119.467,110.933c0-4.713,3.821-8.533,8.533-8.533h256
		c4.713,0,8.533,3.821,8.533,8.533V128H119.467V110.933z M137.583,145.067h236.834l-8.943,76.8H146.551L137.583,145.067z
		 M110.933,238.933h34.133V281.6c0,4.713,3.82,8.533,8.533,8.533s8.533-3.821,8.533-8.533v-42.667h34.133V281.6
		c0,4.713,3.821,8.533,8.533,8.533c4.713,0,8.533-3.821,8.533-8.533v-42.667h34.133V281.6c0,4.713,3.821,8.533,8.533,8.533
		c4.713,0,8.533-3.821,8.533-8.533v-42.667h34.133V281.6c0,4.713,3.82,8.533,8.533,8.533s8.533-3.821,8.533-8.533v-42.667h34.133
		V281.6c0,4.713,3.82,8.533,8.533,8.533s8.533-3.821,8.533-8.533v-42.667h34.133c48.513,0.058,89.012,37.027,93.483,85.333H17.451
		C21.921,275.96,62.42,238.991,110.933,238.933z M494.933,452.267c0,19.2-15.753,42.667-34.133,42.667H51.2
		c-18.381,0-34.133-23.467-34.133-42.667v-34.133h70.827c1.909,0,3.763,0.64,5.265,1.818l35.516,29.013
		c6.483,5.134,15.707,4.907,21.931-0.538l29.261-28.39c1.505-1.213,3.375-1.884,5.308-1.903h309.76V452.267z M185.173,401.067
		c-6.078,0.045-11.948,2.219-16.589,6.144l-29.201,28.442l-35.516-28.971c-4.534-3.629-10.167-5.609-15.974-5.615h-53.76v-16.666
		c6.554,0.222,12.527,0.324,18.27,0.324c7.381,0,14.507-0.137,22.366-0.299C84.941,384.23,96.572,384,112.017,384
		c16.605,0.225,33.189-1.25,49.493-4.403c15.321-2.975,30.909-4.359,46.515-4.13c15.597-0.229,31.177,1.155,46.49,4.13
		c16.304,3.154,32.888,4.629,49.493,4.403c16.605,0.224,33.189-1.251,49.493-4.403c15.327-2.976,30.921-4.36,46.532-4.13
		c17.679-0.025,35.326,1.508,52.736,4.582c7.774,1.22,15.829,2.466,25.097,3.319v17.698H185.173z"/>
</g>
<g>
</g>
<g>
</g>
<g>
</g>
<g>
</g>
<g>
</g>
<g>
</g>
<g>
</g>
<g>
</g>
<g>
</g>
<g>
</g>
<g>
</g>
<g>
</g>
<g>
</g>
<g>
</g>
<g>
</g>
</svg>
