<?xml version="1.0" encoding="iso-8859-1"?>
<!-- Generator: Adobe Illustrator 19.0.0, SVG Export Plug-In . SVG Version: 6.00 Build 0)  -->
<svg version="1.1" id="Capa_1" xmlns="http://www.w3.org/2000/svg" xmlns:xlink="http://www.w3.org/1999/xlink" x="0px" y="0px"
	 viewBox="0 0 512 512" style="enable-background:new 0 0 512 512;" xml:space="preserve">
<g>
	<g transform="translate(1 1)">
		<polygon style="fill:#4E342E;" points="485.4,109.933 485.4,127 476.696,203.8 453.4,408.6 442.733,502.467 272.067,502.467 
			261.4,408.6 238.104,203.8 229.4,127 229.4,109.933 		"/>
		<polygon style="fill:#795548;" points="459.8,109.933 459.8,127 451.096,203.8 427.8,408.6 417.133,502.467 272.067,502.467 
			261.4,408.6 238.104,203.8 229.4,127 229.4,109.933 		"/>
		<polygon style="fill:#BFB186;" points="476.696,203.8 453.4,408.6 261.4,408.6 238.104,203.8 		"/>
		<polygon style="fill:#FFECB3;" points="451.267,203.8 427.971,408.6 261.4,408.6 238.104,203.8 		"/>
		<g>
			<path style="fill:#424242;" d="M374.467,50.2V16.067c0-4.713,3.82-8.533,8.533-8.533h11.793c3.231,0.002,6.184,1.828,7.629,4.719
				L417.133,50.2H374.467z"/>
			<path style="fill:#424242;" d="M397.848,306.2c-8.533-31.488-11.349-58.795-35.669-59.648c-0.423-0.071-0.852-0.099-1.28-0.085
				c-25.515,0-46.165,26.709-46.165,59.733s20.651,59.733,46.165,59.733c0.599,0.014,1.197-0.014,1.792-0.085
				C387.352,364.739,406.808,339.48,397.848,306.2z"/>
		</g>
		<path style="fill:#9E9E9E;" d="M362.691,365.848c-0.595,0.071-1.193,0.099-1.792,0.085c-25.515,0-46.165-26.709-46.165-59.733
			s20.651-59.733,46.165-59.733c0.428-0.014,0.857,0.014,1.28,0.085c-1.024,2.219-14.933,34.901-7.339,59.648
			C360.387,324.291,370.627,348.781,362.691,365.848z"/>
		<path style="fill:#2E7D32;" d="M338.712,408.6c-3.904-6.736-8.447-13.08-13.568-18.944c-8.465-9.921-18.567-18.32-29.867-24.832
			c-3.755-14.165-11.776-19.456-23.637-33.024c-3.072-3.499-6.229-16.555-9.557-19.541l-19.285-62.635l-13.312-3.157H229.4
			l-44.117-24.917c-2.762-4.59-5.842-8.981-9.216-13.141v-0.085L152.6,152.6l-43.776-8.533c-5.087-3.258-10.423-6.112-15.957-8.533
			C79.233,130.284,64.804,127.399,50.2,127c-1.109,0.341-10.581-5.547-11.605-5.035l-9.728,10.726l311.467,341.333l9.643-12.433
			C353.021,443.14,348.999,424.218,338.712,408.6z"/>
		<path style="fill:#F44335;" d="M294.168,400.75L192.963,290.414c18.261-8.363,45.909,0.341,69.12,21.845
			c3.377,3.08,6.568,6.356,9.557,9.813c11.017,12.275,19.1,26.894,23.637,42.752C299.138,376.558,298.745,389.276,294.168,400.75z"
			/>
		<path style="fill:#FDD834;" d="M262.083,312.259c-23.211-21.504-50.859-30.208-69.12-21.845l-1.28-1.365
			c11.861-15.275,8.96-42.069-6.4-67.499l56.32,13.227h0.085L255,237.933L262.083,312.259z"/>
		<path style="fill:#2E7D32;" d="M191.683,289.048L88.344,176.237c11.008-8.448,27.392-8.448,44.544-1.451
			c15.4,6.727,29.06,16.884,39.936,29.696c1.109,1.28,2.219,2.56,3.243,3.84v0.085c3.374,4.16,6.454,8.552,9.216,13.141
			C200.643,246.979,203.544,273.773,191.683,289.048z"/>
		<path style="fill:#F44335;" d="M132.888,174.787c-17.152-6.997-33.536-6.997-44.544,1.451l-49.749-54.272
			c1.015-0.514,2.071-0.942,3.157-1.28c14.507-5.205,34.304-0.427,53.077,12.203c4.937,3.372,9.615,7.109,13.995,11.179
			c3.185,2.931,6.204,6.036,9.045,9.301C123.601,159.971,128.634,167.148,132.888,174.787z"/>
		<path style="fill:#FDD834;" d="M176.067,208.323c-1.024-1.28-2.133-2.56-3.243-3.84c-10.876-12.812-24.536-22.969-39.936-29.696
			c-4.254-7.638-9.287-14.816-15.019-21.419c-2.841-3.265-5.861-6.37-9.045-9.301h52.309L176.067,208.323z"/>
		<g>
			<path style="fill:#424242;" d="M459.8,58.733V101.4H255V58.733c0.028-9.414,7.653-17.039,17.067-17.067h170.667
				C452.147,41.695,459.772,49.319,459.8,58.733z"/>
			<path style="fill:#424242;" d="M502.467,101.4v17.067c0,4.713-3.821,8.533-8.533,8.533H220.867c-4.713,0-8.533-3.821-8.533-8.533
				V101.4c0.028-9.414,7.653-17.039,17.067-17.067h256C494.814,84.362,502.439,91.986,502.467,101.4z"/>
		</g>
		<g>
			<path style="fill:#9E9E9E;" d="M434.2,58.733V101.4H229.4V84.333H255v-25.6c0.028-9.414,7.653-17.039,17.067-17.067h145.067
				C426.547,41.695,434.172,49.319,434.2,58.733z"/>
			<path style="fill:#9E9E9E;" d="M476.867,101.4v17.067c0,4.713-3.821,8.533-8.533,8.533H220.867c-4.713,0-8.533-3.821-8.533-8.533
				V101.4c0.028-9.414,7.653-17.039,17.067-17.067h230.4C469.214,84.362,476.839,91.986,476.867,101.4z"/>
		</g>
		<path style="fill:#F57C00;" d="M349.037,502.467H24.429c-9.322-0.023-16.873-7.574-16.896-16.896V109.848
			c0.013-3.477,2.152-6.593,5.392-7.855c3.24-1.262,6.923-0.414,9.285,2.138l16.384,17.835l49.749,54.272l103.339,112.811
			l1.28,1.365L294.168,400.75l55.808,60.843v0.085l11.435,12.459c4.546,4.922,5.75,12.067,3.068,18.207
			C361.797,498.484,355.738,502.456,349.037,502.467z"/>
		<path style="fill:#FF9801;" d="M306.371,502.467H24.429c-9.322-0.023-16.873-7.574-16.896-16.896V134.595l38.144,41.643
			l103.339,112.811l1.28,1.365L251.501,400.75l55.808,60.843v0.085l11.435,12.459c4.546,4.922,5.75,12.067,3.068,18.207
			C319.131,498.484,313.071,502.456,306.371,502.467z"/>
	</g>
	<g>
		<path d="M486.4,76.8h-17.067V59.733c0-14.138-11.462-25.6-25.6-25.6h-20.326L411.059,9.438c-2.87-5.802-8.793-9.464-15.266-9.438
			H384c-9.426,0-17.067,7.641-17.067,17.067v17.067h-93.867c-14.138,0-25.6,11.462-25.6,25.6V76.8H230.4
			c-14.138,0-25.6,11.462-25.6,25.6v17.067c0,9.426,7.641,17.067,17.067,17.067h0.905l9.984,88.166l-41.114-9.66
			c-2.074-3.191-4.267-6.357-6.707-9.463l-14.507-62.438c-0.896-3.861-4.331-6.596-8.294-6.605h-49.033
			c-23.134-20.386-50.475-29.602-71.1-23.535L29.474,99.345c-4.734-5.168-12.171-6.866-18.679-4.267
			C4.276,97.59-0.018,103.862,0,110.848v375.723C0.019,500.607,11.393,511.981,25.429,512h418.304
			c4.338-0.003,7.983-3.259,8.474-7.569l41.805-367.898h0.922c9.426,0,17.067-7.641,17.067-17.067V102.4
			C512,88.262,500.539,76.8,486.4,76.8z M384,17.067h11.793l8.533,17.067H384V17.067z M264.533,59.733
			c0-4.713,3.82-8.533,8.533-8.533h170.667c4.713,0,8.533,3.821,8.533,8.533V76.8H264.533V59.733z M446.78,401.067h-102.4
			c-3.503-5.62-7.428-10.966-11.742-15.991c-8.398-9.748-18.257-18.133-29.227-24.858c-5.014-15.81-13.304-30.386-24.329-42.778
			c-2.56-2.901-5.12-5.606-7.808-8.209l-6.741-71.108c-0.347-3.638-2.972-6.65-6.528-7.492l-7.561-1.792l-1.792-15.505h219.469
			L446.78,401.067z M304.845,399.65c1.562-5.096,2.356-10.397,2.355-15.727c4.483,3.781,8.66,7.91,12.493,12.348
			c4.767,5.447,8.999,11.339,12.638,17.596c4.983,8.379,8.506,17.543,10.419,27.102L304.845,399.65z M167.39,211.064
			c18.415,21.163,26.991,46.583,22.921,63.667l-86.844-94.677c17.519-3.917,44.16,8.388,63.923,31.027V211.064z M257.314,319.531
			l0.111,0.094c3.091,2.86,6.026,5.885,8.789,9.062c10.152,11.328,17.617,24.801,21.837,39.415c1.442,5.09,2.185,10.352,2.21,15.642
			l-79.701-86.921C228.287,298.808,244.794,306.825,257.314,319.531z M240.64,244.053l0.538,0.102l6.895,1.638l4.625,48.427
			c-13.402-9.488-29.438-14.543-45.858-14.455c3.161-15.056,1.488-30.725-4.779-44.774L240.64,244.053z M162.133,182.656
			c-6.858-5.351-14.332-9.86-22.263-13.431c-3.226-5.456-6.833-10.677-10.795-15.625h26.231L162.133,182.656z M112.444,159.949
			c0.708,0.811,1.289,1.707,1.971,2.56c-8.011-0.738-16.077,0.617-23.407,3.934l-35.081-38.255
			c17.152,0.247,39.535,12.314,56.482,31.761H112.444z M273.067,494.934H25.429c-4.619,0-8.363-3.744-8.363-8.363l-0.154-375.637
			l171.273,186.743v0.043l100.591,109.662l0.111,0.128l55.177,60.177c0.196,0.256,0.401,0.512,0.623,0.759l11.443,12.476
			c2.255,2.428,2.859,5.96,1.538,8.999c-1.321,3.039-4.317,5.007-7.631,5.013H273.067z M436.113,494.934h-62.165
			c3.196-8.842,1.169-18.729-5.248-25.6l-8.593-9.387c1.686-14.285-0.618-28.758-6.656-41.813h91.392L436.113,494.934z
			 M470.059,196.267H246.716l-6.758-59.733h236.885L470.059,196.267z M221.867,119.467V102.4c0-4.713,3.821-8.533,8.533-8.533h256
			c4.713,0,8.533,3.821,8.533,8.533v17.067H221.867z"/>
		<path d="M407.04,304.973c-1.186-4.42-2.27-8.755-3.319-12.945c-6.656-26.684-13.013-51.849-39.97-52.983
			c-0.273,0-0.529-0.051-0.802-0.051c-0.273,0-0.674-0.06-1.05-0.06c-30.157,0-54.699,30.626-54.699,68.267
			s24.542,68.267,54.699,68.267c0.486,0,0.964-0.068,1.442-0.085c0.128,0,0.256,0.085,0.384,0.085
			c0.428-0.026,0.853-0.086,1.271-0.179c13.358-0.902,25.666-7.559,33.732-18.244C409.48,341.937,412.554,322.675,407.04,304.973z
			 M324.267,307.2c0-22.656,10.88-41.89,25.899-48.64c-5.553,16.481-6.407,34.184-2.466,51.123c0.785,2.56,1.655,5.214,2.56,7.97
			c4.267,13.022,9.387,28.766,7.296,40.354C338.85,355.089,324.267,333.432,324.267,307.2z M385.178,346.667
			c-2.719,3.567-6.2,6.482-10.189,8.533c-0.288-14.669-3.177-29.17-8.533-42.829c-0.853-2.662-1.707-5.231-2.458-7.68
			c-4.966-16.154,0.853-37.086,4.506-47.411c8.823,3.465,12.706,15.027,18.662,38.878c1.067,4.267,2.176,8.738,3.413,13.269
			C394.664,322.005,392.668,335.768,385.178,346.667z"/>
		<path d="M45.167,448.734l-6.033,6.033c-2.218,2.143-3.108,5.315-2.327,8.299c0.781,2.983,3.111,5.314,6.094,6.094
			c2.984,0.781,6.156-0.109,8.299-2.327l6.033-6.033c3.234-3.348,3.188-8.671-0.104-11.962
			C53.838,445.546,48.515,445.5,45.167,448.734z"/>
		<path d="M126.754,391.288c3.334-3.334,3.334-8.74,0-12.075c-3.334-3.334-8.74-3.334-12.075,0l-6.033,6.033
			c-2.157,2.155-3,5.298-2.212,8.243c0.788,2.946,3.088,5.247,6.033,6.037c2.945,0.79,6.088-0.051,8.245-2.206L126.754,391.288z"/>
		<path d="M51.2,369.434l-6.033,6.033c-2.218,2.143-3.108,5.315-2.327,8.299c0.781,2.983,3.111,5.313,6.094,6.094
			c2.984,0.781,6.156-0.109,8.299-2.327l6.033-6.033c3.234-3.348,3.188-8.671-0.104-11.962
			C59.871,366.246,54.548,366.2,51.2,369.434z"/>
		<path d="M51.2,309.7l-6.033,6.033c-2.218,2.143-3.108,5.315-2.327,8.299s3.111,5.313,6.094,6.094
			c2.984,0.781,6.156-0.109,8.299-2.327l6.033-6.033c3.234-3.348,3.188-8.671-0.104-11.962
			C59.871,306.513,54.548,306.467,51.2,309.7z"/>
		<path d="M128,448.734l-6.033,6.033c-2.218,2.143-3.108,5.315-2.327,8.299c0.781,2.983,3.111,5.314,6.094,6.094
			c2.984,0.781,6.156-0.109,8.299-2.327l6.033-6.033c3.234-3.348,3.188-8.671-0.104-11.962
			C136.671,445.546,131.348,445.5,128,448.734z"/>
		<path d="M190.234,448.734l-6.033,6.033c-2.218,2.143-3.108,5.315-2.327,8.299c0.781,2.983,3.111,5.314,6.094,6.094
			c2.984,0.781,6.156-0.109,8.299-2.327l6.033-6.033c3.234-3.348,3.188-8.671-0.104-11.962
			C198.904,445.546,193.582,445.5,190.234,448.734z"/>
	</g>
</g>
<g>
</g>
<g>
</g>
<g>
</g>
<g>
</g>
<g>
</g>
<g>
</g>
<g>
</g>
<g>
</g>
<g>
</g>
<g>
</g>
<g>
</g>
<g>
</g>
<g>
</g>
<g>
</g>
<g>
</g>
</svg>
