<?xml version="1.0" encoding="iso-8859-1"?>
<!-- Generator: Adobe Illustrator 19.0.0, SVG Export Plug-In . SVG Version: 6.00 Build 0)  -->
<svg version="1.1" id="Capa_1" xmlns="http://www.w3.org/2000/svg" xmlns:xlink="http://www.w3.org/1999/xlink" x="0px" y="0px"
	 viewBox="0 0 512 512" style="enable-background:new 0 0 512 512;" xml:space="preserve">
<g>
	<g transform="translate(1 1)">
		<path style="fill:#BFB186;" d="M126.829,75.786c0,14.138-11.462,25.6-25.6,25.6v47.36H75.8v-47.36
			c11.582-0.026,21.704-7.825,24.683-19.018c2.978-11.193-1.93-22.991-11.968-28.769c3.85-2.269,8.245-3.449,12.715-3.413
			C115.368,50.186,126.829,61.648,126.829,75.786z"/>
		<path style="fill:#F57C00;" d="M143.725,229.387H16.067c1.28-37.205,18.688-68.352,42.496-80.128
			c2.695-1.44,5.562-2.53,8.533-3.243c0.085-0.171,0.085-0.171,0.085,0c4.103-1.342,8.398-2.005,12.715-1.963
			c7.425,0.001,14.742,1.786,21.333,5.205c12.916,6.953,23.353,17.748,29.867,30.891
			C138.974,195.396,143.292,212.23,143.725,229.387z"/>
		<path style="fill:#BFB186;" d="M254.829,75.786c0,14.138-11.462,25.6-25.6,25.6v47.36H203.8v-47.36
			c11.582-0.026,21.704-7.825,24.683-19.018s-1.93-22.991-11.968-28.769c3.85-2.269,8.245-3.449,12.715-3.413
			C243.368,50.186,254.829,61.648,254.829,75.786z"/>
		<g>
			<path style="fill:#FFECB3;" d="M101.4,75.786c0,14.138-11.462,25.6-25.6,25.6v47.36H58.563v-47.36
				c-14.138,0-25.6-11.462-25.6-25.6s11.462-25.6,25.6-25.6c2.943-0.026,5.866,0.495,8.619,1.536
				c5.209,1.817,9.676,5.295,12.715,9.899c2.195-3.321,5.149-6.07,8.619-8.021C96.498,58.129,101.422,66.608,101.4,75.786z"/>
			<path style="fill:#FFECB3;" d="M229.4,75.786c0,14.138-11.462,25.6-25.6,25.6v47.36h-17.237v-47.36
				c-14.138,0-25.6-11.462-25.6-25.6s11.462-25.6,25.6-25.6c2.943-0.026,5.866,0.495,8.619,1.536
				c5.209,1.817,9.676,5.295,12.715,9.899c2.195-3.321,5.149-6.07,8.619-8.021C224.498,58.129,229.422,66.608,229.4,75.786z"/>
		</g>
		<path style="fill:#F57C00;" d="M271.725,229.387H144.067c1.28-37.205,18.688-68.352,42.496-80.128
			c2.695-1.44,5.562-2.53,8.533-3.243c4.132-1.343,8.455-2.005,12.8-1.963c7.425,0.001,14.742,1.786,21.333,5.205
			C253.037,161.035,270.445,192.181,271.725,229.387z"/>
		<g>
			<path style="fill:#FF9801;" d="M118.125,229.387H16.067c1.28-37.205,18.688-68.352,42.496-80.128
				c2.695-1.44,5.562-2.53,8.533-3.243c0.085-0.171,0.085-0.171,0.085,0c2.932,0.751,5.767,1.839,8.448,3.243
				C99.437,161.035,116.845,192.181,118.125,229.387z"/>
			<path style="fill:#FF9801;" d="M246.125,229.387H144.067c1.28-37.205,18.688-68.352,42.496-80.128
				c2.695-1.44,5.562-2.53,8.533-3.243c2.971,0.713,5.839,1.802,8.533,3.243C227.437,161.035,244.845,192.181,246.125,229.387z"/>
		</g>
		<path style="fill:#FFB301;" d="M468.333,144.053h-42.667v-42.667c0-4.713-3.82-8.533-8.533-8.533h-42.667V84.32
			c0-4.713-3.82-8.533-8.533-8.533H331.8c-4.713,0-8.533,3.821-8.533,8.533v25.6H280.6c-4.713,0-8.533,3.821-8.533,8.533V237.92
			h204.8v-85.333C476.867,147.874,473.046,144.053,468.333,144.053z"/>
		<g>
			<path style="fill:#FDD834;" d="M331.8,75.786h34.133c4.713,0,8.533,3.821,8.533,8.533v136.533h-51.2V84.32
				C323.267,79.607,327.087,75.786,331.8,75.786z"/>
			<path style="fill:#FDD834;" d="M425.667,144.053h42.667c4.713,0,8.533,3.821,8.533,8.533v68.267h-51.2V144.053z"/>
		</g>
		<path style="fill:#F44335;" d="M493.933,220.853H16.067c-4.713,0-8.533,3.821-8.533,8.533v204.8c0,14.138,11.462,25.6,25.6,25.6
			h443.733c14.138,0,25.6-11.462,25.6-25.6v-204.8C502.467,224.674,498.646,220.853,493.933,220.853z"/>
		<path style="fill:#C52828;" d="M92.867,220.853v238.933H33.133c-14.138,0-25.6-11.462-25.6-25.6v-204.8
			c0-4.713,3.821-8.533,8.533-8.533H92.867z"/>
		<path style="fill:#F44335;" d="M67.267,220.853v238.933H33.133c-14.138,0-25.6-11.462-25.6-25.6v-204.8
			c0-4.713,3.821-8.533,8.533-8.533H67.267z"/>
		<g>
			<rect x="92.867" y="220.853" style="fill:#CFD8DC;" width="85.333" height="238.933"/>
			<rect x="331.8" y="220.853" style="fill:#CFD8DC;" width="85.333" height="238.933"/>
		</g>
		<rect x="331.8" y="220.853" style="fill:#F4F4F4;" width="59.733" height="238.933"/>
		<path style="fill:#C52828;" d="M502.467,229.387v204.8c0,14.138-11.462,25.6-25.6,25.6h-59.733V220.853h76.8
			C498.646,220.853,502.467,224.674,502.467,229.387z"/>
		<path style="fill:#F44335;" d="M476.867,229.387v204.8c0,14.138-11.462,25.6-25.6,25.6h-34.133V220.853h51.2
			C473.046,220.853,476.867,224.674,476.867,229.387z"/>
		<rect x="306.2" y="220.853" style="fill:#C52828;" width="25.6" height="238.933"/>
	</g>
	<path d="M494.933,213.32H486.4v-59.733c0-9.426-7.641-17.067-17.067-17.067H435.2v-34.133c0-9.426-7.641-17.067-17.067-17.067H384
		c0-9.426-7.641-17.067-17.067-17.067H332.8c-9.426,0-17.067,7.641-17.067,17.067v17.067H281.6c-9.426,0-17.067,7.641-17.067,17.067
		v49.365c-6.559-9.96-15.392-18.217-25.771-24.09v-34.884c13.46-3.506,23.446-14.829,25.242-28.621
		c1.797-13.792-4.955-27.295-17.067-34.133s-27.162-5.643-38.042,3.021c-10.881-8.664-25.93-9.859-38.042-3.021
		c-12.112,6.838-18.864,20.341-17.067,34.133c1.797,13.792,11.783,25.115,25.242,28.621v34.893
		c-15.387,8.895-27.39,22.639-34.133,39.083c-6.728-16.455-18.735-30.207-34.133-39.091v-34.884
		c13.46-3.506,23.446-14.829,25.242-28.621c1.797-13.792-4.955-27.295-17.067-34.133s-27.162-5.643-38.042,3.021
		c-10.881-8.664-25.93-9.859-38.042-3.021S23.99,67.431,25.787,81.223c1.797,13.792,11.783,25.115,25.242,28.621v34.893
		c-24.638,15.306-40.268,41.662-41.882,70.622C3.553,218.29,0.034,224.071,0,230.387v204.8c0,18.851,15.282,34.133,34.133,34.133
		h443.733c18.851,0,34.133-15.282,34.133-34.133v-204.8C512,220.961,504.359,213.32,494.933,213.32z M469.333,153.587v59.733H435.2
		v-59.733H469.333z M170.667,230.387v221.867H102.4V230.387H170.667z M187.733,230.387h136.533v221.867H187.733V230.387z
		 M341.333,230.387H409.6v221.867h-68.267V230.387z M418.133,102.386V213.32H384V102.386H418.133z M332.8,85.32h34.133v128H332.8
		V85.32z M281.6,119.453h34.133v93.867H281.6V119.453z M170.496,76.786c0-9.426,7.641-17.067,17.067-17.067
		c5.735-0.042,11.098,2.836,14.234,7.637c1.674,2.238,4.305,3.556,7.1,3.556c2.795,0,5.426-1.318,7.1-3.556
		c3.136-4.802,8.499-7.679,14.234-7.637c9.426,0,17.067,7.641,17.067,17.067s-7.641,17.067-17.067,17.067
		c-4.713,0-8.533,3.821-8.533,8.533v35.558c-8.434-1.839-17.166-1.839-25.6,0v-35.558c0-4.713-3.821-8.533-8.533-8.533
		C178.137,93.853,170.496,86.212,170.496,76.786z M191.147,157.495c11.305-5.222,24.334-5.206,35.627,0.043
		c19.089,8.491,33.067,30.302,36.565,55.782H154.453C157.961,187.839,171.955,166.02,191.147,157.495z M42.496,76.786
		c0-9.426,7.641-17.067,17.067-17.067c5.735-0.042,11.098,2.836,14.234,7.637c1.674,2.238,4.305,3.556,7.1,3.556
		s5.426-1.318,7.1-3.556c3.136-4.802,8.499-7.679,14.234-7.637c9.426,0,17.067,7.641,17.067,17.067s-7.641,17.067-17.067,17.067
		c-4.713,0-8.533,3.821-8.533,8.533v35.558c-8.434-1.839-17.166-1.839-25.6,0v-35.558c0-4.713-3.821-8.533-8.533-8.533
		C50.137,93.853,42.496,86.212,42.496,76.786z M63.147,157.495c11.305-5.222,24.334-5.206,35.627,0.043
		c19.089,8.491,33.067,30.302,36.565,55.782H26.453C29.961,187.839,43.955,166.02,63.147,157.495z M17.067,435.187v-204.8h68.267
		v221.867h-51.2C24.708,452.253,17.067,444.612,17.067,435.187z M494.933,435.187c0,9.426-7.641,17.067-17.067,17.067h-51.2V230.387
		h68.267V435.187z"/>
</g>
<g>
</g>
<g>
</g>
<g>
</g>
<g>
</g>
<g>
</g>
<g>
</g>
<g>
</g>
<g>
</g>
<g>
</g>
<g>
</g>
<g>
</g>
<g>
</g>
<g>
</g>
<g>
</g>
<g>
</g>
</svg>
