<?xml version="1.0" encoding="iso-8859-1"?>
<!-- Generator: Adobe Illustrator 19.0.0, SVG Export Plug-In . SVG Version: 6.00 Build 0)  -->
<svg version="1.1" id="Capa_1" xmlns="http://www.w3.org/2000/svg" xmlns:xlink="http://www.w3.org/1999/xlink" x="0px" y="0px"
	 viewBox="0 0 512.115 512.115" style="enable-background:new 0 0 512.115 512.115;" xml:space="preserve">
<g transform="translate(-1)">
	<g transform="translate(7)">
		<path style="fill:#FFB301;" d="M412.246,145.116v25.6H301.313v-25.6c-0.195-11.869-4.509-23.301-12.203-32.341
			c-9.364-11.042-21.288-19.626-34.731-25.003c13.46-5.699,27.753-9.186,42.325-10.325c4.267-0.427,8.704-0.597,13.141-0.597
			c19.038-0.159,37.91,3.557,55.467,10.923c13.443,5.376,25.367,13.96,34.731,25.003
			C407.737,121.815,412.051,133.247,412.246,145.116z"/>
		<path style="fill:#795548;" d="M117.59,103.559L48.538,35.036c-1.593-1.58-2.488-3.73-2.488-5.973s0.896-4.394,2.488-5.973
			l12.083-12.023c3.332-3.331,8.734-3.331,12.066,0l75.452,74.88L117.59,103.559z"/>
		<path style="fill:#FFB301;" d="M301.313,145.116v25.6h-25.6v-25.6c-0.195-11.869-4.509-23.301-12.203-32.341
			c-6.149-7.429-13.576-13.7-21.931-18.517c-4.106-2.466-8.383-4.633-12.8-6.485c-13.67-5.787-28.201-9.275-43.008-10.325
			c4.267-0.427,8.704-0.597,13.141-0.597c14.425-0.065,28.779,2.035,42.581,6.229c4.385,1.306,8.688,2.873,12.885,4.693
			c13.443,5.376,25.367,13.96,34.731,25.003C296.804,121.815,301.117,133.247,301.313,145.116z"/>
		<g>
			<path style="fill:#FEC108;" d="M386.646,145.116v25.6h-85.333v-25.6c-0.195-11.869-4.509-23.301-12.203-32.341
				c-9.364-11.042-21.288-19.626-34.731-25.003c13.46-5.699,27.753-9.186,42.325-10.325c14.807,1.05,29.338,4.539,43.008,10.325
				c13.443,5.376,25.367,13.96,34.731,25.003C382.137,121.815,386.451,133.247,386.646,145.116z"/>
			<path style="fill:#FEC108;" d="M275.713,145.116v25.6h-179.2v-25.6c0-34.731,38.912-63.403,89.259-67.669
				c14.807,1.05,29.338,4.539,43.008,10.325c4.417,1.852,8.694,4.019,12.8,6.485c8.355,4.817,15.782,11.088,21.931,18.517
				C271.204,121.815,275.517,133.247,275.713,145.116z"/>
		</g>
		<polygon style="fill:#1566C0;" points="429.313,145.116 389.633,358.45 386.476,375.516 362.668,503.516 137.558,503.516 
			113.75,375.516 110.593,358.45 70.913,145.116 		"/>
		<polygon style="fill:#2296F3;" points="403.713,145.116 364.033,358.45 360.876,375.516 337.068,503.516 137.558,503.516 
			113.75,375.516 110.593,358.45 70.913,145.116 		"/>
		<g>
			<path style="fill:#FF9801;" d="M267.18,145.116H130.646c0-13.909,26.624-34.133,68.267-34.133S267.18,131.207,267.18,145.116z"/>
			<path style="fill:#FF9801;" d="M378.113,145.116h-76.8c-0.195-11.869-4.509-23.301-12.203-32.341
				c6.848-1.191,13.785-1.791,20.736-1.792C351.489,110.983,378.113,131.207,378.113,145.116z"/>
		</g>
		<path style="fill:#CFD8DC;" d="M430.337,145.116l-62.208,102.827c-2.993,5.021-8.405,8.1-14.251,8.107H146.177
			c-5.84-0.027-11.243-3.101-14.251-8.107L69.718,145.116H430.337z"/>
		<path style="fill:#F4F4F4;" d="M405.931,145.116l-62.208,102.827c-2.993,5.021-8.405,8.1-14.251,8.107H146.177
			c-5.84-0.027-11.243-3.101-14.251-8.107L69.718,145.116H405.931z"/>
		<path style="fill:#FFB301;" d="M318.38,366.983c0,37.703-30.564,68.267-68.267,68.267c-4.294-0.005-8.579-0.405-12.8-1.195
			c-32.225-6.109-55.551-34.273-55.551-67.072s23.326-60.963,55.551-67.072c4.221-0.79,8.506-1.19,12.8-1.195
			C287.815,298.716,318.38,329.28,318.38,366.983z"/>
		<ellipse style="fill:#FEC108;" cx="237.313" cy="366.983" rx="55.467" ry="67.072"/>
	</g>
	<g>
		<path d="M504.58,494.983h-25.6c-4.713,0-8.533,3.82-8.533,8.533s3.82,8.533,8.533,8.533h25.6c4.713,0,8.533-3.821,8.533-8.533
			S509.292,494.983,504.58,494.983z"/>
		<path d="M9.646,494.983c-4.713,0-8.533,3.82-8.533,8.533s3.821,8.533,8.533,8.533h435.2c4.713,0,8.533-3.821,8.533-8.533
			s-3.82-8.533-8.533-8.533h-64.947l60.954-327.612l56.431,93.107c1.582,2.607,4.435,4.171,7.483,4.104
			c3.048-0.067,5.83-1.755,7.296-4.429c1.466-2.674,1.395-5.926-0.187-8.533l-67.234-110.933c-1.548-2.549-4.314-4.105-7.296-4.105
			c-0.222,0-0.427,0.068-0.649,0.085c-0.222,0.017-0.247-0.085-0.384-0.085h-9.259c-6.161-38.34-53.205-68.267-110.208-68.267
			c-18.979-0.071-37.799,3.453-55.467,10.385c-17.66-6.957-36.486-10.482-55.467-10.385c-16.493-0.045-32.882,2.603-48.521,7.842
			L85.695,4.999c-6.682-6.579-17.407-6.579-24.09,0L49.522,16.997c-3.212,3.185-5.018,7.521-5.018,12.045s1.807,8.859,5.018,12.045
			l63.147,62.626c-8.804,9.022-14.711,20.468-16.964,32.87H77.913c-0.154,0-0.282,0.085-0.435,0.094s-0.486-0.094-0.742-0.094
			c-2.984,0.001-5.75,1.561-7.296,4.113L2.35,251.629c-1.674,2.61-1.8,5.923-0.33,8.652s4.305,4.448,7.406,4.487
			s5.978-1.607,7.516-4.299l56.405-93.252l60.979,327.765H9.646z M333.409,358.45c-4.46-38.763-37.278-68.021-76.297-68.021
			c-39.019,0-71.836,29.258-76.297,68.021H126.28L95.398,192.468l36.215,59.878c4.575,7.555,12.748,12.19,21.581,12.237h207.684
			c8.835-0.047,17.01-4.681,21.589-12.237l36.42-60.228L387.946,358.45H333.409z M316.846,366.983
			c0,32.99-26.744,59.733-59.733,59.733s-59.733-26.744-59.733-59.733s26.744-59.733,59.733-59.733
			C290.087,307.287,316.809,334.009,316.846,366.983z M422.207,153.65l-54.34,89.865c-1.46,2.474-4.116,3.995-6.989,4.002H153.194
			c-2.882,0.003-5.551-1.519-7.014-4.002L91.865,153.65H422.207z M151.496,136.583c15.462-12.112,34.807-18.179,54.417-17.067
			c19.61-1.113,38.955,4.954,54.417,17.067H151.496z M316.121,136.583c-0.987-5.854-2.875-11.519-5.598-16.794
			c2.108-0.119,4.224-0.273,6.323-0.273c19.61-1.113,38.955,4.954,54.417,17.067H316.121z M316.846,85.383
			c47.198,0,86.255,22.298,92.8,51.2h-17.869c-7.287-17.493-36.002-34.133-74.931-34.133c-5.888,0.042-11.767,0.483-17.596,1.323
			c-4.982-5.321-10.579-10.031-16.674-14.029C293.773,86.868,305.286,85.403,316.846,85.383z M73.646,17.116l66.688,66.185
			c-5.204,2.63-10.189,5.672-14.908,9.097L61.554,29.106L73.646,17.116z M157.597,93.984c0.434-0.126,0.857-0.288,1.263-0.486
			c15.083-5.457,31.013-8.204,47.053-8.115c17.73-0.143,35.313,3.234,51.729,9.933c0.374,0.2,0.765,0.365,1.169,0.495
			c11.539,4.737,21.828,12.076,30.063,21.444c0.085,0.137,0.196,0.239,0.29,0.375c4.618,5.486,7.889,11.976,9.549,18.953h-17.869
			c-7.287-17.493-36.002-34.133-74.931-34.133s-67.644,16.64-74.931,34.133h-17.869c4.096-18.082,20.907-33.527,44.51-42.598
			H157.597z M129.454,375.516h51.362c4.46,38.763,37.278,68.021,76.297,68.021c39.019,0,71.836-29.258,76.297-68.021h51.362
			l-22.229,119.467H151.684L129.454,375.516z"/>
	</g>
</g>
<g>
</g>
<g>
</g>
<g>
</g>
<g>
</g>
<g>
</g>
<g>
</g>
<g>
</g>
<g>
</g>
<g>
</g>
<g>
</g>
<g>
</g>
<g>
</g>
<g>
</g>
<g>
</g>
<g>
</g>
</svg>
