<?xml version="1.0" encoding="iso-8859-1"?>
<!-- Generator: Adobe Illustrator 19.0.0, SVG Export Plug-In . SVG Version: 6.00 Build 0)  -->
<svg version="1.1" id="Capa_1" xmlns="http://www.w3.org/2000/svg" xmlns:xlink="http://www.w3.org/1999/xlink" x="0px" y="0px"
	 viewBox="0 0 511.959 511.959" style="enable-background:new 0 0 511.959 511.959;" xml:space="preserve">
<g>
	<g transform="translate(1 1)">
		<path style="fill:#F57C00;" d="M502.426,242.18v153.6c0,15.842-6.293,31.036-17.495,42.238
			c-11.202,11.202-26.396,17.495-42.238,17.495h-51.2c-15.842,0-31.036-6.293-42.238-17.495
			c-11.202-11.202-17.495-26.396-17.495-42.238v-153.6c0.028-9.414,7.653-17.039,17.067-17.067h136.533
			C494.773,225.141,502.398,232.766,502.426,242.18z"/>
		<path style="fill:#FF9801;" d="M476.826,242.18v153.6c0,15.842-6.293,31.036-17.495,42.238
			c-11.202,11.202-26.396,17.495-42.238,17.495h-25.6c-15.842,0-31.036-6.293-42.238-17.495
			c-11.202-11.202-17.495-26.396-17.495-42.238v-153.6c0.028-9.414,7.653-17.039,17.067-17.067h110.933
			C469.173,225.141,476.798,232.766,476.826,242.18z"/>
		<rect x="348.826" y="182.446" style="fill:#D84315;" width="136.533" height="51.2"/>
		<rect x="348.826" y="182.446" style="fill:#FF5722;" width="110.933" height="51.2"/>
		<path style="fill:#FDD834;" d="M280.559,182.446c0-14.138-11.461-25.6-25.6-25.6c14.139,0,25.6-11.462,25.6-25.6
			s-11.461-25.6-25.6-25.6h-204.8c-14.138,0-25.6,11.462-25.6,25.6s11.462,25.6,25.6,25.6c-14.138,0-25.6,11.462-25.6,25.6
			s11.462,25.6,25.6,25.6c-14.138,0-25.6,11.462-25.6,25.6c0,14.139,11.462,25.6,25.6,25.6c-14.138,0-25.6,11.461-25.6,25.6
			c0,14.139,11.462,25.6,25.6,25.6c-14.138,0-25.6,11.462-25.6,25.6s11.462,25.6,25.6,25.6c-14.138,0-25.6,11.462-25.6,25.6
			c0,14.138,11.462,25.6,25.6,25.6v25.6h204.8v-25.6c14.139,0,25.6-11.462,25.6-25.6c0-14.138-11.461-25.6-25.6-25.6
			c14.139,0,25.6-11.462,25.6-25.6s-11.461-25.6-25.6-25.6c14.139,0,25.6-11.461,25.6-25.6c0-14.138-11.461-25.6-25.6-25.6
			c14.139,0,25.6-11.462,25.6-25.6c0-14.138-11.461-25.6-25.6-25.6C269.098,208.046,280.559,196.585,280.559,182.446z"/>
		<path style="fill:#FFEB3A;" d="M254.959,182.446c0-14.138-11.462-25.6-25.6-25.6c14.138,0,25.6-11.462,25.6-25.6
			s-11.462-25.6-25.6-25.6h-179.2c-14.138,0-25.6,11.462-25.6,25.6s11.462,25.6,25.6,25.6c-14.138,0-25.6,11.462-25.6,25.6
			s11.462,25.6,25.6,25.6c-14.138,0-25.6,11.462-25.6,25.6c0,14.139,11.462,25.6,25.6,25.6c-14.138,0-25.6,11.461-25.6,25.6
			c0,14.139,11.462,25.6,25.6,25.6c-14.138,0-25.6,11.462-25.6,25.6s11.462,25.6,25.6,25.6c-14.138,0-25.6,11.462-25.6,25.6
			c0,14.138,11.462,25.6,25.6,25.6v25.6h179.2v-25.6c14.138,0,25.6-11.462,25.6-25.6c0-14.138-11.462-25.6-25.6-25.6
			c14.138,0,25.6-11.462,25.6-25.6s-11.462-25.6-25.6-25.6c14.138,0,25.6-11.461,25.6-25.6c0-14.138-11.462-25.6-25.6-25.6
			c14.138,0,25.6-11.462,25.6-25.6c0-14.138-11.462-25.6-25.6-25.6C243.498,208.046,254.959,196.585,254.959,182.446z"/>
		<g>
			<path style="fill:#FFB301;" d="M280.559,387.246c0,14.138-11.461,25.6-25.6,25.6h-204.8c-14.138,0-25.6-11.462-25.6-25.6
				c0-14.138,11.462-25.6,25.6-25.6h204.8C269.098,361.646,280.559,373.108,280.559,387.246z"/>
			<path style="fill:#FFB301;" d="M280.559,284.846c0,14.139-11.461,25.6-25.6,25.6h-204.8c-14.138,0-25.6-11.461-25.6-25.6
				c0-14.138,11.462-25.6,25.6-25.6h119.467c-0.034,4.13,1.49,8.121,4.267,11.179c0.256,0.256,0.512,0.597,0.768,0.853
				c3.161,3.241,7.504,5.059,12.032,5.035c9.414-0.028,17.039-7.653,17.067-17.067h51.2
				C269.098,259.246,280.559,270.708,280.559,284.846z"/>
			<path style="fill:#FFB301;" d="M280.559,182.446c0,14.138-11.461,25.6-25.6,25.6h-51.2v-51.2h51.2
				C269.098,156.846,280.559,168.308,280.559,182.446z"/>
		</g>
		<path style="fill:#37474F;" d="M295.919,430.681c-9.334,15.398-26.025,24.812-44.032,24.832H53.231
			c-18.007-0.02-34.698-9.434-44.032-24.832c-1.123-1.821-1.714-3.919-1.707-6.059c-0.009-3.126,1.229-6.127,3.439-8.337
			s5.211-3.448,8.337-3.439H285.85c4.237,0.01,8.143,2.296,10.226,5.986C298.159,422.523,298.1,427.047,295.919,430.681z"/>
		<path style="fill:#607D8B;" d="M270.319,430.681c-9.334,15.398-26.025,24.812-44.032,24.832H53.231
			c-18.007-0.02-34.698-9.434-44.032-24.832c-1.123-1.821-1.714-3.919-1.707-6.059c-0.009-3.126,1.229-6.127,3.439-8.337
			s5.211-3.448,8.337-3.439H260.25c4.237,0.01,8.143,2.296,10.226,5.986C272.559,422.523,272.5,427.047,270.319,430.681z"/>
		<g>
			<path style="fill:#FFB301;" d="M135.493,54.446h34.133c4.713,0,8.533,3.821,8.533,8.533v59.733h-51.2V62.98
				C126.959,58.267,130.78,54.446,135.493,54.446z"/>
			<path style="fill:#FFB301;" d="M203.759,105.646v153.6c-0.028,9.414-7.653,17.039-17.067,17.067
				c-9.397-0.07-16.997-7.67-17.067-17.067v-102.4c0.024-4.528-1.793-8.871-5.035-12.032c-2.495-2.52-5.719-4.192-9.216-4.779
				c-0.929-0.17-1.872-0.255-2.816-0.256c-9.414,0.028-17.039,7.653-17.067,17.067c-0.001,7.042-4.345,13.355-10.923,15.872
				c-6.278,2.505-13.447,0.99-18.176-3.84c-0.912-0.866-1.714-1.84-2.389-2.901c-1.742-2.726-2.66-5.896-2.645-9.131l0-51.2H203.759
				z"/>
			<path style="fill:#FFB301;" d="M169.626,156.846v51.2H50.159c-14.138,0-25.6-11.462-25.6-25.6s11.462-25.6,25.6-25.6h51.2
				c-0.034,4.13,1.49,8.121,4.267,11.179c0.256,0.256,0.512,0.597,0.768,0.853c3.161,3.241,7.504,5.059,12.032,5.035
				c9.414-0.028,17.039-7.653,17.067-17.067H169.626z"/>
		</g>
		<g>
			<path style="fill:#FEC108;" d="M254.959,387.246c0,14.138-11.462,25.6-25.6,25.6h-179.2c-14.138,0-25.6-11.462-25.6-25.6
				c0-14.138,11.462-25.6,25.6-25.6h179.2C243.498,361.646,254.959,373.108,254.959,387.246z"/>
			<path style="fill:#FEC108;" d="M254.959,284.846c0,14.139-11.462,25.6-25.6,25.6h-179.2c-14.138,0-25.6-11.461-25.6-25.6
				c0-14.138,11.462-25.6,25.6-25.6h93.867c0.07,9.397,7.67,16.997,17.067,17.067c4.921-0.001,9.597-2.151,12.8-5.888
				c2.777-3.057,4.3-7.049,4.267-11.179h51.2C243.498,259.246,254.959,270.708,254.959,284.846z"/>
			<path style="fill:#FEC108;" d="M254.959,182.446c0.117,6.388-1.623,12.673-5.009,18.091c-2.494,4.378-7.029,7.202-12.058,7.509
				h-34.133v-51.2h34.133C247.339,156.846,254.959,168.281,254.959,182.446z"/>
			<path style="fill:#FEC108;" d="M169.626,156.846v51.2H55.646c-17.203,0-31.087-11.435-31.087-25.6
				c0.155-7.098,3.508-13.746,9.122-18.091c6.239-4.957,13.997-7.609,21.965-7.509h31.087c0.067,4.735,2.316,9.175,6.093,12.032
				c8.944,7.022,21.624,6.663,30.157-0.853c3.26-2.805,5.154-6.878,5.197-11.179H169.626z"/>
		</g>
		<path style="fill:#FFE0B2;" d="M374.426,276.313h85.333c4.713,0,8.533,3.821,8.533,8.533v42.667c0,4.713-3.82,8.533-8.533,8.533
			h-85.333c-4.713,0-8.533-3.82-8.533-8.533v-42.667C365.893,280.134,369.713,276.313,374.426,276.313z"/>
		<path style="fill:#FFECB3;" d="M374.426,276.313h59.733c4.713,0,8.533,3.821,8.533,8.533v42.667c0,4.713-3.821,8.533-8.533,8.533
			h-59.733c-4.713,0-8.533-3.82-8.533-8.533v-42.667C365.893,280.134,369.713,276.313,374.426,276.313z"/>
		<path style="fill:#F57C00;" d="M485.359,173.913v17.067H348.826v-17.067c0.028-9.414,7.653-17.039,17.067-17.067h102.4
			C477.707,156.874,485.331,164.499,485.359,173.913z"/>
		<path style="fill:#FF9801;" d="M459.759,173.913v17.067H348.826v-17.067c0.028-9.414,7.653-17.039,17.067-17.067h76.8
			C452.107,156.874,459.731,164.499,459.759,173.913z"/>
		<polygon style="fill:#FFB301;" points="152.559,105.646 135.493,105.646 152.559,54.446 169.626,54.446 		"/>
	</g>
	<g>
		<path d="M54.231,465.046h198.656c21.005-0.059,40.463-11.052,51.354-29.013c3.751-6.273,3.841-14.078,0.235-20.435
			c-3.606-6.357-10.351-10.286-17.66-10.285h-1.468c8.395-14.033,5.414-32.079-7.049-42.667c7.487-6.397,11.798-15.752,11.798-25.6
			s-4.311-19.203-11.798-25.6c0.589-0.512,1.237-0.922,1.792-1.476c6.706-6.657,10.325-15.813,9.983-25.256
			c-0.342-9.443-4.614-18.313-11.784-24.468c0.589-0.512,1.237-0.922,1.792-1.476c6.707-6.656,10.328-15.811,9.988-25.254
			c-0.34-9.443-4.611-18.314-11.78-24.47c0.589-0.512,1.237-0.922,1.792-1.476c6.707-6.656,10.328-15.811,9.988-25.254
			c-0.34-9.443-4.611-18.314-11.78-24.47c0.589-0.512,1.237-0.922,1.792-1.476c9.752-9.762,12.667-24.434,7.388-37.183
			c-5.279-12.748-17.714-21.065-31.512-21.074h-68.267V63.98c0-9.426-7.641-17.067-17.067-17.067h-34.133
			c-9.426,0-17.067,7.641-17.067,17.067v34.133H51.159c-14.232-0.06-26.994,8.755-31.978,22.086s-1.134,28.356,9.647,37.648
			c-0.589,0.512-1.237,0.922-1.792,1.476c-6.707,6.656-10.328,15.811-9.988,25.254s4.611,18.314,11.78,24.47
			c-0.589,0.512-1.237,0.922-1.792,1.476c-6.707,6.656-10.328,15.811-9.988,25.254s4.611,18.314,11.78,24.47
			c-0.589,0.512-1.237,0.922-1.792,1.476c-6.706,6.656-10.326,15.81-9.988,25.252c0.339,9.442,4.606,18.313,11.771,24.472
			c-7.484,6.399-11.794,15.753-11.794,25.6s4.309,19.201,11.794,25.6c-12.463,10.587-15.444,28.633-7.049,42.667h-1.468
			c-7.309-0.001-14.054,3.927-17.66,10.285s-3.516,14.162,0.235,20.435C13.768,453.994,33.227,464.987,54.231,465.046z
			 M273.026,234.646c0,9.426-7.641,17.067-17.067,17.067h-42.667V217.58h42.667C265.385,217.58,273.026,225.221,273.026,234.646z
			 M179.159,157.846c0-14.138-11.462-25.6-25.6-25.6s-25.6,11.462-25.6,25.6c0,4.713-3.821,8.533-8.533,8.533
			c-4.713,0-8.533-3.821-8.533-8.533V115.18h85.333v145.067c0,4.713-3.821,8.533-8.533,8.533c-4.713,0-8.533-3.821-8.533-8.533
			V157.846z M273.026,183.446c0,9.426-7.641,17.067-17.067,17.067h-42.667V166.38h42.667
			C265.385,166.38,273.026,174.021,273.026,183.446z M273.026,132.246c0,9.426-7.641,17.067-17.067,17.067h-42.667V115.18h42.667
			C265.385,115.18,273.026,122.821,273.026,132.246z M136.493,63.98h34.133v34.133h-34.133V63.98z M34.093,132.246
			c0-9.426,7.641-17.067,17.067-17.067h42.667v34.133H51.159C41.734,149.313,34.093,141.672,34.093,132.246z M34.093,183.446
			c0-9.426,7.641-17.067,17.067-17.067h44.237c4.137,11.747,16.144,18.796,28.418,16.686s21.236-12.765,21.212-25.219
			c0-4.713,3.821-8.533,8.533-8.533s8.533,3.821,8.533,8.533v42.667H51.159C41.734,200.513,34.093,192.872,34.093,183.446z
			 M34.093,234.646c0-9.426,7.641-17.067,17.067-17.067h110.933v34.133H51.159C41.734,251.713,34.093,244.072,34.093,234.646z
			 M34.093,285.846c0-9.426,7.641-17.067,17.067-17.067h112.503c3.562,10.224,13.203,17.075,24.03,17.075
			c10.827,0,20.468-6.851,24.03-17.075h44.237c9.426,0,17.067,7.641,17.067,17.067c0,9.426-7.641,17.067-17.067,17.067h-204.8
			C41.734,302.913,34.093,295.272,34.093,285.846z M34.093,337.046c0-9.426,7.641-17.067,17.067-17.067h204.8
			c9.426,0,17.067,7.641,17.067,17.067s-7.641,17.067-17.067,17.067h-204.8C41.734,354.113,34.093,346.472,34.093,337.046z
			 M34.093,388.246c0-9.426,7.641-17.067,17.067-17.067h204.8c9.426,0,17.067,7.641,17.067,17.067s-7.641,17.067-17.067,17.067
			h-204.8C41.734,405.313,34.093,397.672,34.093,388.246z M17.461,424.027c0.563-1.039,1.66-1.675,2.842-1.647h266.513
			c1.181-0.028,2.278,0.608,2.842,1.647c0.602,0.991,0.602,2.235,0,3.226c-7.801,12.851-21.737,20.707-36.77,20.727H54.231
			c-15.006-0.048-28.906-7.9-36.693-20.727C16.912,426.276,16.883,425.032,17.461,424.027z"/>
		<path d="M494.893,219.15v-44.237c0-14.138-11.462-25.6-25.6-25.6h-102.4c-14.138,0-25.6,11.462-25.6,25.6v44.237
			c-10.192,3.603-17.022,13.22-17.067,24.03v153.6c0.042,37.685,30.582,68.224,68.267,68.267h51.2
			c37.685-0.042,68.224-30.582,68.267-68.267v-153.6C511.915,232.37,505.085,222.753,494.893,219.15z M358.359,200.513h119.467
			v17.067H358.359V200.513z M366.893,166.38h102.4c4.713,0,8.533,3.821,8.533,8.533v8.533H358.359v-8.533
			C358.359,170.2,362.18,166.38,366.893,166.38z M494.893,396.78c-0.028,28.265-22.935,51.172-51.2,51.2h-51.2
			c-28.265-0.028-51.172-22.935-51.2-51.2v-153.6c0-4.713,3.821-8.533,8.533-8.533h136.533c4.713,0,8.533,3.821,8.533,8.533V396.78z
			"/>
		<path d="M469.293,362.646c-4.713,0-8.533,3.82-8.533,8.533v25.6c0,9.426-7.641,17.067-17.067,17.067h-17.067
			c-4.713,0-8.533,3.82-8.533,8.533s3.82,8.533,8.533,8.533h17.067c18.851,0,34.133-15.282,34.133-34.133v-25.6
			C477.826,366.467,474.006,362.646,469.293,362.646z"/>
		<path d="M460.759,268.78h-85.333c-9.426,0-17.067,7.641-17.067,17.067v42.667c0,9.426,7.641,17.067,17.067,17.067h85.333
			c9.426,0,17.067-7.641,17.067-17.067v-42.667C477.826,276.421,470.185,268.78,460.759,268.78z M375.426,328.513v-42.667h85.333
			v42.667H375.426z"/>
	</g>
</g>
<g>
</g>
<g>
</g>
<g>
</g>
<g>
</g>
<g>
</g>
<g>
</g>
<g>
</g>
<g>
</g>
<g>
</g>
<g>
</g>
<g>
</g>
<g>
</g>
<g>
</g>
<g>
</g>
<g>
</g>
</svg>
