<?xml version="1.0" encoding="iso-8859-1"?>
<!-- Generator: Adobe Illustrator 19.0.0, SVG Export Plug-In . SVG Version: 6.00 Build 0)  -->
<svg version="1.1" id="Capa_1" xmlns="http://www.w3.org/2000/svg" xmlns:xlink="http://www.w3.org/1999/xlink" x="0px" y="0px"
	 viewBox="0 0 512.013 512.013" style="enable-background:new 0 0 512.013 512.013;" xml:space="preserve">
<g transform="translate(-1)">
	<g transform="translate(1 1)">
		<path style="fill:#C52828;" d="M503.397,288.286l-32.853,214.187H280.335l-32.768-214.101c-0.545-3.38,1.556-6.625,4.864-7.509
			c0.581-0.174,1.185-0.261,1.792-0.256h7.339c1.024,0,1.963,0.085,2.987,0.171l188.416,1.621l22.955,0.171h1.963
			c3.702-1.3,7.597-1.963,11.52-1.963h7.253c1.967-0.031,3.848,0.803,5.146,2.282C503.099,284.366,503.682,286.34,503.397,288.286z"
			/>
		<path style="fill:#F44335;" d="M477.797,288.286l-32.853,214.187H280.335l-32.768-214.101c-0.545-3.38,1.556-6.625,4.864-7.509
			l199.851,1.707c0.216-0.097,0.447-0.154,0.683-0.171c3.486-1.202,7.15-1.808,10.837-1.792h7.253
			c1.812,0.013,3.551,0.715,4.864,1.963C477.431,284.06,478.13,286.189,477.797,288.286z"/>
		<path style="fill:#F57C00;" d="M213.349,50.206v349.867c0,56.554-45.846,102.4-102.4,102.4c-4.281,0.019-8.559-0.266-12.8-0.853
			c-22.582-2.741-43.588-12.988-59.648-29.099c-3.973-3.948-7.599-8.23-10.837-12.8c-12.466-17.388-19.152-38.253-19.115-59.648
			V50.206c0-22.187,15.872-32.853,36.181-34.048h0.256c1.195-0.085,2.389-0.085,3.584-0.085l20.907-1.621l0.939,1.792l3.157-1.707
			c11.903-4.68,24.586-7.054,37.376-6.997c13.704-0.022,27.267,2.766,39.851,8.192l22.528,0.341
			C195.429,16.073,213.349,26.654,213.349,50.206z"/>
		<path style="fill:#FF9801;" d="M187.749,50.206v349.867c0.02,51.603-38.396,95.142-89.6,101.547
			c-22.582-2.741-43.588-12.988-59.648-29.099c-3.973-3.948-7.599-8.23-10.837-12.8c-12.466-17.388-19.152-38.253-19.115-59.648
			V50.206c0-22.187,15.872-32.853,36.181-34.048l0.085,0.085l0.171-0.085l2.987-1.621C59.886,9.893,72.562,7.52,85.349,7.54
			c4.25-0.002,8.496,0.255,12.715,0.768c9.348,1.192,18.483,3.691,27.136,7.424l22.528,0.341
			C169.829,16.073,187.749,26.654,187.749,50.206z"/>
		<path style="fill:#F57C00;" d="M213.349,328.478c0,48.896-32.171,93.952-76.8,114.944c-34.389,16.213-71.68,16.725-108.885,16.299
			c-12.466-17.388-19.152-38.253-19.115-59.648V109.94c-0.363,22.041,9.422,43.026,26.539,56.917
			c10.184,8.426,21.688,15.115,34.048,19.797c10.178,3.943,20.649,7.081,31.317,9.387c6.043,1.344,11.999,3.054,17.835,5.12h0.085
			c52.395,18.176,90.88,63.317,94.635,117.163C213.263,321.737,213.349,325.065,213.349,328.478z"/>
		<path style="fill:#FF9801;" d="M187.749,328.478c0,48.896-32.171,93.952-76.8,114.944c-26.277,11.324-54.678,16.882-83.285,16.299
			c-12.466-17.388-19.152-38.253-19.115-59.648l0-234.069c0.293,0.305,0.607,0.59,0.939,0.853
			c10.184,8.426,21.688,15.115,34.048,19.797c10.178,3.943,20.649,7.081,31.317,9.387c6.043,1.344,11.999,3.054,17.835,5.12h0.085
			c52.395,18.176,90.88,63.317,94.635,117.163C187.663,321.737,187.749,325.065,187.749,328.478z"/>
		<path style="fill:#F44335;" d="M153.615,178.206c-0.014,4.278-0.646,8.532-1.877,12.629c-9.828,3.962-19.959,7.129-30.293,9.472
			c-1.024,0.256-2.048,0.512-3.072,0.853h-0.085c-5.836-2.066-11.792-3.776-17.835-5.12c-10.668-2.305-21.14-5.444-31.317-9.387
			c-0.588-2.777-0.874-5.609-0.853-8.448c0-23.564,19.103-42.667,42.667-42.667S153.615,154.642,153.615,178.206z"/>
		<path style="fill:#2E7D32;" d="M88.677,101.406l1.024,3.072c-28.874,8.265-50.237,32.666-54.613,62.379
			c-7.544-6.347-13.8-14.081-18.432-22.784c-5.493-10.529-8.279-22.259-8.107-34.133V50.206
			c-0.25-16.755,9.283-32.121,24.405-39.339C37.87,8.681,43.189,7.547,48.57,7.54l20.907,6.912l0.939,1.792l6.144,11.691
			c0,12.203-9.899,25.856,4.096,30.805C104.634,67.273,88.677,101.406,88.677,101.406z"/>
		<path style="fill:#F57C00;" d="M145.338,27.934c0,12.203,9.899,25.856-4.096,30.805c-19.712,6.997-12.459,31.317-9.216,39.765
			l-1.365,5.461c-6.428-1.722-13.057-2.582-19.712-2.56c-0.826-0.016-1.652,0.013-2.475,0.085c-3.027,0.083-6.047,0.339-9.045,0.768
			c-3.289,0.517-6.54,1.259-9.728,2.219l-1.024-3.072c0,0,15.957-34.133-8.021-42.667c-13.995-4.949-4.096-18.603-4.096-30.805
			l-6.144-11.691l3.157-1.707c11.902-4.682,24.586-7.056,37.376-6.997c13.704-0.022,27.267,2.766,39.851,8.192L145.338,27.934z"/>
		<path style="fill:#FF9801;" d="M122.554,27.934c0,12.203,9.899,25.856-4.096,30.805c-19.712,6.997-12.459,31.317-9.216,39.765
			l-0.768,2.987l-0.597,2.475c-2.767-0.79-5.592-1.36-8.448-1.707c-3.553-0.587-7.15-0.873-10.752-0.853
			c0,0,15.957-34.133-8.021-42.667c-13.995-4.949-4.096-18.603-4.096-30.805l-6.144-11.691l3.157-1.707
			c8.327-3.269,17.05-5.421,25.941-6.4c9.822,1.116,19.426,3.675,28.501,7.595L122.554,27.934z"/>
		<path style="fill:#2E7D32;" d="M213.349,50.206v59.733c0.504,22.684-9.056,44.428-26.112,59.392
			c-0.976-8.475-3.37-16.725-7.083-24.405c-9.465-19.706-26.875-34.447-47.872-40.533c-0.526-0.192-1.069-0.335-1.621-0.427
			l1.365-5.461c-3.243-8.448-10.496-32.768,9.216-39.765c13.995-4.949,4.096-18.603,4.096-30.805l5.461-12.203l12.885-4.693
			l9.643-3.499C196.149,8.296,214.053,27.383,213.349,50.206z"/>
		<g>
			<path style="fill:#4CAF50;" d="M63.077,101.406l1.024,3.072c-20.717,5.869-37.964,20.263-47.445,39.595
				c-5.493-10.529-8.279-22.259-8.107-34.133V50.206c-0.25-16.755,9.283-32.121,24.405-39.339l10.923,3.584l0.939,1.792
				l6.144,11.691c0,12.203-9.899,25.856,4.096,30.805C79.034,67.273,63.077,101.406,63.077,101.406z"/>
			<path style="fill:#4CAF50;" d="M187.749,50.206v59.733c0.152,12.087-2.445,24.051-7.595,34.987
				c-9.465-19.706-26.875-34.447-47.872-40.533c-0.526-0.192-1.069-0.335-1.621-0.427l1.365-5.461
				c-3.243-8.448-10.496-32.768,9.216-39.765c13.995-4.949,4.096-18.603,4.096-30.805l5.461-12.203l12.885-4.693
				C178.613,18.333,187.988,33.592,187.749,50.206z"/>
		</g>
		<path style="fill:#C52828;" d="M151.738,190.836c1.231-4.097,1.864-8.351,1.877-12.629c0-23.564-19.103-42.667-42.667-42.667
			s-42.667,19.103-42.667,42.667c-0.021,2.839,0.266,5.671,0.853,8.448c-12.361-4.682-23.864-11.371-34.048-19.797
			c4.377-29.713,25.74-54.113,54.613-62.379c6.892-2.07,14.052-3.105,21.248-3.072c6.655-0.022,13.284,0.838,19.712,2.56
			c0.553,0.091,1.095,0.234,1.621,0.427c29.711,8.625,51.363,34.211,54.955,64.939C176.718,178.474,164.712,185.747,151.738,190.836
			z"/>
		<g>
			<path style="fill:#FFB301;" d="M392.634,353.225c-14.399,2.318-29.12,1.679-43.264-1.877l0.512-2.475V201.929
				c0.005-3.674,2.982-6.651,6.656-6.656h29.355c3.674,0.005,6.651,2.982,6.656,6.656v150.699L392.634,353.225z"/>
			<path style="fill:#FFB301;" d="M307.215,246.473v78.933c-6.019-7.135-10.833-15.206-14.251-23.893
				c-4.797-11.723-15.789-19.743-28.416-20.736v-27.648c0.005-3.674,2.982-6.651,6.656-6.656H307.215z"/>
		</g>
		<g>
			<path style="fill:#FDD834;" d="M349.882,212.34v136.533l-0.512,2.475h-0.085c-16.444-3.908-31.194-13.003-42.069-25.941V218.996
				c0.005-3.674,2.982-6.651,6.656-6.656H349.882z"/>
			<path style="fill:#FDD834;" d="M436.069,333.172c-12.173,10.839-27.29,17.818-43.435,20.053l-0.085-0.597V212.34h34.133
				c4.713,0,8.533,3.821,8.533,8.533v111.275L436.069,333.172z"/>
		</g>
		<path style="fill:#FFB301;" d="M477.882,244.596v37.973c-9.046,3.158-16.291,10.062-19.883,18.944
			c-4.717,12.11-12.198,22.951-21.845,31.659h-0.085l-0.853-1.024V237.94h36.011C474.9,237.944,477.877,240.922,477.882,244.596z"/>
		<path style="fill:#CFD8DC;" d="M409.615,429.94c0.014,10.188-4.028,19.964-11.232,27.168
			c-7.204,7.204-16.979,11.246-27.168,11.232c-4.363,0.013-8.696-0.737-12.8-2.219c-15.31-5.443-25.536-19.933-25.536-36.181
			s10.227-30.738,25.536-36.181c4.104-1.481,8.437-2.232,12.8-2.219c10.188-0.014,19.964,4.028,27.168,11.232
			S409.629,419.751,409.615,429.94z"/>
		<ellipse style="fill:#F4F4F4;" cx="358.415" cy="429.94" rx="25.6" ry="36.181"/>
	</g>
	<g>
		<path d="M372.215,384.006c-25.921,0-46.933,21.013-46.933,46.933c0,25.921,21.013,46.933,46.933,46.933
			s46.933-21.013,46.933-46.933C419.12,405.031,398.124,384.035,372.215,384.006z M372.215,460.806
			c-16.495,0-29.867-13.372-29.867-29.867c0-16.495,13.372-29.867,29.867-29.867c16.495,0,29.867,13.372,29.867,29.867
			c0,7.921-3.147,15.518-8.748,21.119C387.733,457.66,380.136,460.806,372.215,460.806z"/>
		<path d="M1.015,503.473c0,4.713,3.821,8.533,8.533,8.533h493.508c4.713,0,8.533-3.821,8.533-8.533s-3.82-8.533-8.533-8.533
			h-21.555l31.36-204.442c0.622-4.396-0.698-8.846-3.617-12.191c-2.919-3.345-7.149-5.256-11.589-5.234h-7.313
			c-1.007,0-1.971,0.154-2.961,0.213v-27.691c-0.009-8.372-6.784-15.161-15.155-15.189h-27.477V213.34
			c0-4.713-3.82-8.533-8.533-8.533h-34.133v-1.877c-0.009-8.385-6.804-15.18-15.189-15.189h-29.355
			c-8.385,0.009-15.18,6.804-15.189,15.189v1.877h-27.477c-8.385,0.009-15.18,6.804-15.189,15.189v18.944h-27.477
			c-8.385,0.009-15.18,6.804-15.189,15.189v18.944h-1.818c-4.447-0.002-8.673,1.939-11.569,5.313
			c-2.897,3.374-4.175,7.845-3.501,12.24l31.275,204.314H170.829c32.355-20.24,52.021-55.703,52.053-93.867V51.206
			c0.674-27.534-21.048-50.428-48.58-51.2c-0.443,0-0.885,0.034-1.323,0.102c-7.833,0.943-15.42,3.349-22.366,7.091
			c-25.004-9.358-52.54-9.407-77.577-0.137c-6.882-3.66-14.38-6.018-22.118-6.955c-0.438-0.068-0.88-0.103-1.323-0.102
			c-27.532,0.772-49.254,23.666-48.58,51.2v349.867c-0.057,23.158,7.177,45.747,20.676,64.563c3.511,4.975,7.442,9.64,11.75,13.943
			c5.882,5.827,12.396,10.979,19.422,15.36H9.549C4.836,494.94,1.015,498.76,1.015,503.473z M470.349,247.473v30.583
			c-8.778,4.551-15.632,12.099-19.319,21.274c-1.74,4.294-3.841,8.434-6.281,12.373v-64.23H470.349z M427.682,221.873v102.4v0.085
			v6.468c-7.601,5.936-16.301,10.31-25.6,12.868V221.873H427.682z M359.415,204.806h25.6v141.705
			c-2.825,0.222-5.615,0.521-8.533,0.521c-5.724-0.037-11.433-0.565-17.067-1.579V204.806z M316.749,221.873h25.6v118.869
			c-9.757-3.908-18.508-9.966-25.6-17.724V221.873z M299.682,256.006v38.869c-5.431-9.933-14.675-17.223-25.6-20.19v-18.679H299.682
			z M257.314,290.139l5.214,0.001c10.255-0.067,19.537,6.063,23.501,15.522c3.75,9.492,9.006,18.318,15.565,26.138
			c0.31,0.431,0.662,0.831,1.05,1.195c18.827,20.743,45.845,32.124,73.839,31.104c42.667,0,75.605-21.333,90.453-58.445
			c3.958-9.435,13.209-15.558,23.441-15.514l5.274-0.001L464.23,494.94H288.665L257.314,290.139z M205.815,263.123
			c-14.244-25.294-35.546-45.893-61.303-59.281c3.686-1.237,7.373-2.483,10.854-3.891l0.111-0.043
			c0.162-0.06,0.341-0.111,0.495-0.179c13.887-5.442,26.733-13.236,37.973-23.04c4.361-3.932,8.336-8.273,11.87-12.962V263.123z
			 M111.949,110.94c32.91,0.027,61.116,23.529,67.081,55.893c-4.989,4.008-10.333,7.553-15.966,10.59
			c-1.158-26.745-22.724-48.082-49.479-48.957c-26.755-0.875-49.668,19.009-52.571,45.621c-5.464-2.775-10.67-6.03-15.556-9.728
			C52.49,133.249,80.054,111.104,111.949,110.94z M78.037,181.485c-0.043-0.777-0.222-1.425-0.222-2.278
			c0-18.851,15.282-34.133,34.133-34.133s34.133,15.282,34.133,34.133c-0.027,2.076-0.235,4.147-0.623,6.187
			c-8.226,3.131-16.657,5.697-25.233,7.68l-0.725,0.196c-5.321-1.798-10.733-3.316-16.213-4.548
			C94.725,186.847,86.292,184.43,78.037,181.485z M174.933,17.073c17.84,1.135,31.533,16.269,30.882,34.133v59.733
			c0.28,14.857-4.235,29.409-12.877,41.498c-8.074-24.437-26.747-43.924-50.816-53.035c-0.068-0.196-0.051-0.41-0.137-0.606
			c-3.889-7.867-5.048-16.805-3.294-25.404c1.191-2.746,3.548-4.816,6.426-5.641c16.939-5.973,13.278-21.333,11.324-29.542
			c-1.51-6.332-2.364-10.684-0.521-13.449C157.235,22.842,161.442,19.283,174.933,17.073z M138.999,21.152
			c-1.626,6.962-1.332,14.236,0.853,21.043c0.882,2.781,1.317,5.684,1.289,8.602c-0.502,0.402-1.084,0.693-1.707,0.853
			c-7.427,2.431-13.434,7.963-16.469,15.164c-3.093,8.968-3.23,18.69-0.393,27.742c-3.524-0.449-7.072-0.677-10.624-0.683
			c-3.542,0.026-7.079,0.277-10.59,0.751c2.836-9.058,2.699-18.785-0.393-27.759c-3.035-7.201-9.043-12.732-16.469-15.164
			c-0.609-0.195-1.185-0.483-1.707-0.853c-0.062-2.937,0.362-5.863,1.254-8.661c2.206-6.83,2.501-14.134,0.853-21.12
			c17.656-5.25,36.463-5.218,54.101,0.094V21.152z M18.082,51.206c-0.651-17.864,13.042-32.999,30.882-34.133
			c13.5,2.202,17.698,5.76,19.012,7.68c1.843,2.765,0.99,7.117-0.521,13.449c-1.954,8.226-5.615,23.526,11.324,29.542
			c2.878,0.825,5.235,2.894,6.426,5.641c1.748,8.584,0.592,17.506-3.285,25.361c-0.102,0.23-0.085,0.478-0.171,0.708
			c-23.449,9.014-41.789,27.822-50.21,51.49c-9.014-11.357-13.774-25.508-13.457-40.004V51.206z M18.082,161.44
			c3.711,4.691,7.875,9.004,12.433,12.877c10.902,9.056,23.229,16.244,36.48,21.274c10.594,4.114,21.497,7.384,32.606,9.779
			c5.711,1.269,11.339,2.885,16.853,4.838c0.213,0.077,0.427,0.137,0.649,0.196c48.703,15.613,83.452,58.698,88.397,109.602
			c0.239,3.191,0.316,6.306,0.316,9.506c-1.711,46.483-29.555,88.003-71.91,107.23c-30.72,14.507-63.855,15.829-100.634,15.505
			c-9.937-15.216-15.216-33.001-15.189-51.174L18.082,161.44z M47.505,469.28c33.28-0.282,64-3.14,93.679-17.135
			c27.213-12.859,49.787-33.815,64.631-59.998v8.926c-0.017,37.469-22.315,71.338-56.725,86.164S74.748,495.004,47.505,469.28z"/>
	</g>
</g>
<g>
</g>
<g>
</g>
<g>
</g>
<g>
</g>
<g>
</g>
<g>
</g>
<g>
</g>
<g>
</g>
<g>
</g>
<g>
</g>
<g>
</g>
<g>
</g>
<g>
</g>
<g>
</g>
<g>
</g>
</svg>
