<?xml version="1.0" encoding="iso-8859-1"?>
<!-- Generator: Adobe Illustrator 19.0.0, SVG Export Plug-In . SVG Version: 6.00 Build 0)  -->
<svg version="1.1" id="Capa_1" xmlns="http://www.w3.org/2000/svg" xmlns:xlink="http://www.w3.org/1999/xlink" x="0px" y="0px"
	 viewBox="0 0 512 512" style="enable-background:new 0 0 512 512;" xml:space="preserve">
<g>
	<g transform="translate(10 1)">
		<path style="fill:#0377BC;" d="M459.163,230.936l-10.752,58.197L433.733,331.8H271.6l-14.677-42.667l-10.752-58.197
			c-0.461-2.515,0.231-5.104,1.884-7.054c1.653-1.95,4.093-3.057,6.65-3.015h195.925c2.556-0.042,4.997,1.065,6.65,3.015
			C458.932,225.832,459.623,228.421,459.163,230.936z"/>
		<path style="fill:#02A9F4;" d="M433.563,230.936l-10.752,58.197L408.133,331.8H271.6l-14.677-42.667l-10.752-58.197
			c-0.461-2.515,0.231-5.104,1.884-7.054c1.653-1.95,4.093-3.057,6.65-3.015h170.325c2.556-0.042,4.997,1.065,6.65,3.015
			C433.332,225.832,434.023,228.421,433.563,230.936z"/>
		<g>
			<polygon style="fill:#4E342E;" points="448.411,289.133 408.987,502.467 296.347,502.467 256.923,289.133 			"/>
			<path style="fill:#4E342E;" d="M211.867,209.432v94.805c0,0-0.085,0.683-0.256,1.963c-1.451,9.813-7.936,54.955-10.24,89.003
				c-0.92,13.479,0.319,27.018,3.669,40.107c3.888,14.149,6.178,28.69,6.827,43.349v23.808H75.333v-23.808
				c0.649-14.659,2.939-29.2,6.827-43.349c3.35-13.088,4.589-26.628,3.669-40.107c-2.304-34.048-8.789-79.189-10.24-89.003
				c-0.171-1.28-0.256-1.963-0.256-1.963v-94.805c0-35.669,34.133-87.808,34.133-87.808C120.816,97.816,120.816,50.2,120.816,50.2
				L118,33.133h51.2L166.384,50.2c0,0,0,47.616,11.349,71.424C177.733,121.624,211.867,173.763,211.867,209.432z"/>
		</g>
		<g>
			<polygon style="fill:#795548;" points="256.923,289.133 422.811,289.133 383.387,502.467 296.347,502.467 			"/>
			<path style="fill:#795548;" d="M186.267,209.432v94.805c0,0-0.085,0.683-0.256,1.963c-1.451,9.813-7.936,54.955-10.24,89.003
				c-0.92,13.479,0.319,27.018,3.669,40.107c3.888,14.149,6.178,28.69,6.827,43.349v23.808H75.333v-23.808
				c0.649-14.659,2.939-29.2,6.827-43.349c3.35-13.088,4.589-26.628,3.669-40.107c-2.304-34.048-8.789-79.189-10.24-89.003
				c-0.171-1.28-0.256-1.963-0.256-1.963v-94.805c0-35.669,34.133-87.808,34.133-87.808C120.816,97.816,120.816,50.2,120.816,50.2
				L118,33.133h25.6L140.784,50.2c0,0,0,47.616,11.349,71.424C152.133,121.624,186.267,173.763,186.267,209.432z"/>
		</g>
		<g>
			<path style="fill:#C52828;" d="M211.867,212.333v91.904c0,0-0.085,0.683-0.256,1.963H75.589c-0.171-1.28-0.256-1.963-0.256-1.963
				v-91.904H211.867z"/>
			<path style="fill:#C52828;" d="M177.733,24.6v17.067c0,4.713-3.82,8.533-8.533,8.533H118c-4.713,0-8.533-3.821-8.533-8.533V24.6
				c0.028-9.414,7.653-17.039,17.067-17.067h34.133C170.081,7.561,177.705,15.186,177.733,24.6z"/>
		</g>
		<g>
			<path style="fill:#F44335;" d="M186.267,212.333v91.904c0,0-0.085,0.683-0.256,1.963H75.589c-0.171-1.28-0.256-1.963-0.256-1.963
				v-91.904H186.267z"/>
			<path style="fill:#F44335;" d="M152.133,24.6v17.067c0,4.713-3.821,8.533-8.533,8.533H118c-4.713,0-8.533-3.821-8.533-8.533V24.6
				c0.028-9.414,7.653-17.039,17.067-17.067h8.533C144.481,7.561,152.105,15.186,152.133,24.6z"/>
		</g>
	</g>
	<g>
		<path d="M8.533,512h443.733c4.713,0,8.533-3.82,8.533-8.533c0-4.713-3.82-8.533-8.533-8.533h-22.989l48.307-261.461
			c0.917-4.958-0.425-10.067-3.661-13.935c-3.277-3.943-8.143-6.217-13.269-6.204H264.678c-5.127-0.014-9.992,2.261-13.269,6.204
			c-3.236,3.868-4.578,8.977-3.661,13.935l48.307,261.461H230.4v-15.275c-0.645-15.367-3.03-30.611-7.108-45.44
			c-3.122-12.223-4.275-24.866-3.413-37.453c2.56-37.615,10.342-89.745,10.428-90.266c0.061-0.415,0.092-0.835,0.094-1.254v-94.805
			c0-36.275-31.36-86.042-35.191-91.989c-7.475-16.119-9.532-44.561-10.095-58.718h2.62c4.713,0,8.533-3.821,8.533-8.533V25.6
			c0-14.138-11.462-25.6-25.6-25.6h-34.133c-14.138,0-25.6,11.462-25.6,25.6v25.6c0,4.713,3.821,8.533,8.533,8.533h2.62
			c-0.563,14.157-2.611,42.598-10.095,58.718c-3.831,5.948-35.191,55.714-35.191,91.989v94.805c0.002,0.42,0.033,0.839,0.094,1.254
			c0.085,0.521,7.834,52.634,10.428,90.266c0.861,12.586-0.291,25.23-3.413,37.453c-4.079,14.829-6.463,30.073-7.108,45.44v15.275
			H8.533c-4.713,0-8.533,3.821-8.533,8.533C0,508.18,3.821,512,8.533,512z M460.8,230.4l8.388,1.553L460.8,230.4z M460.8,230.485
			l-9.463,51.115H274.108l-9.429-51.2L460.8,230.485z M277.257,298.667h170.923l-36.258,196.267h-98.5L277.257,298.667z
			 M93.867,221.867h119.467v76.8H93.867V221.867z M128,25.6c0-4.713,3.821-8.533,8.533-8.533h34.133
			c4.713,0,8.533,3.821,8.533,8.533v17.067H128V25.6z M126.609,127.292c0.199-0.322,0.378-0.655,0.538-0.998
			c9.156-19.149,11.443-51.268,12.023-66.56h28.826c0.58,15.292,2.867,47.411,12.023,66.56c0.165,0.344,0.35,0.677,0.555,0.998
			c0.316,0.469,29.201,44.954,32.427,77.508H94.191C97.417,172.288,126.293,127.761,126.609,127.292z M93.867,479.659
			c0.65-13.947,2.857-27.777,6.579-41.233c3.572-13.98,4.892-28.441,3.908-42.837c-1.894-27.307-6.434-62.037-8.909-79.855h116.309
			c-2.475,17.818-7.014,52.506-8.909,79.855c-0.983,14.396,0.336,28.857,3.908,42.837c3.723,13.456,5.929,27.287,6.579,41.233
			v15.275H93.867V479.659z"/>
		<path d="M503.467,494.933H486.4c-4.713,0-8.533,3.821-8.533,8.533c0,4.713,3.82,8.533,8.533,8.533h17.067
			c4.713,0,8.533-3.82,8.533-8.533C512,498.754,508.18,494.933,503.467,494.933z"/>
	</g>
</g>
<g>
</g>
<g>
</g>
<g>
</g>
<g>
</g>
<g>
</g>
<g>
</g>
<g>
</g>
<g>
</g>
<g>
</g>
<g>
</g>
<g>
</g>
<g>
</g>
<g>
</g>
<g>
</g>
<g>
</g>
</svg>
